<svg id="Layer_19" data-name="Layer 19" xmlns="http://www.w3.org/2000/svg" viewBox="0 0 250 250"><title>coat-style-effects</title><path d="M96.08,67.36c7.14-5.74,14.09-11.74,21.49-17.12,4.43-3.23,8.78-2.69,13,1.77,10.5,11.22,21.55,21.94,32,33.2,1.66,1.78,2.37,5.53,1.89,8.05-2.43,12.49-20.14,29.26-32.77,31.12a9.64,9.64,0,0,1-6.86-2.21,169.94,169.94,0,0,1-14.07-14.08,11.81,11.81,0,0,1-2.42-6.32c-1.18-10.81.52-20.45,10-27.72,3.13-2.39,5.14-6.67,6.72-10.48,1-2.34.15-5.42.13-8.17-2.72.37-5.79.09-8.06,1.3-3.17,1.68-5.6,4.72-8.63,6.75-3.44,2.32-7.19,4.18-10.8,6.23Z"/><path d="M55.15,177.27c0,1.73.37,3.25-.06,4.5-1.53,4.5.27,7.79,3.95,9.75,11.55,6.18,23.52,6.53,35.14.54,2.59-1.34,5-5.32,5.2-8.23.13-2-3.28-5.36-5.79-6.33-11.23-4.32-22.78-7.82-34.07-12a114.29,114.29,0,0,1-17.61-8c-7.31-4.24-8.88-10.85-3.26-17.15a42,42,0,0,1,15.94-11.27,64.33,64.33,0,0,1,46.66.3c5.71,2.23,12,5.51,13.19,13.1a2.61,2.61,0,0,0,1.66,1.78c3.81.45,2.5,2.67,1.91,4.82-.26.95,0,2.06-.18,3-.26,1.32-.46,2.87-1.29,3.78-.38.42-2.54,0-3.25-.77a93,93,0,0,1-7.91-8.81c-10-12.94-29.13-17.77-44-11-5.17,2.33-7.73,6.34-8,11.92-.27,5.31,3.21,8.3,7.43,9.67,9.94,3.22,20.16,5.57,30.13,8.69a123.1,123.1,0,0,1,18,7c5,2.45,8.07,6.77,7.59,12.74s-4.07,9.75-9.27,11.68a72.79,72.79,0,0,1-49.32.78,12.83,12.83,0,0,1-9.16-11.13,8.47,8.47,0,0,1,4.2-8.9A10.33,10.33,0,0,1,55.15,177.27Z"/><path d="M180,172.79c-4.51-17.55-15.09-27.64-33-32.28C164,135.79,174.8,126,179.58,109c5.11,17,15.8,26.77,33.15,31.32C195.26,145,184.59,155.07,180,172.79Z"/><path d="M112.12,74.28c-10.54,5-10.35,14.15-10.33,23.34,0,3.35-.83,6.69-1.43,11.14l-4.44-4a20.74,20.74,0,0,1-1.08,4.5c-.52,1.07-1.71,1.82-2.6,2.71-.84-1-2.35-1.89-2.41-2.9-.32-4.87-.28-9.76-.3-14.65,0-2.79.06-5.59.18-8.38.44-10,3.23-12.73,13.4-13,2.6-.07,5.2,0,7.8,0Z"/><path d="M143.09,187.85c6.36-2,11.21-6.92,14.15-15,3,8.12,8.19,13,14.72,15.18l-14.58,13.64Z"/><path d="M134.67,153.18c3,2.76,6.2,5.79,9,8.43l-9,8.47-9.1-8.52Z"/></svg>