<svg id="Layer_19" data-name="Layer 19" xmlns="http://www.w3.org/2000/svg" viewBox="0 0 250 250"><title>connectors</title><path d="M109.4,209.73c-8.19-7.75-13.92-16.41-11.57-28.55s10-19,21.27-22.87a11.22,11.22,0,0,0,5.87-4.9c4.77-9.28,9-18.82,13.52-28.22,1.39-2.91,1.43-5.15-.7-8.1a46.15,46.15,0,0,1-6.36-12.92c-1.09-3.48-2.67-5.45-6.15-6.13-11.49-2.23-23-4.66-34.5-6.61-1.71-.29-4,1.3-5.66,2.55-9.87,7.59-24.39,8.44-34.6,1.86A29.81,29.81,0,0,1,37.58,63.78C40.58,51.7,50.93,42.93,64.47,41c10-1.42,22.36,5.11,27.57,15.5,1.83,3.65,4.38,4.58,7.67,5.25,11.47,2.36,23,4.56,34.39,7.21,3.12.72,4.89.24,7.28-1.93,11-9.93,23.18-15.77,38.72-11.77C195,59.11,210.39,83,207.24,97.64,202.65,119,194.3,128.8,172.7,133.12c-3.36.67-5.12,2-6.4,5.08-4.47,10.64-9.24,21.17-13.72,31.81a6.59,6.59,0,0,0,0,4.61,27.59,27.59,0,0,1-7.56,32.63,20,20,0,0,0-2.09,2.48ZM190.91,95c0-13.27-8.37-22.8-20.1-22.84S149,80.25,148.9,90c-.14,15.59,8.15,25.88,20.83,25.85C179.54,115.83,190.89,104.65,190.91,95Z"/></svg>