<svg id="Layer_19" data-name="Layer 19" xmlns="http://www.w3.org/2000/svg" viewBox="0 0 250 250"><title>electronics</title><path d="M106.88,209.73c-5.42-7.37-9.38-15.13-7.38-24.75,1.42-6.87,4.47-12.8,10.44-16.57,3.82-2.41,6.17-4.76,5.11-9.7-1.11-5.16-3.93-8.41-8.92-9.72-3.72-1-7.51-1.73-11.29-2.49-14-2.79-22.63-11-26.16-24.92A11.7,11.7,0,0,0,64,115.22c-11.12-7-16.77-19.86-13.61-32A28.26,28.26,0,0,1,77.47,61.82c13.33-.16,24.36,7.8,28,20.18,3.67,12.61-1.36,25.48-12.77,32.72-.67.42-1.32.91-2.24,1.56,1.29,6.51,6,9,11.76,9.14,14.64.3,29.29.08,43.93.07,5.57-5.59,12-10.58,16.32-17,2.15-3.22.8-9.19,0-13.75-.38-2.3-2.57-4.78-4.61-6.25-12.56-9-15.31-26-5.94-38.29a26.63,26.63,0,0,1,37.5-4.8c11.93,9.51,14.7,28.38,3.39,38.23-8,7-8.24,14.17-7.95,22.91.13,3.87.76,6.33,4.28,9,8.65,6.49,12.17,15.78,9.91,26.48-2.3,10.92-9.28,17.8-20.18,20.53-10.29,2.59-18.9-.46-25.82-8.22-6.23-7-6.51-7.22-16.79-5.64.38,5.17.68,10.39,1.24,15.57a5.28,5.28,0,0,0,1.94,2.83c15.7,13.66,16.93,26.38,4.06,42.7ZM70.06,90.39c.72,4.77,3.43,7.41,8.09,7.57a7.64,7.64,0,0,0,7.7-8.32c-.61-4.7-3.54-7.17-8.29-7C72.61,82.78,70.55,85.91,70.06,90.39Zm110.28,46.46c-.32-4.6-2.67-7.45-7.14-7.5s-7.32,2.64-7.49,7.05,2.61,7.15,7.07,7.34C177.42,143.93,179.59,141,180.34,136.85Zm0-70.24c-.29-4.41-2.56-7-7.17-7.21s-7.37,2.44-7.53,6.86,2.87,7.33,7.13,7.51S179.85,71.29,180.35,66.61ZM125.77,196.92c4.31-.7,7.33-2.81,7-7.53-.32-4.15-2.84-6.69-7.15-6.66-4.53,0-7.3,2.53-7.27,7.11S121.43,196.51,125.77,196.92Z"/></svg>