<svg id="Layer_19" data-name="Layer 19" xmlns="http://www.w3.org/2000/svg" viewBox="0 0 250 250"><title>grab-points</title><path d="M112.91,209.73c-4.27-7-5.55-13.89.85-20.56.83-.87,1.06-2.59,1.1-3.92q.38-15.84.53-31.67c0-5.8-3.66-8.16-9.08-6-10.15,4-20.35,7.8-30.43,11.94a9.9,9.9,0,0,0-4.4,4c-3.77,6.41-10.36,8.46-17.63,5.15-6-2.73-9.14-11-6.65-17.44,2.59-6.7,9.79-9.78,16.8-7.77a14.75,14.75,0,0,0,8.43,0c8.94-3.08,17.69-6.74,26.53-10.12,2.61-1,4.35-2.11,4.78-5.5a20.37,20.37,0,0,1,10.07-15.69,7.19,7.19,0,0,0,2.78-5.06c.66-10.71,1.07-21.44,1.29-32.17A7.44,7.44,0,0,0,115.8,70c-3.14-3.18-3.65-6.51-1.33-10.17,4-6.33,8.16-12.55,13.08-20.09,4.61,8,9,14.67,12.26,21.88.89,2-1.52,5.54-2.67,8.27-.81,2-2.82,3.67-2.94,5.58-.7,10.71-1.09,21.44-1.3,32.17a6.79,6.79,0,0,0,2.29,4.79c6.57,5.1,10.17,11.54,9.29,19.91-.33,3.15.69,4.91,3.14,6.62,9.37,6.57,18.56,13.41,28,19.88,1.4,1,3.9,1,5.67.57,3.85-.92,7.69-1.11,9.2,3,2.89,7.77,5,15.81,7.84,24.88-8.78-1.08-16-1.92-23.21-2.88-4.2-.56-5.92-3.29-6.54-7.32a8.53,8.53,0,0,0-2.75-5.11c-9.3-7-18.77-13.73-28.28-20.42-1.12-.8-3.15-1.46-4.15-1s-1.79,2.51-1.83,3.88c-.33,10.73-.49,21.46-.63,32.2a4.91,4.91,0,0,0,.74,3c5.33,6.34,4.61,13.11,1.65,20.09Z"/><path d="M106.83,106.33l-9.9,12.48c-7.21-6.59-14.54-13.53-22.18-20.12A23.92,23.92,0,0,0,66.19,94c-7-2.09-11.2-7.89-10.28-15.34.81-6.66,6.38-11.26,13.48-11.15,6.74.11,11.67,5.09,12.75,12.11a12.73,12.73,0,0,0,3.25,6.77C92.38,93.21,99.7,99.74,106.83,106.33Z"/><path d="M146.51,111.21c7.35-4.16,14.88-8.25,22.18-12.7a7.25,7.25,0,0,0,2.93-4.81c.58-5.08,3.36-7.49,8.15-7.28,7.46.33,14.91,1.07,23.89,1.75-4.43,8.26-8.06,15.71-12.46,22.68-.94,1.48-5.23,2.3-7,1.45-3.33-1.57-5.58-.77-8.32.81-7.53,4.33-15.17,8.47-22.6,12.59Z"/></svg>