<svg id="Layer_19" data-name="Layer 19" xmlns="http://www.w3.org/2000/svg" viewBox="0 0 250 250"><title>hover-effects</title><path d="M114,204.63c0-2.64.6-5.14-3.29-6.22-22.12-6.13-36-21.61-46.14-41.28-1.41-2.75-3.25-5.44-3.92-8.38-1.62-7.1-6.42-7.63-12.32-7.1-3.73.34-7.52.07-11.61.07v-18.9H56c3.34-7.44,5.85-14.69,9.65-21.18,10.57-18.09,23.85-33.11,45.91-37.26,1-.2,2.31-2.51,2.39-3.91.29-4.88.11-9.79.11-15.1H133.1c0,5.73-.25,11.34.16,16.9a6.09,6.09,0,0,0,3.34,4.39c27,8.55,45,25.89,53.52,53a5.59,5.59,0,0,0,4.07,3c5.21.36,10.46.14,16,.14v18.56l-18,1c-2.05,6.77-3.46,13.42-6,19.57-8.89,21.23-24.68,33.82-47.86,36.13-4.64.46-5.78,2.69-5.7,6.59Zm53.06-70.82c.42-22.07-21.94-44.11-45.54-44.88-18.18-.6-39.63,22.17-40,42.46-.36,19.2,22.49,43.9,41.46,43.5C146.9,174.38,164.84,164.3,167.07,133.81Z"/><path d="M122.66,113.59c9.94,0,20,9.26,20.16,18.66.19,10.42-7.91,18.39-18.79,18.52-8.06.1-17.91-10.38-18-19.11C106,123.13,114.75,113.63,122.66,113.59Z"/></svg>