<svg id="Layer_19" data-name="Layer 19" xmlns="http://www.w3.org/2000/svg" viewBox="0 0 250 250"><title>paint</title><path d="M173.6,144c-19.26,2.14-35.56,11-50.25,22.42-13.1,10.2-25.4,21.5-37.43,33-10.12,9.66-20.07,12.84-31.56,8.29-10.45-4.14-17.47-15.31-17.62-27.9a47.22,47.22,0,0,1,11.5-31.59c11.61-13.74,24.24-26.63,35.7-39.08-6.73,3.93-14.75,8.69-22.88,13.28-2.44,1.38-5.08,2.86-7.78,3.22-9.71,1.3-17-7.6-12.57-16.48C46.1,98.4,53.25,88.53,59.79,78.38c1.5-2.32,3.6-4.24,4.43-7.75-3.75,2.59-7.62,5-11.21,7.81-3.84,3-7.66,4.3-11.38.31S39.37,71,42.83,67.52c20.49-20.75,45.36-30,74.29-27.35,3.6.33,8,4.12,9.94,7.49,2.56,4.44.67,9.54-3.85,12.45-6.95,4.46-14.21,8.43-20.88,14.1,2.44-.7,4.9-1.35,7.32-2.1,21.82-6.68,44-10,66.84-7,6.46.82,10.81,3.92,11.79,10.42,1.05,6.9-2.6,11.13-8.86,13.68-16,6.51-29.56,16.77-41.88,29.25,7.09-1.23,14.15-2.63,21.27-3.63,11.22-1.59,22.57-1.61,32.9,3.34A53,53,0,0,1,208,130.22c6.3,7,5.12,16.12-2.33,22-4.58,3.63-10.15,6-15.38,8.81-9.44,5-19.25,9.33-28.35,14.85a47.16,47.16,0,0,0-19.18,22.45c-3.43,8.12-10.24,11-17.12,7.59s-8.67-11.19-4-18.94c9.85-16.41,24.14-28,40.74-37C166.11,148,169.86,146,173.6,144Z"/></svg>