<svg id="Layer_19" data-name="Layer 19" xmlns="http://www.w3.org/2000/svg" viewBox="0 0 250 250"><title>preview-invisibility</title><path d="M106.32,174.05l-12.54-3.9L83,188.16c-5.24-3.77-10-7.2-14.78-10.65-3.12-2.26-1.51-4.54.2-6.54,3.17-3.74,6.53-7.32,10.28-11.49l-11.76-10.1-14.63,17c-5.64-6.27-10.47-11.62-15.57-17.28l17-14.73c-3.21-4.64-6.38-9.35-9.67-14-5.27-7.42-5.26-14.74-1-22.82,21.74-41.15,59.38-54.31,99.19-49.83,21.25,2.39,36.34,13.84,48.05,30.44,5.68,8,9.78,17.2,14.75,25.76,3.34,5.74,3.6,11.07-.86,16.43-2.15,2.57-3.75,5.58-6.11,9.17,3.68,2.86,7.26,5.86,11.06,8.55s3.57,5.28.69,8.33c-10.9,11.57-7,12.38-19.29,1.28-.88-.8-1.79-1.56-3.3-2.88l-6.9,7.47,12.41,14.17c-4.4,3.86-8.2,7.27-12.08,10.58-2.53,2.16-4.48,1.55-6.28-1.25-2.44-3.8-5.22-7.38-8-11.23l-9.3,4.84c1.61,4.93,3,9.82,4.8,14.59,1.08,3,.36,4.51-2.71,5.11-1.55.31-3.06.82-4.59,1.21-12,3.07-12,3.07-13.65-9.37-.3-2.3-.63-4.61-.9-6.59-.74-.33-.94-.5-1.11-.47-12.93,1.81-13.19,1.79-14.23,15-.42,5.41-2.62,7-7.51,5.92-18.1-4.13-16,0-11.7-17.47C105.76,176.46,106,175.51,106.32,174.05ZM126.81,70c-22.49-.56-44.57,6.68-58.68,34.57a10.2,10.2,0,0,0-.26,7.51c5.19,13,15.37,21.92,25.95,30.38,17.8,14.23,48.62,13.9,65.15-1.9,8.32-7.95,14.6-18,21.55-27.37a6.27,6.27,0,0,0,.38-5.39C169.56,83.87,156.9,68.33,126.81,70Z"/></svg>