<svg id="Layer_19" data-name="Layer 19" xmlns="http://www.w3.org/2000/svg" viewBox="0 0 250 250"><title>rules</title><path d="M77.38,209.73,47.05,179.94c-3.2-3.14-6.38-6.28-10.32-10.16l134.6-130,38.16,36.43-131,133.57ZM67.24,158.92c-3.62,3.51-6.69,6.47-9.91,9.6l20.06,18.92L187.61,77.86,170,59.55l-9.3,8.66,11.12,11.67-6.21,5.69L155.51,73.28l-9.93,10.44,11.06,9.51-5,6.73L141,87.7l-9.29,9.48,10.23,11L137.12,115c-4.05-4.88-7.34-8.82-10.82-13l-9,9.76,10.07,10.69-5.11,6c-3.88-4.47-7.28-8.37-10.91-12.56l-11,10,13.28,11.66-6,5.66c-4-4.72-7.53-9-11.26-13.49L85.55,140.46l14.18,11-7.4,6.76L81.14,144.74,72.29,154l12,12.56-5.8,5Z"/></svg>