<svg id="Layer_19" data-name="Layer 19" xmlns="http://www.w3.org/2000/svg" viewBox="0 0 250 250"><title>thermometer</title><path d="M37.2,175c-1.87-31.79,1.14-62.07,23.23-87.24,9.12-10.4,20.86-16.89,34.18-20.37a106.14,106.14,0,0,1,55.9.18c23.22,6.41,39.4,21.3,49.4,43,8.77,19,11.91,39.25,11.77,60.07a32.14,32.14,0,0,1-.26,3.24A6,6,0,0,1,211,175Zm106.13-22.35h45.16c-1.43-13.45-4.73-25.91-11.13-37.48C168.85,99.81,156,90.29,138.65,87.92a128.9,128.9,0,0,0-28.58-.82c-30.88,2.71-55.25,34.75-50.43,65.55h42.81c1.5-14.17,8.23-20.67,21.64-21.5a6.61,6.61,0,0,0,3.78-2.08c5.41-5.53,10.44-11.47,16.13-16.68,3.09-2.82,7.25-4.47,10.93-6.65l1.78,1.51c-1.33,4.31-2.11,8.91-4.12,12.89-3.28,6.47-7.43,12.5-11,18.81a6.65,6.65,0,0,0-.75,4.19C141.39,146.28,142.42,149.34,143.33,152.65Z"/></svg>