<svg id="Layer_19" data-name="Layer 19" xmlns="http://www.w3.org/2000/svg" viewBox="0 0 250 250"><title>wires</title><path d="M164,199.5c-1.54-1.63-3.59-3-4.53-4.93-2.65-5.4-7.17-6-12.39-6.08-19.54-.35-39.07-1.48-57.75-7.75a57.81,57.81,0,0,1-18.06-9.64c-11-9.06-10-24.84,2.26-32,7.91-4.6,17-7.37,25.87-10.09,13-4,26.3-7.06,39.37-10.87a45.8,45.8,0,0,0,11.2-5.26c6.58-4.1,6.8-10.82,0-14.6-5-2.78-10.91-5.13-16.5-5.34-12.88-.48-25.82.38-38.72.94-1.37.06-3,1.52-4,2.74-7,8.78-15.42,13.87-27.22,12.94-8.58-.68-17.25-.14-25.77-.14-.43-.8-.86-1.23-.86-1.66-.09-16.59-.34-33.17-.09-49.75.12-7.91.56-7.89,8.29-7.92,6.39,0,12.79.05,19.18-.14C77,49.61,86.81,54.65,93.4,65.45c1.88,3.1,4,4.09,7.49,4,14.4-.23,28.83.62,42.35,5.74,7,2.67,14.25,6.74,19.5,12,12.87,13,9.42,31.57-7.4,38.65-12,5-25,7.63-37.51,11.38-10.55,3.17-21.17,6.14-31.55,9.8-3.64,1.28-9.16,3.39-7.94,8,.8,3,5.45,5.94,9,7.27,12.7,4.75,26.12,4.33,39.42,4,7.42-.19,14.82-.86,22.24-1.2a8.74,8.74,0,0,0,7.67-4.22c6.9-10.4,17-14.64,29.28-14.32q10.37.27,20.73.16c3.9,0,5.63,1.68,5.63,5.55,0,12.78.12,25.56.21,38.34,0,2.92.15,5.85.23,8.77Z"/></svg>