<svg id="Layer_19" data-name="Layer 19" xmlns="http://www.w3.org/2000/svg" viewBox="0 0 250 250"><title>x-ray</title><path d="M150.44,68.86c13.45.71,27.06,1.33,40.66,2.18,12.15.76,19.52,8.29,19.7,20.43.32,22.48.43,45,.48,67.47,0,10.77-6.14,17.34-17.08,17.62-12.1.32-24.22-.09-36.32-.17-2.3,0-4.6,0-7.45,0-.28,3.43-.42,6.61-.82,9.77-1,8-4.46,11.29-12.49,11.26-28.26-.14-56.51-.48-84.76-.65-4.65,0-8-2-9.32-6.26-1.48-4.71-3-9.66-3.07-14.53C39.34,138.51,39,101,38.7,63.55c-.09-10.52,2.63-13.69,13-14,22.24-.72,44.49-1.12,66.74-1.37,5.93-.07,12,.15,17.74,1.59a19.07,19.07,0,0,1,9.83,6.8C148.4,59.75,148.92,64.3,150.44,68.86ZM150.09,162c14.62,0,28.95,0,43.29,0,3.64,0,3.37-2.87,3.35-5.43-.13-21.11-.34-42.23-.29-63.35,0-5.58-2.89-7.53-7.75-7.78q-14.37-.72-28.74-1.28c-3.17-.12-6.35,0-9.86,0ZM130.26,82.52c1.92,0,4.22.67,5.68-.16,2.19-1.24,3.8-3.53,5.67-5.37-1.87-1.84-3.46-4.21-5.69-5.36-1.66-.85-4.14-.23-6.24-.08-4.29.32-10-.49-9.7,6S126,82.57,130.26,82.52ZM100.57,142c0-1.72.12-3.46,0-5.17-.29-3.59-2.39-6.27-5.86-5.43-2.11.52-4,3.33-5.27,5.52-.74,1.27-.07,3.36,0,5.09.06,4.56-.82,10.42,5.76,10.43C101.93,152.39,100.62,146.44,100.57,142Zm36.82,21.67v-.11c-1.35,0-2.69,0-4,0-3.86-.1-7,1.75-6.33,5.5.36,2.11,3.64,4.64,6,5.25a23.34,23.34,0,0,0,10.8-.14c1.83-.44,4.45-3.36,4.28-4.88-.23-2-2.53-4.33-4.54-5.43C142,162.91,139.49,163.62,137.39,163.62ZM89.05,109.45c0,1.73,0,3.45,0,5.18.07,3.73,2.32,6.3,5.65,5.6,2-.43,3.87-3.46,5.12-5.7.73-1.32.26-3.38.13-5.1-.32-4.3,1.58-10-5.6-10.45C89.9,98.69,88.53,101.54,89.05,109.45ZM110.58,77.8c-2.38-1.9-4-4-6-4.59-4.81-1.38-12.74,2-14.32,6.29-.76,2.08-.58,6,.8,7.15,6.15,5.35,9.43-4.45,15.19-3.6C107.25,83.19,108.69,80.19,110.58,77.8Zm-3.53,96.91.18-.61c.77,0,1.54,0,2.3,0,3.73.12,6.66-1.09,6.64-5.29s-2.71-5.41-6.58-5.38c-2.22,0-4.48-1.24-6.65-1-2.51.22-6.25.76-7,2.34s.45,5.74,2.13,7C100.4,173.58,104,173.8,107.05,174.71Z"/></svg>