<svg id="Layer_19" data-name="Layer 19" xmlns="http://www.w3.org/2000/svg" viewBox="0 0 250 250"><title>zones</title><path d="M63.08,207.63l-10-6c48.61-47.88,101.43-89.87,154.27-132.53,4.17,7.76,3.58,16.47,2.72,25.06-.17,1.64-2.83,3.15-4.52,4.49-43.67,34.71-86.45,70.45-126.82,109Z"/><path d="M102.72,207.63c2.82-2.79,5.49-5.77,8.5-8.34Q157.3,160,203.48,120.8c1.9-1.61,4-3,7.1-5.32,0,9.5.22,17.62-.19,25.7-.09,1.67-2.38,3.44-4,4.78Q171.74,175.08,137,204.1a29.55,29.55,0,0,0-3,3.53Z"/><path d="M158,207.63c6.89-6,13.65-12.24,20.69-18.1,10.13-8.42,20.47-16.58,30.81-24.93,4.55,14.6-5.78,32.14-25.08,43Z"/><path d="M42.25,188.77c-4.57-7.65-5.91-15.64-5.36-23.89.13-2,2.13-4.18,3.81-5.65C68.42,135,96.32,111,124,86.78c15.63-13.71,30.9-27.83,46.44-41.65a7.35,7.35,0,0,1,5.19-1.89A37,37,0,0,1,197.8,54.65c-5.61,5.16-10.69,10.51-16.44,15q-70.29,54.89-135.21,116C45,186.71,43.74,187.59,42.25,188.77Z"/><path d="M148.9,44.39,36.77,139.67c0-8.5-.19-16.74.16-25,.07-1.58,2-3.33,3.47-4.55,19.44-16.34,39-32.55,58.41-48.88,5.5-4.63,11.11-9.2,16-14.44a12.22,12.22,0,0,1,10.38-4.34c7.71.26,15.44.07,23.16.07Z"/><path d="M37,90.69c-2-33.49,22.07-53,58.32-47.37Z"/></svg>