<svg id="Layer_23" data-name="Layer 23" xmlns="http://www.w3.org/2000/svg" viewBox="0 0 250 250"><title>auto-guide</title><path d="M85.55,206V190.88h20c.31,5.07.61,10.09.91,15.12Z"/><path d="M83.9,40.27c5.6,0,11.09.15,16.56-.06,3.52-.13,3.83,1.82,3.82,4.5,0,10.1-.15,20.2,0,30.3.35,21.48.85,42.95,1.3,64.42,0,1.07.23,2.13.34,3.13H211.21V162l-105.62,1.68V178.2h-21V164.34H70.25V144.16H83.9Z"/><path d="M118.09,75l8.39,2.5,9.79-10.49c-5.05-9.37-4.42-10.94,5.81-13.8l4.08,8.18c11.18.41,12-.14,14.84-10.44l12.67,3.22c-6.33,8.91-.43,13.91,5.08,19,9.46-4.37,9.46-4.37,14.68,7.93-7.75.89-9.71,5.58-8.06,12.57.59,2.5.35,2.56,9.51,5.64-.57,3.46-1.16,7-1.89,11.38-9.32-3.9-14.11,1.4-18.25,8.48l5,7.25-10.44,7.58c-1.63-3.63-3.11-6.9-4.56-10.12-12.45,1.16-12.45,1.16-15.05,10.65l-11.26-3.47,3.12-8.22-11.4-8.53L123,119.6c-2.11-3.92-4-7.46-5.57-10.33,2.93-3.15,6.42-5.29,7.22-8.19.9-3.25-.62-7.17-1.1-10.88C113.05,86.06,113.05,86.06,118.09,75Zm49,18.24c.19-7.76-4.19-12.27-12.06-12.42-7.46-.13-12.27,4.37-12.34,11.56-.08,7.48,5,13.79,11.17,13.89C162.61,106.44,166.89,102.24,167.1,93.28Z"/><path d="M36.25,163.87V144.68h20v19.19Z"/></svg>