<svg id="Layer_23" data-name="Layer 23" xmlns="http://www.w3.org/2000/svg" viewBox="0 0 250 250"><title>blank-puppet-basic</title><path d="M117.83,145.85c-9.59-4.32-14.78-11.86-16.2-23.91-3.17,7.71-5,14.17-8.33,19.74-3.52,5.89-4.33,10.9-2,17.64,2,5.9,1.69,12.72,1.82,19.15.05,2.39-1.55,4.8-2.56,7.66-5.87-3.77-9.77-8.09-11.21-14-1.78-7.41-5.44-14.81-1.42-22.62-5.43-11.84,2.74-21.1,6-31.29a13.72,13.72,0,0,1,1-2.06c4.51-8.78,9.42-9.65,16.09-3.72l12.83-10.72c-6.76-3.7-13.22-10.06-14.65-19a87.22,87.22,0,0,1,0-25.86c1.36-9.57,8.06-15.54,17.77-16.65a70.48,70.48,0,0,1,18.58.29c7.26,1.12,12,6,14.65,13,7.4,19,2.15,37.08-13.66,48.33l12.34,11a19.17,19.17,0,0,1,2.2-2c4.39-3.27,9.41-3.1,11.72,1.74,4.33,9,9.31,18.32,10.66,28,1.37,9.8-.42,20.36-2.58,30.19-1.24,5.62-6,10.47-9.39,16.07-6.61-7.38-6-23,.13-36.06-2.3-4.31-4.72-8.39-6.68-12.68s-3.45-8.73-5.85-14.92c-2.16,11.38-7.07,18.79-16.84,22.9,8.26,5.72,12.51,12.62,7.18,22.67,6.08,2,7.82,6.87,8.09,12.47.31,6.63.61,13.27.4,19.9-.13,4.2-2.14,8.82-6.65,8.44-2.79-.24-6.86-4.08-7.53-7-2.05-8.77-2.73-17.86-3.94-26.85h-9.15c-.77,7-1.13,14-2.45,20.81a27.3,27.3,0,0,1-4.83,10.73c-2.94,3.95-8.71,3.18-10-1.46-3.21-11.32-1.77-22.54,3-33.23.68-1.52,2.8-2.39,4.26-3.55C106.73,157.73,107.77,154.34,117.83,145.85Zm7.65-98.79c-7.53-.08-15,.9-18.31,8.69-4.21,10-4.54,20.47,1,30.26,7.78,13.69,25.11,13.91,33.58.65,4.25-6.65,4.48-14,3.74-21.47C144.19,52.07,138.64,47.1,125.48,47.06Zm-.43,63.21,0-.28c-3.2.18-6.48,0-9.56.7a7.86,7.86,0,0,0-4.73,3.45c-4,7.5-.61,18.72,6.64,23.18a14.93,14.93,0,0,0,17.5-1.26c5.7-4.64,7.85-12.87,5.18-20.21-2.53-7-8.38-5.88-13.87-5.58C125.81,110.29,125.43,110.27,125.05,110.27Zm0,40.86c-5.54.08-10.35,4.37-10.37,9.26,0,5.17,5,9.53,10.8,9.37,5.64-.16,10.14-4.42,10-9.49S130.53,151.06,125,151.13Zm44.39-11.24c-3.26-7.45-6.48-15-10-22.48-.4-.85-3.15-1.66-3.62-1.22-1,1-2.13,3.06-1.73,4.14,2.73,7.41,5.76,14.72,8.94,22,.48,1.1,2.25,1.63,3.42,2.42Zm-88.53-.24c1.25,1.94,1.76,3.52,2.82,4.11.6.32,2.72-.74,3.1-1.63q4.64-10.89,8.74-22c.29-.8-.76-2.91-1.5-3.08-1.19-.28-3.47.17-3.85,1C86.92,125.16,84,132.45,80.9,139.65Zm27.25,63.29c4.69-4.18,8.27-19.91,6.11-24.46a3.55,3.55,0,0,0-2.4-1.92,3.33,3.33,0,0,0-2.46,1.9C107.34,186.26,105.62,194.12,108.15,202.94Zm32.32-1.22c2.6-3.91,3.21-19.36.52-22.81-.58-.75-3.7-.83-4.15-.17C134.15,182.6,136.77,197.81,140.47,201.72ZM161,176.18l3,.65c1.64-6.18,3.41-12.33,4.82-18.56.29-1.31-.77-2.93-1.21-4.4-1.19,1.18-3.14,2.21-3.43,3.59C162.8,163.64,162,169.93,161,176.18ZM87.58,175.1c-.5-6.84.82-14.21-4.91-19.69C81.64,162.63,82.68,169.32,87.58,175.1Z"/></svg>