<svg id="Layer_23" data-name="Layer 23" xmlns="http://www.w3.org/2000/svg" viewBox="0 0 250 250"><title>blank-puppet-deluxe</title><path d="M106.5,124.86c-1.52,5.59-2.89,11.24-4.62,16.77-1.08,3.42-3.17,7.23-7.22,5.51-2.16-.91-4.42-5.11-4.15-7.55a144,144,0,0,1,4.6-22.66c.65-2.34,3.28-5.42,5.38-5.75,2.5-.39,5.4,1.82,7.94,2.83l12.83-6.64c-2.13-1.5-5.44-3.33-8.15-5.82-12.07-11.09-15-36.4-5.45-49.8,7.6-10.72,19.21-9.48,30.12-8.39,9.31.93,16.19,6.38,17.82,15.9,1.33,7.73,2.11,15.86,1.21,23.59-1.4,11.92-8.48,20.45-20,25.42,6.58.08,11.93,1.94,14.08,7.22,2.82-1.65,5.52-4.49,8.08-4.36,2.14.11,5.19,3.35,5.93,5.79a120.57,120.57,0,0,1,4.76,22c.29,2.64-2,7.08-4.25,8.12-4,1.84-6.12-2.23-7.19-5.53-1.88-5.78-3.26-11.71-4.72-17.1-1.28,4.88-1.72,10.64-4.29,15.21s-7.23,7.75-11,11.56c7.66,7.48,8.43,9.72,5.82,19.37,6,.8,7.36,5.36,7.59,10.39a217.57,217.57,0,0,1,.28,22.55c-.12,2.16-3,4.17-4.54,6.24-1.77-1.69-4.64-3.13-5.11-5.13A198.81,198.81,0,0,1,139,184.23a70.58,70.58,0,0,1-.06-8.49c-3,.68-5.75,1.7-8.52,1.81s-5.57-.67-8-1c-1.26,8.14-2,16.27-4,24.08-.87,3.39-4.56,8.76-6.66,8.62-5.54-.36-4.87-6.15-4.66-10.23a132.42,132.42,0,0,1,2.41-20.57c.64-3,3.54-5.58,6.07-9.32-3-6.78-.53-13.33,8-18.47C112.11,145.39,107.19,136.52,106.5,124.86Z"/><path d="M164.9,178c-3-8.83-4.24-17.39-2.22-26.17.33-1.45,2.61-2.94,4.27-3.4,1-.29,3,1,3.77,2.2C174.39,156.27,171.17,172.49,164.9,178Z"/><path d="M95.07,179c-8.19-9-7.57-18.34-6.18-27.65.19-1.23,2.58-3.05,3.84-3,1.6.11,4.06,1.61,4.45,3C99.76,160.39,97.78,169.08,95.07,179Z"/></svg>