<svg id="Layer_23" data-name="Layer 23" xmlns="http://www.w3.org/2000/svg" viewBox="0 0 250 250"><title>checkpoint</title><path d="M119.24,209.73C112.1,196.64,105,183.51,97.8,170.46c-7.33-13.24-15.4-26.11-22-39.71a118.51,118.51,0,0,1-9.16-27.82C63.3,86.28,69.07,72.17,81,60.15,97,43.9,116.4,37.6,138.43,42.43c33.57,7.34,53.36,45.82,43.17,80.76-5.95,20.41-16.4,38.57-26,57.2-5,9.73-9.84,19.56-14.74,29.34Zm3.58-71.61c22.93-.08,39.74-15.73,39.8-36.83,0-19.82-19.9-41.84-36-40.76-19.86,1.32-40.7,19.38-40.49,37.4C86.33,117.42,105.3,138.19,122.82,138.12Z"/><path d="M117.17,122.37,97.26,103.52l9.07-7.75,9.93,9,24.85-25.68,8.87,10Z"/></svg>