<svg id="Layer_23" data-name="Layer 23" xmlns="http://www.w3.org/2000/svg" viewBox="0 0 250 250"><title>doorway</title><path d="M143.6,209.73,69.3,184.91C66.58,184,63.88,183.05,61,182V39.73L188.5,42.15V183.43H160.94v26.3ZM79.24,65.79A12.73,12.73,0,0,0,78.66,68c-.13,32.6-.17,65.2-.44,97.81,0,4,2.26,4.66,5.1,5.56q26.5,8.38,53,16.85c2.27.72,4.59,1.31,6.72,1.91.44-.78.64-1,.64-1.14.05-33.21.11-66.42,0-99.62a4.58,4.58,0,0,0-2.47-3.45C120.72,79.11,100.18,72.54,79.24,65.79Z"/><path d="M120.34,145.37a12.17,12.17,0,0,1-12.08-12.23c0-6.75,6-12.73,12.63-12.55A12.78,12.78,0,0,1,133,133.69,12.18,12.18,0,0,1,120.34,145.37Z"/></svg>