<svg id="Layer_23" data-name="Layer 23" xmlns="http://www.w3.org/2000/svg" viewBox="0 0 250 250"><title>global-settings</title><path d="M82.13,195.37a41.39,41.39,0,0,0-4-2c-19.08-7.56-31.09-21.46-36.79-41-6-20.44-6.37-40.93,0-61.34,1-3.3,2.55-6.88,4.92-9.25,13.78-13.83,29.16-24.63,49.49-26.9,13.56-1.51,26.69-1,39.46,3.83,4.25,1.6,8.2,4,12.56,6.13-1.54,1.86-3.16,3-3.51,4.38-2.71,11-13.77,19.43-9.14,32.48-6.1-1-6.71-.39-7.55,5.6-.28,2-.91,4-1.52,6.55-1.43-1-2.38-1.33-2.79-2-3.86-6.3-7.64-12.39-7.53-20.48,0-3.31-3.79-6.68-6.22-10.6l2.36-2.62-6-4.05a1.73,1.73,0,0,1-.39-.25c-8.56-10.37-17.4-3.46-26.22-.74-.28,4.5.47,7.42,5.77,7.8,4.14.3,4.81,3,4.21,7.1-.3,2,1.39,4.5,2.65,6.47.81,1.26,3.7,2.49,3.56,2.84a13.94,13.94,0,0,1-3.7,5.42c-1.26,1-3.4.86-5.44,1.29-3.16,5.76,4.94,6.81,5,11.4-4.21-1.49-8.66-2.68-12.75-4.62-3.57-1.69-5.65-1.27-6.16,2.68-.34,2.66.2,5.44.39,9l-11.63-1a38.62,38.62,0,0,0,.71-5.57,10.71,10.71,0,0,0-1.07-5c-.31-.54-2.83-.5-3.73.14s-1.42,2.35-1.77,3.67,0,2.82-.46,4.09c-1.79,5.31-1.06,9.54,4.15,12.68a7.68,7.68,0,0,1,3.26,4.76c.68,4.2,3.27,6.25,6.65,8.18,1.65.94,3.66,2.91,3.8,4.56.59,6.74.28,13.55.82,20.3.15,2,1.59,4.94,3.15,5.51a266.44,266.44,0,0,0,29.13,9.3c3.6.87,8.38-.34,11.79-2.17,6.08-3.26,11.72-.33,17.41.14s9.63-1.08,12.91-5.62c1.59-2.2,4.44-3.56,5.77-5.85a143.91,143.91,0,0,0,6.94-14.43c1.28-2.91,2.17-6,3.25-9,3.16.58,4.38,2.17,3.28,4.92-1.8,4.51-.43,8.07,3.12,10.93,2.59,2.09,2.12,4.13.79,6.78a64.93,64.93,0,0,1-22.48,25.65Z"/><path d="M142.17,101c-.37-3.08-.71-5.92-1-8.36,2.91-3.08,8.31,1.45,9.81-5.09C152,83,152.23,80,147.37,77.6l6.93-8.46c3.71,7.72,9,5.42,14.61,3V65.1h9.81c-.85,5.9,1.14,10.26,8,11.44l4.95-6,7.07,6.5c-8,4.31-3.35,9.86-2.23,15.35l6.88-.44v9.71h-8l-3.41,9.86,5.25,4.31-6.6,7-4.3-4.67-9.64,4.19v7.19l-9,.45c2.51-8.52-3.91-9.69-9.45-11.93l-5,5.9-6.7-7.2c8.61-4.38,2.65-10.26,2.41-15.84Zm40.14-4.83c-.06-4.83-4.94-8.9-10.52-8.77-4.73.11-9,5-9,10.32,0,4.85,4.4,9.43,9,9.29A10.48,10.48,0,0,0,182.31,96.14Z"/><path d="M90,172c2.3-1.75,4.52-3.62,6.93-5.21,2.85-1.87,4-3.65,4-7.68,0-3.18,3.69-7.8,6.88-9.19,4.32-1.88,4.68-3.91,3.85-7.65-.68-3-.51-5.91,2.58-6.27.32-2.7-.15-6,1-6.79,1.54-1,4.43-.16,6.68.23a80.6,80.6,0,0,1,9.2,2.11,25.78,25.78,0,0,1,5.62,2.46c2,1.13,3.59,2.82,5.58,3.86,5.77,3,8,7.23,5.84,13.22a167.16,167.16,0,0,1-7.06,16c-1.56,3.23-4,4.29-6.86,1.3-2.4-2.54-5.45-2.33-8.46-3.16-9.8-2.7-17.38.19-25,6-2.55,1.95-6.81,1.66-10.28,2.39Z"/><path d="M185.24,127.24c2.6,1.54,4.32,3.39,5.83,3.23,1.94-.21,3.7-2,5.54-3.16l-.35-1.4,5.07,1.33-1.07.61,3.27,9.14,5.14-2.7,2.59,5.26-1.3-.31c-1.05,2.6-2.11,5.21-3.31,8.14l5.46,1.78c-.28,1.77-.53,3.38-.6,3.86l-9.32,4.11c1.08,2.27,1.71,3.57,2.49,5.21l-3.47,2.36c-2.59-1.46-4.46-3.35-6.25-3.27s-3.57,2.07-5.35,3.23l.42,1.17-4.64-1.38c2.78-5-1.89-5.77-4-8.18l-3.88,2.23-2.4-4.49c4.9-5.11,4.49-8.47-1.46-11.57.42-1.49.87-3,1.31-4.59l.8,1,8.57-4.55-2.21-5Zm13.51,19.31c.13-4.39-1.76-6.47-5.84-6.55-3.92-.08-5.57,2.21-5.81,5.7s2.51,6.61,5.6,6.69C196.67,152.5,198.64,150.6,198.75,146.55Z"/><path d="M92.29,150c-7.84,2.07-7.84,2.07-8.05,5.73-5.51-1.47-6.13-2.8-4.37-7.62.45-1.25-.26-3.06-.77-4.49-1.13-3.14-2.46-6.2-3.87-9.7h10C87.38,138.85,89.8,144.35,92.29,150Z"/></svg>