<svg id="Layer_23" data-name="Layer 23" xmlns="http://www.w3.org/2000/svg" viewBox="0 0 250 250"><title>prize-bubble</title><path d="M97.66,209.51c-29.18-14.08-45.75-38.83-57.06-67.87-4.29-11-3-22.38.48-33.29A109.09,109.09,0,0,1,82.36,51.68C101,38.36,121.5,36.74,142.9,44c37.85,12.93,62,38.36,68.89,78.19,6.05,34.77-17.68,74-50.85,86a24.79,24.79,0,0,0-2.59,1.27Zm13.89-61.94h-.23c0,9.51-.12,19,.1,28.54,0,1.88.84,4.54,2.21,5.45,7,4.67,14.23,9,22.31,1.82a9.09,9.09,0,0,1,3.16-1.61c3.31-1.13,4.31-3.32,4.24-6.8-.28-15.65-1.2-31.37-.12-46.95.74-10.63-2.76-16.51-12.32-20.19-3.25-1.24-5.65-2.17-8.6.14a32,32,0,0,1-6.1,3.68c-3.75,1.75-4.86,4.52-4.73,8.57C111.74,129.33,111.55,138.45,111.55,147.57ZM92,171.56c.14-2.89.28-4.82.33-6.74.34-14.83,1.2-29.66.8-44.47-.26-9.78,2.32-16.75,11.94-20.26,1.7-.62,3.13-2,4.81-3.06C94.2,85.91,94.2,85.91,78.61,94.84c-1.38.79-3.08,1.27-4.06,2.39-1.42,1.62-3.26,3.66-3.31,5.56q-.6,26.1-.48,52.2a7.93,7.93,0,0,0,3,5.66C79.28,164.38,85.2,167.57,92,171.56Zm69.06-3,2.28.89c4.69-2.43,9.29-5.05,14.1-7.22,3.58-1.62,4.84-4,4.81-7.88-.16-16.24-.32-32.48.06-48.71.14-5.78-1.73-9.14-7-11.37-4.72-2-9-4.92-13.71-7.05a6.8,6.8,0,0,0-5.31,0c-4.68,2.52-9.08,5.55-14.18,8.75,5,3,9.46,6.06,14.19,8.42,3.76,1.87,4.88,4.42,4.84,8.46C161,131.4,161.06,150,161.06,168.58ZM142.63,77.69C126.6,67,123.11,67,110.31,77.3c4.85,2.87,9.52,5.78,14.36,8.38a5.24,5.24,0,0,0,4.24.16C133.39,83.45,137.66,80.69,142.63,77.69Z"/></svg>