<svg id="Layer_23" data-name="Layer 23" xmlns="http://www.w3.org/2000/svg" viewBox="0 0 250 250"><title>puppet-interface</title><path d="M118,158.24l-5.24,8.31-8.62-6.36,4.12-6.24c-5.39-3.13-7.45-12.57-17-6.87-1.18-3.72-2.19-6.87-3.31-10.37l8.51-2.06c1.13-10.6,1.13-10.6-5.87-15.88,3.82-9.24,4.31-9.43,12.19-4.49,1.41-1.15,2.91-2.43,4.47-3.61s3.2-2.3,4.92-3.52l-2.31-7.09,10.45-2.61c0,9.63,7.08,8.92,13.45,9.83,1.4-2.56,2.74-5,4.4-8l9.26,5.07c-1.54,2.69-2.8,4.89-4.27,7.44,4.82,3.38,7,12.19,16.14,6.26,1,3.95,1.75,7,2.63,10.51l-8.79,1.83c-2.4,6.66-.21,11.36,7.39,13.85l-5.82,10.11-6.91-3.94c-8.41,5.47-8.43,5.52-6.14,15.67-2.74.52-5.45,1.18-8.19,1.48-1,.11-3.06-.59-3.07-1C130.27,157.7,122.42,161,118,158.24Zm7.82-15a10.37,10.37,0,0,0,10.46-10.74c0-6.64-5.09-10.73-13.28-10.7-3.93,0-9.27,5.86-9.36,10.24C113.53,138.6,118.59,143.26,125.84,143.2Z"/><path d="M146.59,61.65c.07,19.14-14.13,31.15-28.93,25.95C108.94,84.54,103.72,78,102.43,69S101,50.51,108.88,44.48c8.53-6.52,18.7-5.59,28.15-1.62C146,46.62,146.22,55.19,146.59,61.65Z"/><path d="M168.7,159.86l3.6-27.44c-6-6.79-8.24-17-11.05-26.95-.4-1.42,1.76-4.46,3.45-5.28,1.17-.58,4.66.9,5.24,2.26,3.07,7.15,5.52,14.57,8.25,21.88,1.51,4-2.4,7.76.44,12.57,1.83,3.08-.31,8.94-1.58,13.29-1.1,3.77-3.47,7.17-5.28,10.73Z"/><path d="M78.55,160.4c-8.16-7.12-10.93-22.26-5.91-26.59-.28-4.17-1.42-7.87-.55-11a112.5,112.5,0,0,1,7.33-19c.88-1.81,4.18-2.44,6.38-3.62.92,2.34,3.14,5.11,2.53,6.93-3.08,9.18-4.54,19.24-11.28,25.64,1.24,9.4,2.41,18.32,3.58,27.23Z"/><path d="M104.87,197.62c.73-4.47,1.22-9.91,2.68-15.08.53-1.87,3.35-3.1,5.13-4.62,1.48,1.85,4.34,3.8,4.21,5.52a159.49,159.49,0,0,1-3.4,21.81c-.4,1.76-3.13,3-4.79,4.48-1.14-1.93-2.58-3.75-3.33-5.82C104.78,202.29,105,200.35,104.87,197.62Z"/><path d="M143.51,197a83.06,83.06,0,0,1-1.46,9.46c-.33,1.28-1.83,2.95-3,3.13s-3.55-1.15-3.7-2.08c-1.22-7.81-2.22-15.68-2.79-23.56-.07-1,2.89-3.16,4.22-3,1.73.2,4.2,1.93,4.67,3.5C142.62,188.45,142.87,192.72,143.51,197Z"/></svg>