<svg id="Layer_23" data-name="Layer 23" xmlns="http://www.w3.org/2000/svg" viewBox="0 0 250 250"><title>score</title><path d="M94.83,202.76c-8.39-20.49-5.22-17-25.7-18-4.66-.23-9.32-.57-15.06-.93.75-6.26.81-12.23,2.3-17.82,2.34-8.78.52-15.55-6.75-21.12-4.56-3.49-8.68-7.55-13.16-11.51C43,126,48.25,119.75,53.77,113.76c2.34-2.54,2.6-4.88,1.34-8A108.25,108.25,0,0,1,50,90.34c-1.47-6.4.17-8.65,6.49-10C62.63,79,68.8,77.75,75,76.9c5.07-.69,8-3.11,9.71-8,2-5.57,4.85-10.82,7.24-16.25,2.09-4.73,5.73-5.43,9.88-3.5a164.56,164.56,0,0,1,15.71,8.3c3.23,1.95,6.07,2.18,9.3.4,5.66-3.12,11.47-6,17-9.27,4.11-2.44,6.83-1.56,8.82,2.53,2.38,4.87,4.93,9.66,7,14.64a8.91,8.91,0,0,0,7.31,5.8c6.85,1.24,13.64,2.86,20.5,4.14,3.84.71,5.35,2.78,4.75,6.56-1,6.38-1.81,12.81-3.08,19.13-.7,3.48.35,5.39,3.27,7.29a162,162,0,0,1,16.09,11.67c5.18,4.35,5.56,8,1.12,13.06a141,141,0,0,1-14.74,14.06c-2.29,1.94-3.15,3.59-2.69,6.57,1,6.73,1.41,13.56,2.48,20.28.73,4.55-1.31,6.44-5.31,7.21-5.82,1.11-11.61,2.47-17.48,3.27-3.72.51-5.95,2.16-7.36,5.6-1.71,4.2-3.79,8.25-5.71,12.36ZM139.76,130c1.93,6.1,2.87,12.13,5.64,17.16,5.17,9.39,21.53,8.84,26.19-.87a40.57,40.57,0,0,0,1.95-30.66c-2-6.26-6.9-9.71-13.33-10.24-6.14-.5-11.76,1.57-14.5,7.37C143.16,118.12,141.75,124.05,139.76,130ZM101,131.54c1,4.93,1.47,9.32,2.92,13.36,2.23,6.22,7.36,9.29,13.76,9.42,5.75.13,11.47-1.36,14.2-7,5.42-11.24,6.18-22.77.14-34.15-2.81-5.29-7-8.74-13.32-8.37-6.61.39-11.21,4.13-13.38,10.09C103.29,120.35,102.3,126.22,101,131.54Zm-6-25.33c-3.19,0-5.77-.72-7.6.14-4.26,2-8.6,4.36-11.91,7.59-.83.81,2.12,5.5,3.37,8.38.11.26.57.35,1.07.64L85,120.64V153.1c3.87-1.26,9.5,2.78,9.79-3.47C95.4,135.4,95,121.13,95,106.21Z"/><path d="M152.25,130.26c.79-4.15,1.15-7.63,2.21-10.9.43-1.33,2.36-3,3.6-3,1.56,0,3.93,1.23,4.52,2.56a26,26,0,0,1-.1,21.75,4,4,0,0,1-7.38,0C153.58,137.24,153.07,133.39,152.25,130.26Z"/><path d="M126.13,129c-1,4.14-1.83,8.62-3.43,12.8a6,6,0,0,1-4.76,3c-1.5-.09-3.68-2.11-4.13-3.69-2.12-7.53-2.69-15.23.78-22.53.84-1.77,3-3.75,4.74-4,1.28-.16,3.55,2.15,4.22,3.82C124.81,121.62,125.24,125.13,126.13,129Z"/></svg>