<svg id="Layer_23" data-name="Layer 23" xmlns="http://www.w3.org/2000/svg" viewBox="0 0 250 250"><title>score-modifier</title><path d="M111.69,208.47c-4-12.06-4-12.07-16.64-12.65-4.57-.21-9.14-.4-13.71-.63a10.26,10.26,0,0,1-2.13-1c.69-5,1.07-10.53,2.27-15.83s.41-9.67-3.94-13.3-8.33-7.41-12.75-11.38c4.13-4.7,7.36-8.42,10.66-12.09s7.54-7,3.24-13.77c9.35.44,15.33-2.76,15-11.48,4.21,1,8.78,3.58,10.77,2.26,4.59-3,8.29-7.72,11.54-12.31.91-1.28-1-4.58-1.67-6.93-.41-1.38-1-2.72-1.49-4.08a16.7,16.7,0,0,0,3.66-.7c3.16-1.39,6.24-3,9.34-4.47l-.68-1.48c.35,0,.85-.16,1,0,7.4,6.83,14,3,20.93-1.15C157.85,81.09,158.63,81.09,163,93c2.87,7.72,7.64,10.58,15.26,11.57,15.21,2,15.17,2.23,12.62,16.89-1.75,10-1.75,10,6.8,15.45,14.12,9,14.86,13.49,1.9,23.76-6.4,5.07-7.57,10-6.51,17.6,2.19,15.71,4.12,14.19-12.26,16.54-9.15,1.32-12.71,5.77-14.18,13.71ZM179,149.67c-.43-3.2-.56-5.8-1.15-8.28-1.44-6-5.08-9.8-11.38-10.51-6.53-.73-10.81,1.78-13.62,8.21a28.9,28.9,0,0,0-.18,23.69c2.36,5.55,6.59,8.07,12.78,7.49,5.82-.55,9.68-3.44,11.25-9C177.8,157.35,178.3,153.2,179,149.67Zm-61.56,2.15c1.07,4.7,1.55,8.47,2.81,12a9.92,9.92,0,0,0,10.89,6.69c4.12-.57,9.7-2.31,11.55-5.38,5.39-9,5.42-19.05.14-28.42-4.94-8.75-15.85-8.8-20.61.12C119.66,141.53,118.83,147.18,117.41,151.82Zm-14.88-6.32,1.8-1.09c0,6.73,0,13.45,0,20.17,0,2.89-.28,5.61,4.09,5.51,3.89-.09,4.58-2.11,4.53-5.35-.15-9.14-.17-18.28-.23-27.41,0-6.32-2.56-8.07-8.45-5.62A13,13,0,0,0,99.41,135c-1.27,1.52-3,4.22-2.43,5.38C98,142.51,100.59,143.85,102.53,145.5Z"/><path d="M47.65,54.06l6.82-8.24c8.67,7.17,8.7,7.18,18.39,3V40c2.1-.11,4-.23,5.94-.28s3.55,0,5.73,0c.49,3.59,0,7.4,1.64,9.91s5.17,3.35,8.29,5.19L101,47l8.32,7.39-6.19,7.33c1.27,3.9,2.5,7.63,3.84,11.73h8.54V85.09h-9.2c-5.43,10.4-5.43,10.5,1.35,17.94-2.44,2.65-4.93,5.35-7.79,8.48l-5.48-5.77-11.86,5.15v8.78H72c-1.39-9.79-1.39-9.79-12.4-14l-6.06,7.11-8.19-8.86c10.47-5.32,3.22-12.54,3-19.47H40.21L38.45,72.27c9,2.51,13-1.65,13.49-9.15C52.08,60.63,49.6,58,47.65,54.06ZM77.54,67.52c-6.19-.32-11.66,5.08-12.23,12.07-.48,5.93,4.74,12,10.61,12.24,7.13.36,13.06-5.16,13.58-12.65C89.89,73.46,84.16,67.87,77.54,67.52Z"/><path d="M160.14,151.88c.14-2.27.1-3.08.25-3.85.62-3.3-.25-8.33,4.57-8,1.78.13,3.89,5.21,4.54,8.31.62,2.92-.1,6.32-.95,9.29-.44,1.52-2.48,2.58-3.79,3.85-1.29-1.35-3.11-2.49-3.74-4.09A19.75,19.75,0,0,1,160.14,151.88Z"/><path d="M126.5,150.59c.76-2.83,1.33-6.61,2.81-10,1.59-3.65,4.47-3.43,6.14-.08a21.84,21.84,0,0,1-.11,20.11c-.59,1.21-2.83,2.23-4.29,2.19-1.05,0-2.58-1.78-3-3.05C127.28,157.13,127.09,154.31,126.5,150.59Z"/></svg>