<svg id="Layer_22" data-name="Layer 22" xmlns="http://www.w3.org/2000/svg" viewBox="0 0 250 250"><title>ball-joint</title><path d="M109.87,209.73c-8.25-7.8-14-16.51-11.64-28.73s10.1-19.09,21.4-23a11.41,11.41,0,0,0,5.92-4.94c4.79-9.33,9.06-18.93,13.6-28.4,1.4-2.93,1.44-5.18-.7-8.15a46.59,46.59,0,0,1-6.4-13c-1.11-3.51-2.7-5.49-6.19-6.17-11.57-2.25-23.11-4.7-34.73-6.66-1.72-.29-4,1.31-5.69,2.57-9.94,7.64-24.56,8.5-34.83,1.87a30,30,0,0,1-13-32.27c3-12.16,13.44-21,27.06-22.9,10.11-1.43,22.5,5.14,27.75,15.6,1.84,3.67,4.4,4.6,7.72,5.28,11.55,2.37,23.13,4.59,34.61,7.25,3.14.73,4.92.25,7.33-1.94,11.05-10,23.33-15.87,39-11.84,15,3.85,30.49,27.92,27.32,42.63-4.63,21.48-13,31.36-34.77,35.71-3.38.68-5.15,2-6.44,5.11-4.5,10.72-9.3,21.31-13.8,32a6.62,6.62,0,0,0,0,4.64c5,11.83,2.19,24.38-7.61,32.84a19.56,19.56,0,0,0-2.1,2.5ZM171.43,71.26c-11.88,0-21.87,8.38-21.8,18.21.1,15.88,8.42,26,21.22,25.77,9.91-.16,21.14-11.49,21.06-21.25C191.79,80.61,183.33,71.23,171.43,71.26Z"/></svg>