<svg id="Layer_22" data-name="Layer 22" xmlns="http://www.w3.org/2000/svg" viewBox="0 0 250 250"><title>bolt</title><path d="M108.28,209.73c-8.75-5.16-17.55-10.23-26.22-15.51-9.75-5.94-19.37-12.1-29.09-18.1-4-2.48-6.18-5.92-6.18-10.68q0-38.08,0-76.18A11.12,11.12,0,0,1,52.63,79c22.14-12.8,44.2-25.75,66.57-38.12,2.87-1.59,8.15-1.52,11,.08Q164,59.75,197.14,79.68a12.63,12.63,0,0,1,5.24,9.06c.43,25.78.25,51.57.28,77.35,0,4.92-2.77,8-6.68,10.39q-25.08,15-50.19,30c-1.86,1.11-3.72,2.2-5.58,3.29ZM122.59,64c-3.13.29-6.35.19-9.37.92-45.86,11.09-68,64.66-35,103.37,31.51,37,82.64,23.54,100-5.2,13.14-21.69,11.6-43.59.23-64.66C166.74,76.75,146.71,66.63,122.59,64Z"/><path d="M120.06,184.46c-29,1.25-58.17-35.9-49.22-71,5.7-22.33,26.16-40.23,49-42.65a28.55,28.55,0,0,1,9.93.55c20.35,5.24,37.25,15.32,45.39,35.79,8,20.06,8.1,39.76-6.28,57.43C158,178,143.25,183.59,120.06,184.46Zm6.61-12.5c4.07-.9,11.46-1.61,18.16-4.15,19.92-7.53,29.88-34.14,20.71-54.69C158.79,98,147.12,88.33,131,84.33c-24.93-6.17-54.41,21-50.56,46.41a11.88,11.88,0,0,0,.5,2.31c4.48,12.18,10.29,23.48,21.26,31.21C108.58,168.76,115.51,171.87,126.67,172Z"/></svg>