<svg id="Layer_22" data-name="Layer 22" xmlns="http://www.w3.org/2000/svg" viewBox="0 0 250 250"><title>elastic</title><path d="M47.51,209.73c-13.36-15.34-14.48-33-2.33-46.18,3.39-3.68,8-6.49,12.55-8.79,14.34-7.3,29-14,43.35-21.23,16.66-8.38,28.44-21.57,36.05-38.42,5.32-11.77,10-23.83,15.18-35.67,6-13.83,19.13-21.18,34.22-19.46,13.39,1.53,24.92,12.34,27.73,26A31.37,31.37,0,0,1,198.89,100a135.2,135.2,0,0,1-21.28,9.23c-32.52,11.13-54.91,32.63-67.47,64.58-2.77,7-5.84,14-9.26,20.7-2.67,5.26-6.1,10.14-9.19,15.19ZM182.37,84.08a12,12,0,0,0,11.49-11.41c.07-6.38-5.31-12-11.53-12a12.1,12.1,0,0,0-11.81,11.73A12,12,0,0,0,182.37,84.08ZM69.68,173.71a11.44,11.44,0,1,0-.46,22.88,11.44,11.44,0,1,0,.46-22.88Z"/></svg>