<svg id="Layer_22" data-name="Layer 22" xmlns="http://www.w3.org/2000/svg" viewBox="0 0 250 250"><title>motor-bolt</title><path d="M102.36,209.73c-12.54-7.46-25.3-14.57-37.55-22.47C43.23,173.37,46,178.47,45,153.2c-.71-19.81.34-39.68.48-59.53,0-6.57,2.39-11.49,8.28-14.84Q86.16,60.38,118.38,41.7a12.79,12.79,0,0,1,13.67,0q32.79,18.92,65.59,37.78c4.81,2.77,7,6.85,7,12.36q-.06,37.86,0,75.73c0,5.31-2.33,9.14-6.83,11.85Q174.88,193.23,152,207.1c-1.34.81-2.6,1.75-3.9,2.63ZM126.42,194c35.26,0,62.41-26.4,62.33-60.39-.1-43-36.54-68.16-65.51-68.37C90.32,65,61.57,95.7,61.56,130.32,61.55,161.11,90.78,195.45,126.42,194Z"/><path d="M124.88,187.38c-23,.08-39.69-13-50.31-33.76-10.26-20.09-8.26-40.05,5.65-58.18,10.14-13.21,23-22.34,40.18-23.59a34.67,34.67,0,0,1,11.91.8c35.87,10.44,55.26,38.28,47.7,75.92-4,20.08-25.88,36.93-46.86,38.35C131,187.07,128.74,187.17,124.88,187.38ZM121.74,84.26c-21.59-1.55-41.92,27.55-42,44.7-.08,20.39,23.86,46.06,43.84,45.75,28-.43,45-13.7,46.68-43.76C171.54,107.75,146.81,84.61,121.74,84.26Z"/><path d="M97.59,128.49H92c-2.31-13.58,10.82-29.78,25.76-32,10.19-1.5,19.45.57,27.81,6.84,1.77,1.33,4.43,1.48,7.66,2.48v14.46l-14.59-4.12,3.87-5.11C126.43,95.1,104.4,103.7,97.59,128.49Z"/><path d="M152.32,130.41h5.87c2.2,14.51-11.83,30.9-27.45,32.41a36.42,36.42,0,0,1-25.05-6.43c-2-1.4-4.77-1.75-8.38-3l-.83-14.33,15.27,3.86-3.87,5.44c7.22,6.89,15.91,9.09,25.28,6.51C145.11,151.61,151.09,142.83,152.32,130.41Z"/></svg>