<svg id="Layer_22" data-name="Layer 22" xmlns="http://www.w3.org/2000/svg" viewBox="0 0 250 250"><title>piston</title><path d="M59.53,209c-1.48-1-2.93-2-4.45-3-16.68-10.31-20.46-32.57-7.26-47,9.61-10.48,20.24-20,30.83-30.39l8.4,7.79,12.37-15.81,5.44,4.77L125.27,105l-4.7-5.67L135,85.87l-7.29-7.66C139.47,67,150.47,55,163.08,44.94c11.22-8.9,28.44-5.78,38.4,4.72a30.62,30.62,0,0,1,2.85,39.26,58.52,58.52,0,0,1-6,6.87c-8.71,8.79-17.5,17.51-26.43,26.43l-8.43-7.91-13.37,14.87-5.7-5L124,144.56l5.37,6.05c-5,4.14-9.88,8.29-15.06,12.63l8.55,9.77L81.52,209ZM190.27,71.25c.08-5.71-5.11-11.14-10.73-11.22C173,59.94,168,64.9,167.92,71.62a11,11,0,0,0,10.84,10.91C184.67,82.54,190.18,77.14,190.27,71.25Zm-108,107.83a11.16,11.16,0,0,0-10.75-11,11.57,11.57,0,0,0-11.6,11.59c.08,5.58,5.49,10.86,11.08,10.79A11.65,11.65,0,0,0,82.24,179.08Z"/></svg>