<svg id="Layer_22" data-name="Layer 22" xmlns="http://www.w3.org/2000/svg" viewBox="0 0 250 250"><title>slider</title><path d="M64.25,209.73c-5.79-3-12.39-5-17.21-9.18-11.07-9.5-12.66-26.78-4.67-39,8.54-13,24.6-18.11,38.43-11.81,3,1.37,4.63,1.21,7-1.19,6.9-7.14,14.14-14,22.36-22L95.78,115.21l15.88-14.9,10.44,13.75C131.44,104.72,139.38,97,147,88.92c1-1.08,1.08-4,.46-5.55-9.16-23.74,8.69-46.62,33.93-43.32,15.87,2.08,28,18.77,25.52,35-2.68,17.38-18.95,30-35.18,26.42-5.92-1.3-9.57-.19-13.53,4.25-6.45,7.23-13.64,13.82-21.23,21.39l14.16,12.53L135.6,154.06l-10.74-13.95C115.19,149.56,107,157.48,99,165.6c-.79.8-.65,2.9-.39,4.3,3.55,19.8-4.56,33-24.06,39.13-.34.11-.6.46-.9.7Zm15.37-31.11a11,11,0,0,0-11-11.19,10.79,10.79,0,0,0-11.08,11,11.26,11.26,0,0,0,11.24,11.11A11.49,11.49,0,0,0,79.62,178.62ZM176.39,59.85A10.79,10.79,0,0,0,165,70.57C165,76.66,170.11,82,176,82a11.59,11.59,0,0,0,11.1-10.75A10.7,10.7,0,0,0,176.39,59.85Z"/><path d="M121.57,209.73V168h16.78v12.65l39.94-39.92H163.8V123.13h19c6.62,0,13.25,0,19.88,0,8.68,0,9.14,0,9.4,8.48.4,13.2.1,26.43.1,40H195.37V157.5c-13.31,13.29-26.8,26.78-40,39.92h12.94v12.31Z"/></svg>