<svg id="Layer_22" data-name="Layer 22" xmlns="http://www.w3.org/2000/svg" viewBox="0 0 250 250"><title>string</title><path d="M50,207.63c-6.6-7.21-11.77-15-11.52-25.41.37-15.69,11.63-28.92,27.21-30.78,3.65-.44,4.43-2.09,5.79-4.9,3.07-6.34,6.28-12.79,10.56-18.31,8.15-10.51,19.24-13.18,31.93-9.67,6.82,1.88,13.6,4,20.5,5.53,9,2,15.32-1.09,19.47-9.25a75,75,0,0,0,3.18-8c1.88-5,1.56-9-2.79-13.32-8.76-8.73-9.42-24.47-2.58-35.93A31.37,31.37,0,0,1,186,43.17c12.5,2.77,22.65,14.31,23.91,27.18,1.72,17.6-9.41,31.86-27,35-1.9.34-4,2.27-5.07,4-4,6.28-6.84,13.39-11.45,19.12-8.46,10.49-20,13.66-33.1,10.71-7.83-1.77-15.58-3.93-23.39-5.81-6-1.46-10.68.7-13.54,6A65.1,65.1,0,0,0,91.51,151c-1.27,4.16-.64,7.77,2.64,11.54,10.34,11.87,9.55,29.87-1.15,41.55-1,1.09-1.81,2.34-2.71,3.51ZM189.63,73.78a11.15,11.15,0,0,0-10.82-11.09A11.5,11.5,0,0,0,167.42,74a11.15,11.15,0,0,0,11,11C184.69,85.19,189.59,80.29,189.63,73.78ZM81.09,182.37a11.11,11.11,0,1,0-11.24,11.37A11.22,11.22,0,0,0,81.09,182.37Z"/></svg>