<svg id="Layer_26" data-name="Layer 26" xmlns="http://www.w3.org/2000/svg" viewBox="0 0 250 250"><title>angle-sensor</title><path d="M165.87,62.36,131.7,107.67l4.21,5.54L132.42,117l3.75,5.79,5.6-2.9,4.52,6.38-4.78,4.08,7.24,5.57,1-1.35c4.11,8,4.1,8.18-.67,11.17,1.11,2.69.11,6.66,5.54,6.35,2.05-.12,2,7,.84,9.68a10.85,10.85,0,0,0,.07,7.22c.68,2,2.81,3.41,4.3,5.09l-.82,2.18h52.78v33.2a38.33,38.33,0,0,1-4.57.58q-72.42-.62-144.84-1.29c-1.59,0-3.17-.08-4.75-.2-17-1.25-23.43-11.39-17.13-28.9,6.43-17.89,17-33.93,29.29-48.63,2.92-3.49,5.73-7.09,8.38-10.78,18.21-25.42,36.45-50.82,54.46-76.37,3.18-4.51,5.81-5.11,10-1.41C150,49,157.59,55.29,165.87,62.36Zm-51.2,66.28L84,175h48.74C131.27,157.92,128,142.26,114.67,128.64Z"/></svg>