<svg id="Layer_26" data-name="Layer 26" xmlns="http://www.w3.org/2000/svg" viewBox="0 0 250 250"><title>controller-sensor</title><path d="M185.88,105l-7.14,8.29c-3.5-3-6.59-1.25-9.62,2.9-2.53,3.46-3.24,6.27,1.08,9.61-6.41.16-6.82,4.06-6.43,8.51l-1.51.72c-2.94-3.65-6.39-7-8.67-11.05-2.46-4.34-3.93-6.51-9.23-2.84-3.17,2.2-8.64,3.26-12.29,2.18-10.31-3.06-19.78.45-29.52,2-1.6.25-3.13,1.57-4.46,2.69-4.78,4-10.11,5.4-15.94,2.93-4.53-1.93-5.25.53-6.18,4.1-2.16,8.36-4.32,16.77-7.25,24.88-2.47,6.82-8.29,10.12-15.4,9.86-7.32-.28-11.3-5.5-13.14-11.88-1.68-5.82-3.1-12-3.13-18C37,119.74,38.5,99.71,45.46,80.47,48.6,71.77,58.79,68,67.19,72.3A13.72,13.72,0,0,0,75,73.45c20.42-3.24,40.81-6.72,61.18-10.26a6.68,6.68,0,0,0,3.68-2.35,15.58,15.58,0,0,1,24-.56C175.74,73.35,178.34,83.69,185.88,105ZM97.14,116.44c-.07-5.45-4-9.4-9.18-9.31-6,.11-9.67,3.69-9.7,9.43S82,126.19,87.17,126C92.59,125.83,97.22,121.39,97.14,116.44Zm48.28-7.28c-.08-6.38-4-10.71-9.5-10.53a9.89,9.89,0,0,0-9.26,9.7c0,5,3.86,8.8,9.12,8.78C141.92,117.1,145.47,114.16,145.42,109.16Zm-82.68,6.2c2.94-3.08,6-5.28,5.66-6.14-1.07-2.74-3.41-5-5.27-7.41-1.29,2.1-3.28,4.09-3.65,6.35C59.2,109.82,61,111.83,62.74,115.36Zm98.77-42.17c-3.58-2-5.82-4.21-7.39-3.81-2.05.51-3.58,3.12-5.33,4.82,1.84,1.63,3.67,4.51,5.53,4.53S158.13,76,161.51,73.19ZM67.37,90.08c-2.82-2.18-4.54-4.56-6.14-4.48-1.84.1-5.27,3.14-5.08,3.56,1.19,2.6,3.2,4.82,4.94,7.17C62.81,94.62,64.54,92.91,67.37,90.08Zm4.51,14.16c2-2.75,4.38-4.52,4.26-6.13C76,96.32,72.92,93,72.43,93.25c-2.6,1.18-4.79,3.28-7.12,5.06Zm-11.77-2.47L60,99.34c-2.26-1-4.44-2.28-6.79-2.75-2.67-.54-5.59.21-4.91,3.74.38,2,2.7,5.34,3.67,5.18C54.79,105,57.41,103.12,60.11,101.77ZM152,85.35c-3.37-2.11-5.34-4.34-7.1-4.18s-3.31,2.7-5,4.19c1.76,1.71,3.32,4.36,5.35,4.81C146.73,90.48,148.82,87.78,152,85.35Zm5.86,1.53c-2.73,2.71-5.88,4.58-5.68,6,.31,2.08,3,3.82,4.59,5.7,1.7-1.55,4.45-2.89,4.8-4.7S159.66,90,157.88,86.88Zm.47-4.56c3.54,2.22,5.56,4.49,7.31,4.31s3.19-2.87,4.77-4.45c-1.62-1.55-3.13-4.19-4.87-4.35S161.86,80,158.35,82.32Z"/><path d="M174.09,173.83l5.9,3.49-4.52,7c-5.84-5.52-9.92-.29-14.89,2.15.39,1.75.79,3.58,1.24,5.63l-7.56,3-2.51-7.15-9.26-.78-3.11,5.23-8.13-3.77c1.31-2.35,2.43-4.34,3.67-6.53-2.52-3.64-3.16-10.24-11-5.65-.85-3.09-1.55-5.62-2.37-8.61,5.31-1.45,9.39-3.79,8.52-10.28l-6.14-3.08,3.93-7.7c5.62,5.52,9.56,1.23,14.15-1.55l-1.26-6.41,7.82-2.47c.73,2.61,1.34,4.8,2.06,7.33l9.19,1.26c1.12-1.71,2.18-3.34,3.54-5.45l7.31,4.1-2.92,5.11,5.79,7.44,6.31-1.46,2.52,7C174.61,166.21,174.61,166.21,174.09,173.83ZM150.43,157c-4.26.07-7.93,4.15-7.83,8.69.11,5.44,3.8,8.83,9.63,8.87,4.76,0,9.18-4.45,9-9.12C161,160.57,156.33,156.92,150.43,157Z"/><path d="M192.79,117.14l9.35-1.5,0-1.38,4.06,3.1c-2.57,5.38-1.23,8,3.95,9.92,1.55.57,2.44,3,2.82,3.46-2.74,2.88-5.15,4.47-6,6.66-.59,1.5,1,3.85,1.91,6.95l-2.15,2.89c-7-3.75-10.57-.32-13.43,5.39-.31.62-2.14.47-3.23.68-2.46-7.23-5.85-8.34-11.71-3.85l-4.18-2.86c3.75-7.14,2.18-10.61-4.77-10.34-.29-1.85-.59-3.73-.73-4.63l8.62-6.65-5.47-4.28,3.05-4.18c7.26,3,10.53,1.42,11.4-5.65l4.86-.25C191.59,112.55,192.07,114.36,192.79,117.14ZM184,130.3c.15,6.75,3.85,8.45,7.18,7.85,2.45-.45,5.56-3.53,6.25-6,1-3.65-3.62-7.67-7.57-6.56C187.24,126.28,185.26,129.19,184,130.3Z"/></svg>