<svg id="Layer_26" data-name="Layer 26" xmlns="http://www.w3.org/2000/svg" viewBox="0 0 250 250"><title>grab-sensor</title><path d="M118.65,109.93c.45-11.11.94-22.21,1.33-33.31.33-9.28.68-18.56.77-27.85,0-5.09,1.68-8.51,7.27-8.76,5.09-.23,8.77,3.06,9.17,8.78.73,10.64,1.3,21.31,1.59,32,.26,9.44.05,18.9.05,28.35l1.7.35a42.32,42.32,0,0,0,1.67-5.61c2.08-13.46,4-26.94,6.09-40.41a45,45,0,0,1,1.79-8.08c1.42-4,4.13-7.17,8.77-6.41,4.86.8,7.67,4.21,7.28,9.28q-1.2,15.66-2.94,31.27c-.83,7.63-2,15.21-3.08,22.82l1.54.59c3.13-7.44,6.21-14.9,9.41-22.31,1.63-3.79,3-7.85,5.41-11.06,1.32-1.74,5.21-3.23,7-2.49,2.11.87,3.75,4.06,4.51,6.58.63,2.09,0,4.75-.61,7-6.19,21.71-10.56,43.67-11.63,66.35-.28,6-4.64,11.83-6.86,17.84-2.08,5.66-4.58,11.34-5.51,17.22-1.59,10-4.32,14.36-13.89,16.46a65.63,65.63,0,0,1-36.18-2.38c-4.25-1.48-5.86-4.59-7.53-8.85a175,175,0,0,0-13.62-27.38c-8.55-13.93-18.16-27.21-27-41-3-4.68-4.57-10.11-2.23-15.84,2.15-5.25,8-7.59,11.77-1.76a110.45,110.45,0,0,0,12.06,15.37c2.08,2.23,5.5,3.22,8.31,4.77,1.39-3.27,4.25-6.7,3.94-9.8C97.1,102.76,94.49,84,92.11,65.15c-.28-2.15-.76-4.29-.86-6.45C91,53.42,93.43,49.79,98.72,49s8.09,2.33,9.42,7a44,44,0,0,1,1,5.24q3.61,22.25,7.22,44.48c.24,1.45.68,2.86,1,4.29Z"/></svg>