<svg id="Layer_26" data-name="Layer 26" xmlns="http://www.w3.org/2000/svg" viewBox="0 0 250 250"><title>impact-sensor</title><path d="M79.57,56c25.26.27,50.14,24.06,49.73,47.54-.48,27-20,45.67-47.49,45.39-20.26-.21-45.33-26.54-45.16-47.31C36.8,82.42,59.31,54.13,79.57,56Zm33.37,38.5,1.3-1c-.55-1.94-.64-4.21-1.74-5.77C106.65,79.5,99.21,73.26,89,71.23c-1.78-.36-3.86.83-5.81,1.3,1.27,1.8,2.17,4.12,3.87,5.29,6.21,4.31,12.69,8.24,19.07,12.31Z"/><path d="M116.48,194c-15.74,1.14-37.24-3.15-58.81-6.84-4.53-.78-9.32-.21-13.75-1.28-2.64-.63-6.48-3-6.83-5-.71-4.26,3.31-5.52,6.93-5.42,11.24.29,22.47.9,33.7,1.27,14.24.46,28.48,1,42.73,1.14,14.06.19,28.14-.17,42.2.06,9.83.16,19.63,1.11,29.46,1.33,4.74.11,9.52-1,14.26-.87,2.35.07,4.66,1.74,7,2.69-1,2.28-1.52,5.68-3.28,6.59a29.82,29.82,0,0,1-12,3.4C173,192.13,147.91,192.86,116.48,194Z"/><path d="M152.93,118.19h29.71v29.13c-9.44,1.86-9.44,1.86-12.78-8.29l-24.1,31.48-26.24-23.16,7.06-8.41,17.76,13.57,19.06-23.16-10.47-1.27Z"/></svg>