<svg id="Layer_26" data-name="Layer 26" xmlns="http://www.w3.org/2000/svg" viewBox="0 0 250 250"><title>movement-sensor</title><path d="M166.13,149.16c-23.64,0-41.47-19.94-41.65-45.83-.16-21,28.15-41.08,46.14-41,20.71.14,42.17,24.4,42.09,47.29C212.64,129.15,189,149.19,166.13,149.16Zm-1.37-72.3c8.32,5.72,16.63,11.47,25,17.15,2.18,1.49,4.5,2.77,7.31,4.49C197.3,85.86,176.91,71.5,164.76,76.86Z"/><path d="M105.47,113.67c2.79,9.36,2.8,9.37-5,14.25q-26.85,16.85-53.72,33.67c-2.8,1.76-5.83,4-8.41.12s0-6.24,3.2-8.25Q72.3,134.23,103,114.91A26.9,26.9,0,0,1,105.47,113.67Z"/><path d="M137.44,162.51c-13.19,8.29-26.3,16.7-39.67,24.69-1.56.93-5.37.27-6.69-1.07-2.52-2.56-.82-5.34,1.9-7.06,11.08-7,22-14.37,33.5-20.6,2.56-1.39,7.32,1.28,11.07,2.08Z"/><path d="M94.28,158c-.64.83-1.47,2.7-2.91,3.63-9.1,5.88-18.32,11.57-27.53,17.27-2.71,1.68-5.45,2.12-7.34-1.16s-.27-5.39,2.47-7.11c9-5.67,18-11.44,27-17C90.36,151,94.35,152.8,94.28,158Z"/><path d="M117.59,146c-3.75,2.38-6.89,5-10.49,6.43-1.86.75-4.54-.53-6.85-.89.55-2.3.36-5.38,1.79-6.74,2.8-2.65,6.51-4.34,10.2-6.64Z"/></svg>