<svg id="Layer_26" data-name="Layer 26" xmlns="http://www.w3.org/2000/svg" viewBox="0 0 250 250"><title>rotation-sensor</title><path d="M87.83,210c-20.25-16.51-40.16-34.18-45.75-60.74-9.4-44.71,4.12-84.32,50.05-102.77,23.11-9.28,45.28-7.85,68-.49a22.16,22.16,0,0,1,6.47,2.91C206.54,79,221.2,117.65,203,168.08c-4,11.22-12,19.52-21.87,26.72,4.24,0,8.47.14,12.7-.05,3.55-.16,5.6.66,5.23,4.83-.3,3.45,0,6.94,0,10.42H144c0-16.3.11-32.6.12-48.9,0-3.14,1.53-4.2,4.47-4,4.7.39,9.4.7,14.75,1.09V181.7c10-10.23,20.24-18.36,22.5-32.36,3-18.51.75-36.13-7.78-52.92-18.54-36.5-58.59-45.6-90.31-19.77C71.67,89.73,63,106.79,65.87,128.38c2.76,21,9.63,39.46,28.31,51.73,3.95,2.59,7.16,6.27,10.85,9.29,4,3.25,3.47,6.54.3,9.83-3.55,3.67-7.26,7.19-10.9,10.77Z"/><path d="M126.25,148.52c-9.94-.05-20.33-10.36-20.34-20.19,0-10.44,9.67-21.05,19.79-20.55,12,.59,21.1,9.28,21,21.71C146.54,140.83,138.17,148.57,126.25,148.52Z"/></svg>