<svg id="Layer_26" data-name="Layer 26" xmlns="http://www.w3.org/2000/svg" viewBox="0 0 250 250"><title>signal-generator</title><path d="M101.35,207.13c-9.43-3.77-14.15-11.72-15.88-20.8C82,168.27,79.44,150,77,131.77c-2-15.38-3.26-30.87-4.89-46.3C71.9,83.23,71.41,81,71,78.8l-2.13-.2C66,96.06,63.16,113.52,60.3,130.87H38.13c1.46-12.94,2.16-25.31,4.44-37.4a160,160,0,0,1,8.89-30A43.53,43.53,0,0,1,62.71,47.58c8.95-7.85,21.38-4.56,25.77,6.47a77.85,77.85,0,0,1,4.75,19.12c3.29,27,6.13,54,9.18,81a47.79,47.79,0,0,0,2.7,12.13,30.74,30.74,0,0,0,1-3.94c3.48-28.69,6.71-57.42,10.51-86.07A94.54,94.54,0,0,1,122.38,55c3-7.86,9.13-12.3,18-12.12,8.72.18,14.81,4.74,16.87,12.67a409.84,409.84,0,0,1,9,43.16c3.35,22.83,5.56,45.83,8.47,68.73a61,61,0,0,0,4.46,15.77c9.41-21.18,9.27-43.7,9.76-66.73l22.11-1a17,17,0,0,1,.75,3.58c-.57,20.55-.72,41.13-6.54,61.15-3.16,10.88-8.06,20.47-17.8,26.94H168.89c-2.57-2.83-6.07-5.25-7.53-8.57-3.48-7.93-7.4-16.06-8.66-24.48-3.83-25.66-6.45-51.5-9.6-77.27-.73-6-1.66-11.9-2.51-17.85a5.37,5.37,0,0,0-2.17,3.84c-1.93,15.77-3.65,31.56-5.75,47.3-2.51,18.8-5,37.61-8.17,56.31-1.51,9-6.15,16.6-15,20.72Z"/></svg>