<svg id="Layer_26" data-name="Layer 26" xmlns="http://www.w3.org/2000/svg" viewBox="0 0 250 250"><title>switch</title><path d="M189.41,49.87c4.25,37,11.56,72.62,19.71,108.13,4.71,20.55,5.56,14.92-8.8,31.19-5,5.72-10.72,7.75-18.32,7.87-46.9.77-93.79,2-140.68,3.07a17.62,17.62,0,0,1-2.35-.32c0-3.58,0-7.2,0-10.83q-.59-65.13-1.15-130.25c-.08-8.86,0-8.86,8.85-8.86H189.41ZM196,167.17c-.4-3.52-.44-5.66-.91-7.71-7-30.7-14.22-61.37-21.17-92.09-.89-3.93-3.36-3.51-6.08-3.51h-64.2q-22.7,0-45.39,0c-.51,0-1,.41-2.11.87.32,4.91.11,10,1.06,14.91,5.42,27.66,11.23,55.25,16.63,82.93,1,5,3.42,5.92,8,5.82,26.64-.57,53.28-.91,79.92-1.23C173,167.06,184.19,167.17,196,167.17Z"/><path d="M138.6,95.47c0,8.17-5.91,16.16-12.5,16.9-6,.68-12.65-5.54-14.54-13.65-.08-.38-.16-.76-.23-1.14-1.63-9.67,4.15-19.15,12-19.61C130.86,77.52,138.6,86.36,138.6,95.47Zm-6,.44c.11-5-3.8-10-7.87-10-3.77,0-7.36,4.35-7.46,9s3.65,9.33,7.69,9.6S132.47,100.88,132.59,95.91Z"/><path d="M137.12,150.39l-8.57.77c-1.18-8.61-2.3-16.76-3.47-25.35h8.6C134.78,133.64,135.89,141.59,137.12,150.39Z"/></svg>