<svg id="Layer_26" data-name="Layer 26" xmlns="http://www.w3.org/2000/svg" viewBox="0 0 250 250"><title>tag</title><path d="M116.16,210c-.19-4.77-.13-9.56-.7-14.28-.19-1.57-1.73-3.84-3.13-4.26-22.09-6.8-37-21.84-45.72-42.37-4.64-10.9-10.13-16.53-22.17-13.88-1.42.31-3-.1-4.92-.19V116.61c4.82,0,9.57-.25,14.26.08,4.09.29,5.79-1,7.13-5.15C67.16,92.37,78.38,76.6,95.53,65.7c4.89-3.1,11-4.23,16.34-6.69,1.58-.72,3.41-2.79,3.57-4.4.47-4.72.17-9.52.17-14.61h18.78c0,5.5.17,10.82-.06,16.12-.13,3,.91,4.39,3.78,5.28,26.44,8.19,44,25.36,52.62,51.8.49,1.52,2.94,3.24,4.62,3.39,4.89.46,9.85.17,15.13.17V135.2h-18c-5.8,32.76-23.29,53.21-57.86,56.45V210ZM125,176.78c3.35-.43,7.52-.93,11.67-1.52a47.1,47.1,0,0,0,39.07-56.83c-5-21.63-23.76-39-46-43.09-10.38-1.91-19.78-.39-28.41,5.6-12.24,8.5-20.87,19.94-24.72,34.22a35.71,35.71,0,0,0,.05,19.05,75.45,75.45,0,0,0,11.48,21.66C97,167.83,108.53,176,125,176.78Z"/><path d="M155.78,97.18c0,9.59.07,18.36-.09,27.12a5.07,5.07,0,0,1-1.91,3.31q-19.11,15.18-38.36,30.17a25,25,0,0,1-3.19,1.7C104.86,150.7,97.4,142,90.32,133.09c-.89-1.12-.59-4.67.48-5.63,10.07-9.13,20.41-17.95,30.69-26.83A18.76,18.76,0,0,1,136.3,96C142.75,96.67,149.26,96.82,155.78,97.18Zm-13.64,7.17-2.5-.15c-1.66,2.16-4.78,4.49-4.57,6.45.24,2.19,3.27,5.16,5.55,5.66,1.49.33,5.23-3,5.39-4.93C146.19,109.15,143.55,106.7,142.14,104.35Z"/></svg>