<svg id="Layer_26" data-name="Layer 26" xmlns="http://www.w3.org/2000/svg" viewBox="0 0 250 250"><title>trigger-zone</title><path d="M64.39,207.63l-10-6C103,153.71,155.85,111.7,208.72,69c4.17,7.77,3.58,16.48,2.71,25.07-.16,1.64-2.83,3.16-4.52,4.5C163.22,133.31,120.41,169.07,80,207.63Z"/><path d="M104.05,207.63c2.83-2.79,5.5-5.77,8.51-8.34q46.11-39.33,92.31-78.54c1.9-1.61,4-3,7.1-5.32,0,9.5.23,17.62-.18,25.71-.09,1.67-2.38,3.44-4,4.79q-34.69,29.13-69.48,58.17a28.78,28.78,0,0,0-3,3.53Z"/><path d="M159.33,207.63c6.89-6,13.65-12.25,20.7-18.11,10.14-8.42,20.48-16.6,30.83-25,4.55,14.62-5.78,32.16-25.1,43.06Z"/><path d="M199.19,54.5c-5.23,4.88-9.74,9.75-14.9,13.79-47.64,37.28-93.67,76.41-137.57,118-.84.8-1.81,1.46-3.08,2.46-4.76-7.73-6-15.89-5.42-24.3.14-1.95,2.34-4.05,4.05-5.54,27.91-24.32,56-48.45,83.83-72.85,15.35-13.44,30.3-27.33,45.56-40.88a8.06,8.06,0,0,1,5.72-2A37.41,37.41,0,0,1,199.19,54.5Z"/><path d="M38,139.69c0-8.48-.22-16.41.16-24.33.09-1.79,1.91-3.86,3.46-5.17,19.42-16.37,39-32.58,58.41-48.94,5.8-4.88,11.2-10.26,17-15.08,2.09-1.73,4.93-3.39,7.52-3.52,8.33-.45,16.69-.17,25-.17l.83,1.58Z"/><path d="M96.7,43.25l-57.88,47C33.06,60.4,60.93,37.52,96.7,43.25Z"/></svg>