<svg id="Layer_26" data-name="Layer 26" xmlns="http://www.w3.org/2000/svg" viewBox="0 0 250 250"><title>value-slider</title><path d="M80.78,169c3.49,0,7-.11,10.47,0,6.55.25,11.69,0,16.31-7,6.6-10,26.05-8.71,36.51,1.45a13.76,13.76,0,0,0,11.29,4.33c12.91-.54,25.85-1.11,38.76-.83a34.12,34.12,0,0,1,15,4.1c2.3,1.24,4.08,6,3.7,8.8-.31,2.39-3.75,5-6.39,6.27s-6,1.25-9,1.34c-14.15.42-28.32.51-42.46,1.16a10,10,0,0,0-6.62,3.78c-10.27,14.1-31.78,14.31-42.6.44a9.83,9.83,0,0,0-6.88-3.29c-15.17.2-30.34.94-45.51,1.3a21.62,21.62,0,0,1-8.38-1.38c-5.11-2.07-8.81-5.77-7.88-11.79s6-7.23,11.14-7.5c10.85-.57,21.71-1,32.57-1.57Z"/><path d="M152.73,134.7c-15.18,0-30.36.1-45.53-.06-4.28,0-7.4.61-10.5,4.36-10.62,12.87-30.44,12-40.85-1.07A11,11,0,0,0,49,134.39c-8.26-.81-12.06-3.09-12.34-8.4-.32-6,4.39-11.33,11.74-11.86,4.32-.31,6.82-2,9.59-5.07,9-9.92,24.71-12.35,34.75-5.61,2.31,1.55,5.11,3.63,5.85,6,1.81,5.87,5.88,6.42,10.81,6.3q42.47-1,84.94-1.89a53.25,53.25,0,0,1,8,0c6.79.89,11.17,5.78,11,11.9-.16,5.63-3.21,8.12-11.35,8.34-12.93.35-25.87.37-38.8.51C159.7,134.72,156.21,134.69,152.73,134.7Z"/><path d="M169.34,95c-9.9-.58-16.69-3.23-20.42-10.5-1.74-3.38-3.88-4.09-7.26-4-29.95.41-59.89.65-89.84,1.06-9.07.12-13-2.3-14.35-9.11-1.07-5.46.69-9.14,6.4-9.65,11.21-1,22.46-2.06,33.71-2.28,21.75-.44,43.5-.19,65.25-.6A12.68,12.68,0,0,0,151,56.1c11.55-12.41,28.21-12.32,39.31.32,1.66,1.9,4.54,2.92,7,3.81,1.88.67,4.07.38,6.1.66,4.29.6,9,.84,9.52,6.67s-2.19,11-7.66,11.79c-9.09,1.34-15.66,6.38-22.85,11.19C178.24,93.36,172.53,94,169.34,95Z"/></svg>