<svg id="Layer_26" data-name="Layer 26" xmlns="http://www.w3.org/2000/svg" viewBox="0 0 250 250"><title>wireless-receiver</title><path d="M108.15,197.83c-5.43-6.39-7-14-6.63-22.08.28-7,4-11.95,9.79-15.62,13.33-8.43,30.65-5,38.06,7.8,5,8.57,4.93,17-.84,25.31-1,1.49-2,3.06-2.95,4.59Z"/><path d="M213,95.33,195,114c-5.42-4.91-10.71-9.87-16.19-14.64-23.59-20.56-50.89-24.3-80.33-17.1C84.6,85.65,74.2,94.78,64.32,104.48c-2.59,2.55-5.07,5.21-8,8.23L37,95.51C80.57,38,163.34,37.54,213,95.33Z"/><path d="M70.15,128.79c29.9-35.07,80.88-33.42,111.58,2.69l-18.81,18c-10.69-10-21.31-18.8-37.11-19.28s-27.26,6.7-37.15,17.2Z"/></svg>