<svg id="Layer_26" data-name="Layer 26" xmlns="http://www.w3.org/2000/svg" viewBox="0 0 250 250"><title>wireless-transmitter</title><path d="M129.28,210c-6.5-.33-13-.73-19.48-1-3.35-.11-4.19-1.75-3.82-4.83,3-25.09,5.92-50.19,9.06-75.27.39-3.12,0-5.09-2.46-7.39-6.13-5.64-8.15-18.15-4.52-24.51,3.76-6.61,14.88-10.68,23.4-8.41,6.87,1.83,10.35,7,12,13.42A19.44,19.44,0,0,1,137.76,122c-2.82,2.65-3.35,4.73-2.69,8.28,4.57,24.28,8.85,48.61,13.39,72.89.73,3.9.13,5.73-4.27,5.71-5,0-9.93.5-14.9.79Z"/><path d="M167.93,61.18c1.27-4.11,2.7-8.27,3.82-12.52.94-3.56,2.72-3.92,5.9-2.62,9.54,3.9,16.38,10.53,22.54,18.79C219,90.07,212,127.93,194.64,152c-3.88,5.37-17.87,14-27.24,16.92-1.33-5.73-3-11.38-3.76-17.14-.19-1.35,2.05-3.78,3.71-4.55,29-13.35,32.61-57.8,14.36-74.8C177.54,68.55,172.89,65.2,167.93,61.18Z"/><path d="M82.36,40c1.06,3.61,1.94,6.51,2.77,9.43C87.86,59,87.75,58.89,79.51,64c-25.82,16.08-30.7,60.34-5.17,78,8.68,6,8.55,6.21,5.23,16.29-.65,2-1.42,3.93-2.35,6.51a45.22,45.22,0,0,1-25.51-18.5c-21-30.5-14.52-60,4-88.49C61.6,48.73,72.34,44.94,82.36,40Z"/><path d="M154.22,133.44c-.64-5.11-1.22-9.78-1.87-15,8.21-1.11,12.29-5.73,12-13.86-.24-7.27-3.91-11.77-11.57-13.51.85-5.29,1.69-10.48,2.52-15.66,14.64,1.7,24,13.21,24.23,30.39C179.84,124.77,174.25,129.58,154.22,133.44Z"/><path d="M96.73,77.56c.51,4.82,1,9.62,1.52,14.23C87.78,96.5,85.94,99,86.44,107.42c.42,7,2.51,9.25,11.66,12.16-.86,5.23-1.75,10.58-2.64,16C78.7,132.18,70.45,120.62,71,102,71.41,87,78.51,80,96.73,77.56Z"/></svg>