<svg id="Layer_17" data-name="Layer 17" xmlns="http://www.w3.org/2000/svg" viewBox="0 0 250 250"><title>action-recorder</title><path d="M37.5,200.93V188.2c3.92-.57,7.91-.14,10.35-1.88,1.5-1.06.83-5.45.82-8.34-.05-8.53-7.43-2.11-11-6.07,0-4.69,0-10.52,0-16.34q.09-36.65.19-73.28c0-8.87-.69-8.26,7.83-8.22a24.49,24.49,0,0,0,2.56-.3V61l-9.52-.57c-.32-.58-.63-.88-.65-1.2-.88-10.66-.87-10.73,9.82-10.65,28.45.23,56.9.67,85.35.75,23.68.07,47.36-.19,71-.4,8.43-.07,8.57-.06,8.4,8.41,0,.9-.12,1.8-.22,3.25h-10.2V74l9.84.56V173c-11.81,1.77-12.08,2.14-9.94,14.38l10.5.52c-.3,4.44-.6,8.73-.9,13Zm118.06-65.26V117.13c-4.94,0-9.52-.27-14.06.07-4.69.36-6.67-1-6.23-6.06.45-5.22.1-10.5.1-16-4.23-.37-7.88-.59-11.5-1-4.2-.52-5.94,1.12-6,5.42-.13,5.79-.78,11.56-1.22,17.49H94.47V133.6l21.69,1.61V155.5h17.72c.57-6.83,1.11-13.3,1.66-19.83h20Zm-38.95,52c3.59-12.14,1.77-14.67-9.63-14.08a21.65,21.65,0,0,1-3.29.22c-4.27-.48-6.19,1.19-5.58,5.6.22,1.62-.37,3.46.18,4.91s2,3.12,3.14,3.2C106.53,187.84,111.65,187.64,116.61,187.64Zm35.71-.25c-.59-4.64-.12-12-1.86-12.61-5.09-1.63-11.06-.55-16.69-.53-.45,4.33-.9,8.65-1.37,13.14Zm14.79.26h13.67c.73,0,1.62.26,2.16-.06,1.18-.72,3-1.64,3.12-2.65a99.88,99.88,0,0,0,.15-11c-5.94,0-11.53-.09-17.1.12-.7,0-1.84,1.68-1.91,2.64C167,180.16,167.11,183.59,167.11,187.65Zm-93.44-14c-9.75-.56-9.51-.55-9.83,8.71-.15,4.29,1.34,5.47,5.31,5.16,3.45-.28,6.95.15,10.39-.19,1.23-.11,3.24-1.49,3.32-2.42.27-3.41.56-7.13-.6-10.18-.43-1.12-4.88-.7-7.5-1ZM133.39,60.75V73.63h18.66c0-3-.18-5.52,0-8,.33-3.72-.8-5.32-4.87-5C142.89,61.06,138.5,60.75,133.39,60.75Zm34.05,13.08h18.7V61h-18.7Zm-50.09,0V61H98.85V73.85ZM82.81,61.15H64.35V73.7H82.81Z"/></svg>