<svg id="Layer_17" data-name="Layer 17" xmlns="http://www.w3.org/2000/svg" viewBox="0 0 250 250"><title>keyframe</title><path d="M83.16,163.28l-46.43-44.2a12.66,12.66,0,0,1,.64-1.74C51,104,64.54,90.64,78.34,77.53c4.91-4.66,5.7-4.65,10.56-.25,14,12.68,27.78,25.63,42.23,39C117.19,134.53,102.81,151.13,83.16,163.28Z"/><path d="M184.46,152.89c-4.33,0-8.35.08-12.36,0-3.24-.08-3-2.62-3-4.79,0-7.65,0-15.3,0-23.73H143.82c-.55-1-.8-1.31-.81-1.58-.79-13.94-.79-13.94,13.23-14,4,0,8.07,0,12.43,0,0-7.4-.18-14.38.06-21.35.24-7.24,5.83-10.62,12.64-7.62,1.07.47,1.79,2.73,1.9,4.22.57,7.79.9,15.59,1.34,24.1,2,0,3.78,0,5.58,0,5.93-.1,11.87-.14,17.8-.36,3.21-.12,4.59,1.39,4.72,4.41.51,11.65,1.62,12-10.75,11.38-4.81-.25-9.66.28-14.5.35-3,0-3,2-3,4.18C184.47,136.18,184.46,144.27,184.46,152.89Z"/></svg>