<svg id="Layer_17" data-name="Layer 17" xmlns="http://www.w3.org/2000/svg" viewBox="0 0 250 250"><title>mic-on-off</title><path d="M91.8,209.73v-7.29h26.88V184.29c-6.57-2.52-12.93-4.46-18.83-7.33-16.7-8.1-26.73-21.86-28.8-40-1.57-13.68-.31-27.69-.31-42.28,1.83,0,3.77,0,5.7,0,4.53,0,6.82,1.55,6.61,6.79-.38,9.66-.38,19.38.16,29,1.25,22.77,19.46,39.79,42.18,39.89a41.79,41.79,0,0,0,41.93-39.5c.6-9.25.33-18.55.44-27.83,0-2.16,0-4.32,0-6.34a11.07,11.07,0,0,1,2.34-.8c12.93-.23,10.23-.45,10.41,10.1.13,7.86-.21,15.73-.1,23.6.29,21.34-17.4,47.56-41.86,52.23-2.16.42-4.29,1-6.91,1.66V202h26.78c.47,3,.83,5.35,1.2,7.7Z"/><path d="M157.9,128.54c-1,19.79-10,30.29-27.07,32.38C114.06,163,98.4,153.4,94.9,136.5c-2.7-13.08-3-26.79-3.07-40.22-.07-11.42.57-23.1,2.93-34.23,3-14,11.94-24.45,34-21.94,15.55,1.76,25.93,11.35,27.13,26.92-4.36,0-8.68,0-13,0-7.18,0-7.48.45-5.61,8.2h19.91c.26,3.25.48,6,.75,9.44H137.35c-2,8-1.61,8.57,5.85,8.59,4.82,0,9.64,0,15.15,0,.2,2.81.38,5.32.63,8.88-5.48,0-10.62,0-15.76,0-7.32,0-7.32,0-6.42,8.21h21.89v9.74H137.51c-2.33,7.77-1.87,8.42,5.56,8.44C147.88,128.55,152.69,128.54,157.9,128.54Z"/></svg>