<svg id="Layer_17" data-name="Layer 17" xmlns="http://www.w3.org/2000/svg" viewBox="0 0 250 250"><title>record-possession</title><path d="M116.26,167.84,55.4,173c-.55-6.44-.9-13.15-1.74-19.81-.74-5.83-1.47-11.77-3.16-17.37-4.79-15.84-3.3-31,3.4-45.94.67-1.5.15-4.07-.73-5.64-5-8.9-4.82-14.41,1.2-22.21,7.67-9.93,19-10.74,29.15-2.29,1.62,1.36,4.08,2.66,6,2.49,3.19-.28,4.75-2.51,5.23-6.18,1.17-8.81,9.6-15.29,20.11-16.27,7.09-.65,14.51,5.13,18.08,13.53a12.8,12.8,0,0,0,4.76,5.63c5.95,3.64,8.2,9.27,9.14,15.6.53,3.62-1.61,5.93-4.86,7.5-6.25,3-12.29,6.51-18.64,9.3-4.35,1.91-9.13,2.83-13.62,4.45-3.46,1.24-7.56,2.14-9.91,4.6-1.89,2-2.67,6.34-1.91,9.09.54,2,4.32,4,6.87,4.29,11.92,1.47,22.41-3.18,32.49-8.84,3.18-1.79,7-4.71,9.39-.92,1.87,3,2.23,8,1.1,11.45s-4.51,6.49-7.64,8.65c-5.71,3.93-11.91,7.16-18,10.54-9.38,5.21-10.76,8-8.68,18.41C114.36,157.58,115.18,162.11,116.26,167.84Zm-41.09-80c6.8-3,9.83-9,8.63-16.37-1.08-6.57-5.37-10.36-12.57-11.09-6.43-.66-11.17,2.6-13.8,9.47-2.17,5.66-1,10.41,3.34,13.65,2.52-7.08,4.46-8.58,9.6-7.41C74.82,77.12,76.13,80.18,75.17,87.85ZM100,60.71c1.72,7.42,6.73,11.68,13.73,12.26q9,.75,12.74-7.72c2.69-6.12,1.8-10.7-2.92-15C118.68,45.83,113.24,45,108,48.07c4.08,2.8,7.68,5.92,4.32,11.33C109.12,64.5,104.78,62.68,100,60.71Z"/><path d="M131.29,206.61a38.15,38.15,0,0,1,2-5.44c.73-1.26,2.94-2.75,2.7-3.27-.69-1.42-2.32-2.39-4.06-4,0-10.75-.08-22.19.12-33.62,0-1.21,2.08-2.27,2.45-3.61a9.1,9.1,0,0,0-.06-5.12c-.41-1.2-2-2-3-3l.93-1.5h21.37c13.95,0,27.91,0,41.87.11,1.34,0,2.67,1,4,1.52-.91,1-2.39,1.8-2.62,2.9a11.48,11.48,0,0,0,.39,5.32c.4,1.39,2.21,2.56,2.22,3.84q.22,15.55-.14,31.12c0,1.28-1.32,2.79-2.42,3.73-2.4,2-2.88,3.57.2,5.45a4.83,4.83,0,0,1,2.09,3.34c0,.68-1.81,2.1-2.81,2.11C175.24,206.64,154,206.61,131.29,206.61ZM178,180.79c-.15-2.76-.26-4.92-.37-7.08l-7.08-.69c-2.14-2.83,2-8.42-4.32-8.44s-1.93,6.23-4.69,8.27c-2.19,2.28-7.34-2.95-7.95,3.26-.7,7.2,6,2.58,8.34,5.2.17,2.36.34,4.78.51,7.2h6.64c.37-2.74.7-5.16,1-7.72Zm11.44-29.07h-7.09v5h7.09Zm-34,48.81c7.62,1,7.94.73,6.75-4.73h-6.75Zm34,.19c1.39-7.11-3.52-4.61-7-5v5ZM142,156.48h7.37c-.15-1.8-.27-3.26-.42-5C145.68,152.09,140.74,149.17,142,156.48Zm13.26-5.13c.13,2.19.22,3.65.31,5.08h7.17C164,149.42,159.18,152,155.3,151.35Zm13.32,5.1h7.71c-.21-1.84-.37-3.31-.52-4.68h-6.94C168.79,153.38,168.71,154.72,168.62,156.45Zm-19.43,39.32h-7.12v4.88h7.12Zm26.84,0h-7.12v4.86H176Z"/><path d="M59,190.05l56.12-5.25c1.26,3.54,2.5,8,4.41,12.13,1.66,3.61.7,6.08-2.52,7.45-3.74,1.59-7.7,3.4-11.64,3.62-14.44.8-28.92,1-43.38,1.39-4.39.12-4.88-2.68-4.5-6.1C58,199.12,58.45,195,59,190.05Z"/><path d="M56.43,185.26c-.28-2.32-.53-4.35-.88-7.21l60.32-5.26c1.66,3.38.72,5.85-3.5,6.36-13,1.59-26.1,3-39.15,4.47C67.77,184.23,62.31,184.69,56.43,185.26Z"/></svg>