<svg id="Layer_17" data-name="Layer 17" xmlns="http://www.w3.org/2000/svg" viewBox="0 0 250 250"><title>timeline</title><path d="M54.05,58H76.81c1.52-5.75.06-14.12,9.48-13.2,7.65.75,6.39,7.46,6.61,13.11h24c.46-5.73-1.09-12.45,7.21-13.24,5.27-.5,7.1,2.36,8.76,13.26h23.55c.66-5.38-1.38-13,7.38-13.16,9.1-.21,7,8,8.46,13.32h24.14c.33-2.57.49-4.69.9-6.76.87-4.37,3.44-7,8.1-6.65,4.35.34,6.82,3.2,6.79,7.35a101.48,101.48,0,0,1-1.34,16.24c-.82,4.87-4.3,6.91-9.31,6.93-23.7.07-47.39.43-71.09.43-24.87,0-49.74-.21-74.61-.45-15-.14-16.6-1.88-16.47-16.89a41.14,41.14,0,0,1,.46-6.38c.72-4.33,3.43-6.51,7.79-6.08s6.54,3,6.47,7.45C54,54.6,54.05,55.94,54.05,58Z"/><path d="M81.65,160.59V133.25c4.29-.25,8.47-.68,12.65-.7,21.32-.11,42.65-.25,64-.1,8.28.05,9.29,1.17,10.16,9.3.48,4.43.46,8.91.62,13.37s-2.27,6.48-6.42,6.38c-6.6-.16-13.18-.83-19.77-.87C122.71,160.51,102.54,160.59,81.65,160.59Z"/><path d="M123.9,119.08c-9.88,0-19.33.07-28.77,0-17.66-.14-35.32-.27-53-.74-1.55,0-4.12-2.44-4.35-4a144.78,144.78,0,0,1-1.07-16.81c-.15-5.07,2.48-7.27,7.57-7.23,15.92.13,31.83.06,47.75.1,8.15,0,16.31.06,24.46.19,2.46,0,4.92.42,7.38.65Z"/><path d="M163.91,204.83c-10.69,0-21.38,0-32.07,0-2.83,0-5.17-.44-5.32-3.82-.3-6.57-.75-13.17-.43-19.73.08-1.56,2.94-4.27,4.56-4.29,22.31-.38,44.63-.38,66.95-.47,1.36,0,2.72,0,4.08,0,11.15.14,12,.61,10.77,11.93-2,17.9.85,13.65-15.89,16.09a20.22,20.22,0,0,1-2.91.18H163.91Z"/></svg>