<svg id="Layer_16" data-name="Layer 16" xmlns="http://www.w3.org/2000/svg" viewBox="0 0 250 250"><title>coat-mode</title><path d="M124.76,209.73c-13.39-13.34-26.83-26.64-40.08-40.11a9.14,9.14,0,0,1-2.28-5.92c.12-13.18.39-26.37,1-39.53A13.19,13.19,0,0,1,86.72,117c9.39-11,19.39-21.57,28.39-32.91,3.69-4.64,5.65-10.77,7.9-16.42,1.55-3.87,1.26-7.77-2-11.14-3.46-3.57-7.61-3.29-11.06-1.26-7.2,4.22-15,8.25-20.67,14.11-9.53,9.78-20.41,15.9-34.44,17.79C71.07,68.57,87.22,50.35,110.7,41c6.47-2.57,12.81-1.3,17.89,3.88,25.67,26.18,51.38,52.31,76.82,78.7,2.08,2.15,3.63,6.39,3.08,9.19-1.51,7.6-2.81,15.88-6.83,22.21-15.93,25-35.93,45.63-65.76,54-.31.09-.54.5-.81.75Z"/><path d="M91.11,95.41c-6.58,6.75-12.66,12.74-18.4,19a11.68,11.68,0,0,0-3.07,6.66c-.64,13-.86,25.94-1.23,38.91a5.38,5.38,0,0,1-.08,1.14c-.93,4,.68,9.94-5.39,10.53s-4.7-5.72-6.84-10.05c-.87,4.86-1.41,9-2.39,13-.84,3.49-1.66,7.68-6.45,7.42s-5.65-4.41-5.7-8c-.23-15.27-.17-30.54-.06-45.8,0-5.34.6-10.67.83-16,.27-6.47,3.55-10.32,9.54-12.81C64.3,94.32,77.18,94.74,91.11,95.41Z"/></svg>