<svg id="Layer_16" data-name="Layer 16" xmlns="http://www.w3.org/2000/svg" viewBox="0 0 250 250"><title>paint-mode</title><path d="M175.45,142.72c-21.15,3.39-37.57,12.38-52.4,23.94-13.08,10.2-25.35,21.52-37.37,33-9.77,9.31-19.65,12.5-30.94,8.24-10.5-4-17.71-15.07-18-27.62a45.53,45.53,0,0,1,10.85-31C58,137,69.61,125.69,80.76,114.05c1.55-1.62,3.41-3,4.37-5.57-7.9,4.61-15.82,9.19-23.7,13.84s-13.66,4.8-18.25.29c-5.67-5.56-4.39-11.88-.87-17.65,6.9-11.3,14.32-22.27,22-34.14-3.69,2.45-7.27,4.49-10.46,7-4.1,3.28-8.25,5.59-12.43.8S40.39,70,44,66.44C64.26,46.64,88.53,38.07,116.66,40c5.3.36,9.11,2.82,10.64,8s.15,9.63-4.38,12.49c-7,4.39-14.2,8.37-20.88,13.42,10.68-2.49,21.24-6.12,32.06-7.21,14.31-1.45,28.82-1.17,43.25-1.11,6.28,0,10,4.25,10.83,10.36s-2.42,9.83-7.8,13c-13.06,7.66-25.71,16-38.46,24.2-1.88,1.21-3.36,3.06-5.13,4.72,12.5-1.24,24.44-3.06,36.43-3.42a43.89,43.89,0,0,1,29.19,9.75c13.17,10.53,12.33,23.75-2.27,32.13-5.73,3.29-12.13,5.4-18.14,8.24-17,8-32.89,17.14-40.34,36.09-2.53,6.44-10.31,8.38-16.36,5.24s-8.36-10.54-4.62-17.18c7.87-14,19-24.84,32.66-33.2C160,151.38,166.85,147.66,175.45,142.72Z"/></svg>