<svg id="Layer_16" data-name="Layer 16" xmlns="http://www.w3.org/2000/svg" viewBox="0 0 250 250"><title>photo-mode</title><path d="M45.63,199.61c-7.25-2-9-7.08-8.9-14.13.25-33.76.09-67.52.13-101.28,0-10.18,3-12.83,12.82-12.38,11.51.52,23,.9,34.57,1.08,13,.2,13,.07,15.85-12.76.47-2.15.81-4.33,1.42-6.44,1.25-4.32,4.17-7.11,8.67-7.19,10.63-.18,21.27-.17,31.89.12,4.3.12,7.06,3.09,8.07,7.17a93.94,93.94,0,0,1,2.46,13.5c.51,5.22,3.27,6.73,8.09,6.58q18.95-.55,37.91-.7C207,73.11,212.48,77.7,212.55,86c.28,32.63.15,65.26.15,97.89,0,8.71-5.55,12.94-12.86,15.69Zm79.55-17.42c19.16.12,34.95-15.22,35.11-34.1s-16-35-35.1-35.19C106.35,112.68,91,128.35,91,147.79A34.77,34.77,0,0,0,125.18,182.19Zm13.92-80.68,0-2.37c19,0,38,.12,57.05-.18,2.14,0,4.23-2.52,6.35-3.87-1.93-1.16-3.81-3.26-5.78-3.34-26.51-1.12-53-2.45-79.57-2.73-21.41-.22-42.84.83-64.25,1.56-1.83.07-3.61,2-5.4,3,1.62,1.43,3,3.59,4.91,4.11,2.74.76,5.8.28,8.72.41Q100.14,99.79,139.1,101.51Z"/></svg>