<svg id="Layer_16" data-name="Layer 16" xmlns="http://www.w3.org/2000/svg" viewBox="0 0 250 250"><title>sculpt-mode</title><path d="M56.41,190.24C51.18,187.48,46,184.68,40.69,182a7.29,7.29,0,0,1-4.41-7.25q.19-19.62,0-39.25c0-3.53,1.5-5.68,4.46-7.24q15.13-8,30.2-16.06c2.74-1.47,5.22-1.8,8.15-.26q14.91,7.86,30,15.34c3.57,1.76,5.17,4.1,5.09,8.2q-.37,19.6-.16,39.24c0,3.76-1.48,5.84-4.69,7.46-5,2.51-9.71,5.37-14.56,8.08H77.44c.25-12.15.43-24.31.89-36.45,0-1.2,1.63-2.73,2.88-3.43,8.5-4.74,17.1-9.29,25.64-14a40.82,40.82,0,0,0,3.8-2.63l-.54-1.16a24.82,24.82,0,0,0-3.58,1c-9.32,4.08-18.57,8.35-28,12.22a9.49,9.49,0,0,1-6.6,0c-9.12-3.78-18.05-8-27.1-12a24.43,24.43,0,0,0-4.56-1.07l-.39,1.28c1.88,1.17,3.72,2.43,5.67,3.48,7.62,4.13,15.22,8.29,22.94,12.22,2.74,1.39,4,3.07,4.11,6.28.23,11.4.75,22.79,1.16,34.19Z"/><path d="M150.56,190.24,127.5,182a38.25,38.25,0,0,1,1.28-4c8.66-19.79,17.43-39.53,26-59.36,1.35-3.12,2.73-3.62,5.84-2.56,7.75,2.64,15.67,4.79,23.46,7.36a7.53,7.53,0,0,1,4.17,3c8.1,15.51,16,31.11,23.93,46.7a12.14,12.14,0,0,1,.58,2.27c-2.56.91-5,1.94-7.59,2.68-12.1,3.53-24.22,7-36.31,10.49a28.05,28.05,0,0,0-3.65,1.6Zm32.08-59.61c-9,17.76-18.68,35.23-24.93,54.16l2.13.93C169.27,168.15,175.48,149.16,182.64,130.63Z"/><path d="M122.37,169c0-12.94-.24-24.6.09-36.25.19-6.48-2.24-10.65-8.07-13.38-7-3.29-13.79-7.11-20.8-10.42-2.62-1.23-3.45-2.78-3.4-5.59.2-9.59.3-19.19.12-28.78-.08-4.72,1.67-8.46,5.9-9.81,6.87-2.18,14-4.25,21.09-4.86a46.16,46.16,0,0,1,26,5.64c3.74,2,5.3,4.78,5.13,9.24-.37,9.88,0,19.79-.26,29.67a31.23,31.23,0,0,1-2,11c-6.93,16.41-14.22,32.66-21.4,49C124.2,165.62,123.54,166.75,122.37,169Zm21.52-93.78-.84-1.86a30.91,30.91,0,0,0-3.86.89c-2,.74-3.83,2-5.86,2.47-12.21,2.75-24.32,3.65-35.92-2.62-.77-.42-2.07.13-3.12.22.34.89.42,2.18,1.07,2.6a29.5,29.5,0,0,0,7.16,3.88c12,3.63,24,3.32,35.59-1.82C140.18,78.07,142,76.5,143.89,75.23Z"/></svg>