<svg id="Layer_16" data-name="Layer 16" xmlns="http://www.w3.org/2000/svg" viewBox="0 0 250 250"><title>sound-mode</title><path d="M137.47,99.81c-.46,27.46-.82,54.93-1.42,82.39-.15,7.21-6.29,11.51-13.09,8.86a33.57,33.57,0,0,1-11.64-7.59c-9.53-9.79-18.6-20-27.68-30.23a7.92,7.92,0,0,0-6.83-3.12c-11,.35-22,.4-32.95.7-5.61.15-6.78-.74-6.84-6.22q-.2-17.43-.29-34.87c0-9.45,2.77-11.79,12.35-11.29,8.46.45,17,.68,25.42.51a11.66,11.66,0,0,0,6.88-3c11.08-10,21.79-20.37,32.93-30.27a39.41,39.41,0,0,1,11.28-6.62c5.89-2.39,9.48,0,10,6.37.51,6.57.6,13.18.76,19.77.11,4.87,0,9.73,0,14.6Z"/><path d="M171.84,73c18,.7,37.09,25.22,37.62,43.6.83,29.14-10.43,53.18-40.71,63.29-1.52-5.54-3-11-4.7-17.09,17.16-6.47,26.38-19.1,27.84-36.89,1.53-18.52-8.32-30.46-24.57-38.45C168.85,82.62,170.32,77.89,171.84,73Z"/><path d="M152.6,113c.87-4.69,1.68-9.1,2.58-13.93,7.09,1.63,13.6,3.73,17.66,9.45,6.4,9,7.73,19.09,3.54,29.44-2.37,5.87-13.9,12.29-19.74,11.33a4.18,4.18,0,0,1-2.5-2.79c-.71-3.18-1-6.46-1.4-9.64,8.88-3,11.44-5.82,11.26-12.28S161.37,115.55,152.6,113Z"/></svg>