<svg id="Layer_16" data-name="Layer 16" xmlns="http://www.w3.org/2000/svg" viewBox="0 0 250 250"><title>style-mode</title><path d="M100.85,202.37c-5.94-1.86-12.1-3.21-17.78-5.67-10.48-4.53-18.2-11.68-19.58-23.91-.81-7.29,3.33-15.38,10.09-18.24,1.36-.58,3.52.71,5.69,1.23-.81,1.06-1.87,1.8-1.86,2.53.08,5.81-.66,11.91.94,17.31,1,3.45,5.12,6.88,8.67,8.51,6.82,3.13,14.07,6,21.43,7.14,14,2.24,28.19,2,41.6-3.31A41.16,41.16,0,0,0,163.71,179c7.65-7.67,6.54-17.38-3.12-22.08-12.08-5.87-24.78-10.57-37.46-15.05-18.26-6.45-36.91-11.79-55-18.52-7.91-2.94-15.39-7.55-22.31-12.46C36.56,104.38,34.83,97,38.6,86.29c3.51-10,10.64-17,19.27-22.63,13.66-8.9,29-13.35,44.94-15.36a165.63,165.63,0,0,1,58.34,3.41c13,3,23.13,10.33,32.17,19.61a49.39,49.39,0,0,1,6,6.84c4.15,6.21,8,12.63,12.49,19.77l-9.19-.57,7.56,11.84-.49.63-4.53-3.3c.26,1.68.47,3,.77,5l-4.4-1.43,1.33,4.13c-3-2.65-7.13-5.83-10.76-9.48-9.35-9.41-17.69-20-27.88-28.34-23.17-19-49.24-17.36-75.45-7.33A24.14,24.14,0,0,0,73.85,96c.76,4.25,3.63,9.27,7.1,11.63a75.69,75.69,0,0,0,20.88,10c22.39,6.59,45.17,11.92,67.49,18.72a72.09,72.09,0,0,1,23.08,11.91c16.18,12.71,14.49,33.81-3.45,44-7.46,4.23-16.27,6.07-24.46,9-1,.37-2.05.77-3.07,1.16Zm98.27-98.32,1.55-1.28q-5.34-6.48-10.67-13L188.51,91Z"/></svg>