<svg id="Layer_21" data-name="Layer 21" xmlns="http://www.w3.org/2000/svg" viewBox="0 0 250 250"><title>camera-pointer</title><path d="M107,109c-6.62,6-13.19,11.55-19.31,17.57-3.7,3.65-6.53,4.44-10.48.34-5.95-6.18-12.35-11.93-18.35-17.67.2-1,.15-1.52.41-1.77C79,88.18,98.67,68.74,118.7,49.7c6.31-6,9.75-5.17,15.76.9,17.43,17.6,34.82,35.24,52.6,52.49,4.44,4.3,5,7,.12,11a161.12,161.12,0,0,0-13.32,13c-3.66,3.85-6.66,3.06-10.11-.29-5.83-5.68-11.91-11.12-19.15-17.83-.47,6.32-1.17,11.4-1.18,16.49,0,24.78.13,49.57.15,74.35,0,10-.08,10-10.28,9.94-4.87-.05-9.73-.18-14.6-.28-10.46-.21-11.07-.77-11.15-11.53q-.32-41.18-.54-82.33C107,113.19,107,110.82,107,109Z"/></svg>