<svg id="Layer_21" data-name="Layer 21" xmlns="http://www.w3.org/2000/svg" viewBox="0 0 250 250"><title>camera</title><path d="M172.09,125.59c7,2.15,12.26-.67,17.5-4.26s10.29-8.1,17.71-6.89c3.36.55,5,1.62,5,5.1,0,18.85.25,37.71,0,56.55-.09,6.86-8.35,9.66-14.9,5.27-3.45-2.32-6.65-5-10-7.55-6.49-5-6.49-5-15.22-3.79-4.7,17-12.65,23-30.9,23.09-24,.07-48.06.69-72-.29-8.33-.34-16.94-3.85-24.52-7.69-3.35-1.7-5.84-7.67-6.3-12-1.24-11.58-1.11-23.31-1.66-35-1.23-26.53,6.92-35,33.43-34.92-14.42-5.22-17.91-15.71-14.65-29.2C57.75,65.27,65,62.9,72.69,61.6c10.73-1.82,18.57,2.25,22.46,11.29,3.48-6.48,6.26-13.94,11-19.86,5.29-6.66,13.73-7.41,21.88-6.73,11.9,1,24.78,13.87,26.6,26.3s-6,24.12-20.66,31.85c4.55,0,9.1,0,13.65,0C164.14,104.52,169.71,109.29,172.09,125.59ZM116.6,103.68,97.13,85.31C96,93.22,90.87,99.48,82.84,103.68Zm10.57-34.42-2.75,0c-1.44,2.07-4.3,4.45-3.94,6.14.45,2.16,3.46,5.15,5.46,5.22,1.79.06,4.83-3.16,5.19-5.3C131.43,73.6,128.61,71.31,127.17,69.26Zm-51.44,20c2.2-3.27,4.21-5,4.22-6.67,0-1.31-2.5-3.65-3.91-3.67S71.9,81,71.83,82.32C71.74,84,73.68,85.84,75.73,89.24Z"/></svg>