<svg id="Layer_21" data-name="Layer 21" xmlns="http://www.w3.org/2000/svg" viewBox="0 0 250 250"><title>camera-shaker</title><path d="M73.64,184.17c1.37-1.17,2.57-3,4.13-3.38,4.59-1.17,9.36-1.59,14-2.7a4.91,4.91,0,0,0,3-3.12c.94-4.5,1.39-9.1,2.08-14-5.34-.33-10.49-1-15.62-.89-11.08.28-13.73-2.28-13.06-13.93,1.55.5,3,.94,4.48,1.42C94.32,154.74,116,162,137.72,169.08c2.95.95,4.47,2.31,4.3,5.34-.18,3.21,1.71,4.13,4.46,4.45,4.72.56,9.41,1.28,14.12,1.94,2,.28,4.09.57,4.08,3.36Z"/><path d="M65.34,133.83c.58-2.37,1-4.79,1.77-7.11,3.94-12.07,8-24.11,11.93-36.17,3-9.14,6.54-10.8,15.6-8C119.79,90.47,145,98.18,170.16,106c5.88,1.82,7.36,4.27,5.57,9.92q-7.38,23.31-15.12,46.51c-2.25,6.71-3.26,7.07-9.77,4.93q-34.07-11.21-68.1-22.49c-4.1-1.35-8.27-2.51-12.3-4A7.27,7.27,0,0,1,65.34,133.83Zm82.53,21.78c4.74.34,5.21-2.58,6-5,2.61-8,4.95-16,7.65-23.93,3.69-10.86,3.3-11.83-7.63-15.17L95.56,93.78c-4.68-1.42-5.77-.88-7.26,3.81-3.18,10-6.14,20.18-9.53,30.15-1.34,3.92-.55,5.64,3.45,6.89,20.08,6.29,40.08,12.81,60.12,19.24C144.52,154.57,146.71,155.25,147.87,155.61Z"/><path d="M199.14,135.18c-.13,17.78-5.47,31.28-21.08,39a12.38,12.38,0,0,1-1.56.75c-2.37.75-5.14,2.77-6.84-.27-.42-.77,2-3.64,3.55-4.92,13.63-10.91,20.73-24.74,19.69-42.46-.08-1.49,1.19-3.06,1.84-4.59,1.13,1.31,2.87,2.46,3.25,4A57.3,57.3,0,0,1,199.14,135.18Z"/><path d="M44.91,107c.42-19.38,11.26-34.68,27.91-39.35a13.93,13.93,0,0,1,5.06-.89c1.35.15,2.6,1.34,3.89,2.08-.85,1-1.52,2.28-2.59,2.79-8.3,4-15.51,9.38-20.88,17a47.61,47.61,0,0,0-8.23,21.13c-.24,1.72-1.5,3.3-2.29,4.94-1-1.7-2-3.35-2.82-5.12A6.88,6.88,0,0,1,44.91,107Z"/><path d="M171.19,100.21,133.68,88.54l0-.93,17-2.17c3.29-.41,6.57-.92,9.87-1.19,6.05-.51,8.46,1.33,9.59,7.38C170.65,94.28,170.81,97,171.19,100.21Z"/><path d="M37.17,92.51c-.55-1.47-1.49-2.92-1.58-4.42-.62-9.55,7.94-21.47,17.23-24,1.45-.39,3.16.2,4.75.34-.83,1.33-1.38,3-2.53,3.92-7.41,6-13.58,12.82-15.77,22.48a5.15,5.15,0,0,1-.81,1.41Z"/><path d="M211.48,150.55c-.86,8.18-2.6,17-11.48,22.36a9.6,9.6,0,0,1-3.07,1.53c-1,.16-2.05-.39-3.09-.62a7.66,7.66,0,0,1,.7-2.69c1.56-2.07,3.44-3.9,5-6a35.9,35.9,0,0,0,7.25-17.83c.18-1.58,1.39-3,2.13-4.54.85,1.64,1.76,3.26,2.53,4.94C211.67,148.22,211.48,148.88,211.48,150.55Z"/><path d="M64.62,112.87c-2.63-9.4-.79-15.15,5.5-17C68.29,101.53,66.56,106.87,64.62,112.87Z"/><path d="M175.59,142.94c.07,3.64,1.55,7.81-4.58,9.92l3.53-10.32Z"/></svg>