<svg id="Layer_21" data-name="Layer 21" xmlns="http://www.w3.org/2000/svg" viewBox="0 0 250 250"><title>fog</title><path d="M75.84,190.84c-1.27-1-2.54-2-3.82-2.94-14.27-10.83-16.24-30.21-4.43-43.65,1.07-1.21,2.06-2.5,3.1-3.75.92,1.33,1.85,2.64,2.76,4a16.35,16.35,0,0,0,25.69,1.69c-13.2,2-19.94.22-22-7a18.27,18.27,0,0,1,1.11-12c1.78-3.57,5.88-6,8.58-8.53-6.9.31-13.22,4.58-15.14,11.45-.94,3.35-.65,7-.92,10.6-2.39,1-5.13,1.54-7.1,3.07-3.42,2.65-6.43,2.05-9.95.42C40.2,137.89,32,123.63,33.9,109.08,35.74,94.74,48,82.24,62.51,80a43.91,43.91,0,0,1,5.33-.69c4.67-.11,8.47.2,10.18,6.22C79.93,92.26,85,97,92.62,100c-10.43-11.42-12.55-20.8-7.47-30.73,4.3-8.4,13.27-12.88,23.4-11.68,9.93,1.18,17.68,9,20.6,20.88l1.22-.17L128.55,64.8c6.78-6.46,24.78-8,37-1.21C177,70,183.71,79.66,184.76,93c.29,3.79.08,7.12-4.2,8.73-1,.37-1.68,1.47-2.46,2.6,6.47-3,13.17-4.09,19,.35a20.05,20.05,0,0,1,7,10c2.6,10.11-4.34,17.65-17,20,3.42,0,6.85-.16,10.25.05,2.06.13,4.57.23,6,1.4a25,25,0,0,1,7.47,29.18c-4.12,10.1-15.53,17.42-26.1,16.29-1.76-.19-3.51-2.07-4.92-3.51s-2.35-3.29-3.76-4.76c1,7.77-.45,11.79-4.94,13.43-5.28,1.93-9.12-.38-13.76-8.8,0,9.26-7.73,9.6-12.9,12.81h-14.7c-.95-.51-1.88-1.1-2.87-1.52-7-2.9-6.93-2.89-6-10a20.16,20.16,0,0,0,0-3.48l-15.6,15.05Zm80.22-74.43c7.63-3.21,11.45-10.59,9.95-18.13-1.59-8-9.31-14.1-17.77-14.08-7.6,0-14.82,5.41-16.12,12.08,10.83-7.89,19.22-8.91,25.44-3.09C163.26,98.52,162.89,106.35,156.06,116.41Zm-8,17.71c8.25,6.21,10.8,13.56,6.1,19.52a16.13,16.13,0,0,1-10.09,5.49c-3.54.36-7.36-2-10.72-3.08a15.72,15.72,0,0,0,18.88,7A14.82,14.82,0,0,0,162,146.82,15.21,15.21,0,0,0,148.05,134.12Z"/></svg>