<svg id="Layer_21" data-name="Layer 21" xmlns="http://www.w3.org/2000/svg" viewBox="0 0 250 250"><title>grade-and-effects</title><path d="M69.17,209.73c-.41-3.06-.68-6.16-1.26-9.19Q55.45,136.13,42.81,71.75c-1-4.88.06-7.41,5-8.34q44.54-8.22,89.07-16.56a3.28,3.28,0,0,1,1.12.2c-.4,8.75-3.43,12.56-11.61,14.3-22.27,4.77-44.55,9.48-67.78,14.42C65.35,110.24,72,144.41,78.74,179.21l106.05-18.72c-2.46-13-4.75-25.22-7.1-37.43-1-5-1.65-10.08-3.21-14.88-1.65-5.07.19-7.75,4.64-9.5l8.37-3.25c6.7,30.69,13.28,60.89,20,91.8L159,196.88q-30.09,6-60.19,12a5.66,5.66,0,0,0-1.51.84Z"/><path d="M148.9,47.72c6.09,20.41,19.7,32.4,41.74,37.82-22.7,5.46-36,18.41-41.34,40.36C143.87,104,130.53,91.26,108,85.61,129.37,80.06,142.84,67.93,148.9,47.72Z"/><path d="M142.94,134.08c-10.89,2.92-17.32,9.24-21.3,19.44-4-10.35-10.59-16.78-21.5-19.38,10.44-3.45,17.79-9.06,21.1-20.13C125.21,124.35,131.71,131,142.94,134.08Z"/><path d="M157.68,42.76l17.62-3C177.78,51,180.22,62,182.87,74.07,168.78,67.44,160.77,57.6,157.68,42.76Z"/><path d="M104.39,104.78,93,115.24,81.83,104.76,93.15,94.33Z"/></svg>