<svg id="Layer_21" data-name="Layer 21" xmlns="http://www.w3.org/2000/svg" viewBox="0 0 250 250"><title>light</title><path d="M167.08,124.72c-1.2,14.06-3.74,25.56-14.88,33.4-1.8,1.27-2.68,4.91-2.69,7.46,0,5.24-.88,9.66-5.42,13-1.08.79-1.47,3-1.52,4.61-.18,6,.1,12.09-.15,18.12-.24,5.51-3.37,9-8.86,9.44a96.41,96.41,0,0,1-16.12.08c-7.5-.64-10-3.68-10.11-11.14-.07-4.3-.17-8.59-.11-12.88.06-4-.11-7.49-3.09-10.93-1.79-2.06-1.74-5.92-2-9-.37-3.9-1-6.62-5.17-9.05-9.52-5.58-15.88-14.14-15.08-25.79.58-8.63,1.55-17.51,4.23-25.66C91.24,90.72,104.54,82,121,83.26a119.39,119.39,0,0,1,26.37,5.53c8.44,2.67,13.3,9.57,15.54,18C164.63,113.26,166,119.79,167.08,124.72ZM125,170c10.86,0,12.58-1.65,12.92-12.67,0-.16,0-.32,0-.48-.1-3.62,1-6.28,4.61-8,5.63-2.78,8.46-7.73,10.12-13.74,2.23-8.06-.29-15.37-2.48-22.85-1.5-5.12-4.49-9-9.49-10.53A90.35,90.35,0,0,0,125,98.08c-15.78-2-24.6,4.43-27.68,19.82-2.56,12.76-1.57,24.22,11.44,31.31,3.62,2,3.84,5.48,4,9.08C113.09,168.44,114.71,169.94,125,170Z"/><path d="M127.55,58.36a113,113,0,0,1-.7,11.36c-.2,1.33-1.92,2.43-2.95,3.64-1.08-1.14-2.93-2.19-3.09-3.45-.93-7-1.51-14.15-2.08-21.25-.25-3.17,1.48-5.46,4.55-5.55,3.49-.09,4.82,2.35,4.65,5.77-.16,3.15,0,6.32,0,9.48Z"/><path d="M195,127.52c-7.32-.55-13.5-.83-19.61-1.6-1.39-.18-2.57-2.06-3.84-3.15,1.24-1,2.38-2.61,3.72-2.79,6.27-.85,12.58-1.38,18.89-1.85,3.25-.24,5.83,1,5.66,4.73A4.59,4.59,0,0,1,195,127.52Z"/><path d="M184,82.42c2.25,2.35,4.39,3.64,4.88,5.38.43,1.54-.51,4.73-1.68,5.23a136.58,136.58,0,0,1-17.93,6.19c-2.44.65-4.5-2.31-2.76-3.83C171.81,90.78,177.77,87,184,82.42Z"/><path d="M57.15,166.22c-.93-.84-3.12-1.9-3.57-3.46s.14-4.59,1.35-5.45c5.18-3.67,10.72-6.83,16.22-10a3.2,3.2,0,0,1,3,.16c.63.59,1,2.48.59,3-4.6,5.19-9.36,10.24-14.17,15.24C60.12,166.12,59,166,57.15,166.22Z"/><path d="M147.71,82.31c-.77-2.78-2-4.69-1.53-6,2-5.35,4.37-10.58,6.84-15.73,1.3-2.7,3.55-4.31,6.59-2.51,2.89,1.71,3.08,4.2,1.27,6.92-3,4.51-5.94,9-9,13.48C151.1,79.57,149.89,80.33,147.71,82.31Z"/><path d="M80.65,94.5c-.47,2.89-1.8,4.52-4.55,3a138.24,138.24,0,0,1-15-9.2c-1.28-.94-2-4.68-1.14-6s4.73-2.33,5.88-1.51c4.88,3.5,9.26,7.7,13.77,11.71A6.35,6.35,0,0,1,80.65,94.5Z"/><path d="M56.08,127.79c-2-.86-4.48-1.28-5.84-2.75-.88-1-.84-4.33,0-5a11.53,11.53,0,0,1,6.58-2.14A63,63,0,0,1,69.11,119c1.48.28,2.69,2,4,3.14-1.33,1.13-2.51,3-4,3.26-4.16.87-8.45,1.11-12.68,1.6Z"/><path d="M188,163.16c-1.25,1.56-2.14,3.52-3.62,4.23-1.12.53-3.43-.06-4.48-1a130.18,130.18,0,0,1-11.22-10.94c-1-1.05-.68-3.21-1-4.86,1.44-.11,3.26-.85,4.23-.23,4.81,3,9.43,6.4,14,9.76C186.79,160.72,187.17,161.86,188,163.16Z"/><path d="M99.19,82.7c-2-2.15-3.09-3-3.77-4.16-2.42-4.09-4.66-8.28-7-12.39-1.72-3-.89-5.28,1.92-6.74s5.08-.08,6.11,2.59a137.59,137.59,0,0,1,4.91,14.87C101.67,78.22,100.23,80,99.19,82.7Z"/><path d="M120.73,127.79c-4.77,8.94-4.77,8.94-12.13,4.27l-2.76,7.24-1.46-.11a28.39,28.39,0,0,1-.72-4.43,46.2,46.2,0,0,1,.38-8.07c.25-1.54,1-3.44,2.23-4.2.7-.46,2.7.81,4,1.56a28.1,28.1,0,0,1,3.38,2.91c1.11-3.1,2-5.88,3.09-8.54,1.4-3.34,4-3.62,6-.66,1.3,1.92,2.29,4,3.83,6.82a42,42,0,0,1,2.53-5.21,31,31,0,0,1,3.33-3.57c1.26,1.23,2.92,2.25,3.69,3.74,1.6,3.08,2.72,6.4,4.21,10a23.84,23.84,0,0,1,2.66-2c1.21-.68,2.53-1.17,3.8-1.74a20.37,20.37,0,0,1-.83,4.25,28.5,28.5,0,0,1-3.17,5.85,7.35,7.35,0,0,1-3.75,3c-.7.15-2.16-1.89-2.84-3.17-1.19-2.22-2-4.62-3.36-7.7a28,28,0,0,1-2,3.54c-1.09,1.37-2.38,3.64-3.54,3.61-1.35,0-2.77-2-3.93-3.38A31.25,31.25,0,0,1,120.73,127.79Z"/></svg>