<svg id="Layer_21" data-name="Layer 21" xmlns="http://www.w3.org/2000/svg" viewBox="0 0 250 250"><title>ruler</title><path d="M80.55,206.06q-14.83-14.58-29.69-29.15c-3.13-3.06-6.36-6-10.3-9.75L172.45,39.73l37.49,35.51L81.65,206.06Zm-.16-21.88L188.63,76.83,171.4,58.91,161,68.65l12.34,10-6.08,5.71L157.14,72.44c-3.32,3.62-6.09,6.62-9.67,10.53l10,9c-1.4,2-2.62,3.77-4.49,6.48l-9.8-11.59L133.8,96l10.43,11.19-6.07,5.62-9.72-11.68-8.84,9,10.15,10.73-5.26,5.52-10.31-12.44-11,9.93,12.56,11-5,6.56c-4.31-5.14-7.84-9.34-11.94-14.21l-10,11.21L102.43,149l-7,6.47c-4-4.55-7.71-8.75-11.5-13.07l-8.36,9.19c3.55,3.72,7.31,7.66,11.35,11.91l-5.16,5.41L70.54,156.25l-9.46,9.55Z"/></svg>