<svg id="Layer_21" data-name="Layer 21" xmlns="http://www.w3.org/2000/svg" viewBox="0 0 250 250"><title>sun-and-sky</title><path d="M100,191.37c-.81-1.16-1.64-2.31-2.43-3.49a13.3,13.3,0,0,1,9.9-20.9c.93-.09,1.86-.12,2.89-.19a49.07,49.07,0,0,1,.82-5.93c1.4-5.38,4.76-10.07,10.08-10.64,5.65-.62,7.51-3.69,9.87-7.86,6.69-11.86,20.16-17.24,33.64-14,12.33,3,21.93,14.66,22.69,27.64.07,1.27.12,2.54.2,4.07,2.57-.14,5-.62,7.26-.34,7,.86,12,4.71,14.35,11.37s.83,12.72-4.2,17.81c-.77.79-1.49,1.63-2.24,2.45Z"/><path d="M95.37,153.71c-14.5-.31-24.41-7.74-29-21.11s-1.26-27.23,8.82-35.23c9.19-7.28,19.43-11.26,31.49-9,13,2.41,25.17,16.88,24,34.27-.11,1.58-1.52,3.09-2.35,4.62-4.38,8-9.41,15.18-19,17.72-1.93.51-3.8,2.62-5,4.46C102,153.25,98.73,154.38,95.37,153.71Z"/><path d="M126.35,60.47V86.35C120.29,83.83,115,81.79,110,79.4c-.89-.42-1.86-3-1.48-3.43,5.05-5.68,10.32-11.16,15.54-16.68Z"/><path d="M53.57,111.25,36.84,91.38a46.1,46.1,0,0,1,24.29,1.29c.68.22,1.44,2.3,1.13,3.13C60.34,101,58.13,106.05,56,111.16Z"/><path d="M92.36,77.32,74,84.59V59.15l1.48-1L92.86,75.26Z"/><path d="M85.77,162.42c-4.12,8.17-9.13,15.09-19.06,19.1a67.91,67.91,0,0,1,0-7.39c.63-4.95,1.5-9.87,2.27-14.81.57-3.64,2.45-4.63,5.74-2.84C78.42,158.48,82.1,160.44,85.77,162.42Z"/><path d="M141,115.44c-1.71-5.11-3.6-10.18-4.94-15.39-.26-1,1.63-3.64,2.62-3.69,6.85-.33,13.71-.18,20.57-.18l1,1.48q-8.49,9.32-17,18.61Z"/><path d="M34.28,140.47l20.35-14.88c1.83,5.87,3.41,10.37,4.51,15,.22.9-1.2,3-2.18,3.26-7.36,1.73-14.56.36-21.72-1Z"/></svg>