<svg id="Layer_21" data-name="Layer 21" xmlns="http://www.w3.org/2000/svg" viewBox="0 0 250 250"><title>wiper</title><path d="M97.88,166.13c-15.42,0-30.74-.32-46,.14-7.75.23-14.52-4.32-14.61-12.06-.29-25.67.11-51.34-.47-77C36.36,60,40.93,54.53,60.09,54.51c41.54,0,83.08-.72,124.63-1.15,5.06,0,10.12-.16,15.18-.26,8.9-.18,12.75,3.11,12.78,11.95q.15,45.54-.13,91.08c-.05,9.19-1.48,10.4-10.73,10.46-16,.09-32.11,0-48.16,0-1,0-2,.16-3,.24,1.9,9.42,2,9.44,10.69,10.32s17.67,2.28,26.54,2.65c5.42.23,6.53,2.62,5.85,7.44-1.3.1-2.66.28-4,.28q-63.92.09-127.82.14c-2.56,0-5.93.57-5.26-3.57.24-1.49,2.24-3.64,3.67-3.85,9-1.33,18-2.33,27-3.17C96,176.29,96.23,176.17,97.88,166.13Zm-1.19-49c.52-2.21.83-3.5,1.23-5.21,1.67,3.09,3.07,5.67,4.47,8.28-3.89,1.1-4.27,1.8-2.46,4.68,1.2,1.91,2.87,3.59,3.75,5.62,2.2,5.14,5.95,8.19,11.39,8.88,7.75,1,15.52,2.06,23.31,2.36,7.5.28,15.33-5.19,17.16-11.31l-14.06,7.47-.44-1,4.13-6.53-1-1.08c-4.46,2.12-8.83,4.46-13.39,6.32-5,2-10,2.16-14.46-.59,4.88-1.25,9.87-2.5,14.84-3.83,1.67-.45,3.25-1.42,4.92-1.59,6-.59,19.33-8.94,20.73-14.52,1.36-5.39,1.12-11.24,1.13-16.89,0-1.46-1.64-2.92-2.53-4.37l-1.1.41v18.23l-.84,0c-.41-1.92-.81-3.84-1.29-6.11l-4.52,2.49c.55-2.36,1-3.77,1.19-5.22.64-5,4.62-10.1.79-14.9a67.28,67.28,0,0,0-11.6-10.88c-1.53-1.19-4.31-.94-6.53-1s-4.24.72-6.22.36c-8.23-1.48-17.45,2.23-21.32,9l1.84.78c-3.27,4.24-7.18,8.21-9.73,12.91C93.31,105.09,93.09,110.85,96.69,117.16Zm-4-1.35-1.78,1.31c0,2-.46,4.19.07,6.06,3.23,11.33,10.43,19.44,21,24.42a16.18,16.18,0,0,0,7.6,1.54c2.9-.19,5.72-1.48,8.58-2.29l-.1-2C110.92,141.91,95,137.38,92.69,115.81ZM112,73.36c-9.52-1.13-18.65,6.57-20.64,16.16a18.29,18.29,0,0,1-2.6,5.84c-2.71,4.32-4.06,8.71-2.08,13.67a165.54,165.54,0,0,0,10-16.13c.27-.48-.09-1.28,0-1.93.09-1.44-.29-3.33.48-4.24A76.47,76.47,0,0,1,104.83,79C106.93,77.16,109.25,75.53,112,73.36Zm8.54-1.24c5.32.88,9.91,1.13,14.16,2.47,4,1.27,7.66,3.68,12.52,6.11C142.19,70.58,129.42,66.67,120.57,72.12Zm42.82,34.73c-3.34,6.84-6.32,13-9.51,19.52C162.29,124.8,166.93,115.58,163.39,106.85Z"/><path d="M142.79,90.17l-15.1-8.12C132.1,80.32,137.76,83.16,142.79,90.17Z"/></svg>