<svg id="Layer_24" data-name="Layer 24" xmlns="http://www.w3.org/2000/svg" viewBox="0 0 250 250"><title>AND-gate</title><path d="M65.59,162.83H36.73V144.62h28c-.71-12.66-1.39-24.69-2.11-37.49H36.87V89.42H61.63c.44-6,.78-11.4,1.26-16.82.41-4.69,3.18-6.94,7.8-7.16C87,64.67,103.31,64,119.62,63.1c34.51-1.8,65.5,24.06,72.32,52.92h20.79v18.21c-5.39,0-10.82.19-16.22-.06-3.42-.17-4.74,1.07-5.51,4.41-4.19,18.34-15.11,32.4-29.76,43.39-4.35,3.26-10.89,5-16.44,5-24,.1-48-.73-72-1.12-5.53-.09-7.78-2.45-7.29-8.06C65.91,173.15,65.59,168.43,65.59,162.83Z"/></svg>