<svg id="Layer_24" data-name="Layer 24" xmlns="http://www.w3.org/2000/svg" viewBox="0 0 250 250"><title>calculator</title><path d="M171.93,117.57c-11.09-.64-21-2.44-29.22-9.44C127.19,94.83,125.66,74.07,139,58.6c9.39-10.86,21.7-15.8,35.66-16,17.82-.27,33.72,16.11,34.87,35,1.27,20.86-10.29,36.16-29.42,38.91C177.16,116.92,174.18,117.28,171.93,117.57Zm-19-41.63c.19,3.66.34,6.51.52,10L187,84.27c-.25-3.67-.44-6.54-.67-10Z"/><path d="M120.83,170.92c-.14,20-10.78,31.28-33.5,35.44-26.46,4.83-47.56-9.76-49-33.92-1.34-21.67,13.95-39.49,36.8-42.09a60.7,60.7,0,0,1,20,.72C113.13,135.17,121,147.92,120.83,170.92ZM53.2,172.41h51.85V164H53.2Zm27.19-14.2c2.16-2.65,5.76-5.11,6.16-8,.69-5-3.56-7.16-8.16-7.25-4.32-.08-6.93,2.2-6.91,6.83C71.5,154.67,74.1,156.92,80.39,158.21Zm-.82,38.1c3.53-4.29,6.72-6.43,7.06-8.95.56-4.18-1.93-7.62-6.91-7.3-4,.26-7.73,2.11-6.82,6.67C73.45,189.51,76.33,191.83,79.57,196.31Z"/><path d="M78.82,40.83c18.47.42,40.19,22.17,40,40-.24,19.6-20.31,40.44-39.82,40.64-22.56.24-49.61-24.81-34.85-52.1A127.61,127.61,0,0,1,56.6,50.24C62.12,43.37,69.93,40.47,78.82,40.83Zm5.45,60.65,1.51-15.61h15.83l-1-10.21H85.93c-.33-6.13-.61-11.38-.92-17.13l-10,.76V76.11H56.67v9.2l18,.92v14.32Z"/><path d="M175.4,202.78c-21.48-.06-31.28-7.25-35.48-22.3a103.88,103.88,0,0,1-3.33-17.74c-1.44-15,5-26.08,17.67-33.7,12-7.22,23.91-5.28,34.69,2.14,15.62,10.74,23.9,25.95,22.07,45.16a22.81,22.81,0,0,1-7.57,14.06C193.78,198.25,182.26,202.62,175.4,202.78ZM156,159.92l33-1.78v-8.4H156Zm-1.79,18.35,39.77-1.85c-1.21-4-1.91-6.36-2.52-8.38l-36.23,1.74C154.91,172.1,154.64,174.36,154.17,178.27Z"/></svg>