<svg id="Layer_24" data-name="Layer 24" xmlns="http://www.w3.org/2000/svg" viewBox="0 0 250 250"><title>combiner</title><path d="M106,125.4c-6-9.63-12.43-19.4-18.27-29.5-4-6.87-9.38-10-17.27-9.79-9,.26-18.09.06-28.14.06-.76-7.89-1.61-16.78-2.52-26.18,16.29-2,31.93-3.58,47.47.09,8.38,2,14.72,7.61,19.51,14.58,5.15,7.47,9.86,15.26,14.51,23.07,4.93,8.29,11.51,13,21.67,12.67,8.57-.22,17.17.78,27.12,1.31l-7.61-8.85,14.81-14.15,35.2,36.91c-12.75,11.76-25.43,23.44-38.37,35.36l-11.92-13.1,7.57-8.1c-9.47,0-17.73-.12-26,0-11.45.2-19.18,6-24.46,16A208,208,0,0,1,108,174.41c-7.28,10.81-17,18-30.59,17.72-13.23-.22-26.45-1.09-40.65-1.72,1.62-10.54,3-19.41,4.42-28.82,6.08.82,11.79,1.63,17.51,2.33,2.8.34,5.64.41,8.45.73,9.89,1.13,16.83-2.45,21.7-11.54C94,143.39,100.42,134.3,106,125.4Z"/></svg>