<svg id="Layer_24" data-name="Layer 24" xmlns="http://www.w3.org/2000/svg" viewBox="0 0 250 250"><title>counter</title><path d="M127.43,86.53c7.57-13.64,7.46-13.47,19.77-5.06a199.43,199.43,0,0,0,19.22,11.3c3.47,1.83,4.26,3.65,2.1,6.94-2,3.08-3.83,6.32-5.91,9.8a45.74,45.74,0,0,0-5.92-1.84,40.57,40.57,0,0,0-5.95-.22c.79,1.68,1.27,3.64,2.43,5,9,10.47,14.61,22.54,13.27,36.31-2.32,23.94-12.6,44.16-34.89,54.94-21.6,10.45-43,7-61.78-8-20.91-16.66-27.22-44.24-16.53-69.27,10.5-24.6,28.87-37.46,53.44-36.11,7.81.43,15.47,3.55,23.22,5.3a22.88,22.88,0,0,0,4.9,0c-.69-1.48-1.11-3.18-2.13-4.37A53.89,53.89,0,0,0,127.43,86.53Zm-20.5,108.71c24.06-.07,45.89-22.58,45.9-47.34,0-24.46-21-43.79-47.66-43.86C81.8,104,61.32,125.66,61.47,150.3,61.62,173.43,83.75,195.31,106.93,195.24Z"/><path d="M184.32,52.68c-1.8,2.59-2.88,4.81-4.54,6.44-4.62,4.55-9.36,9-14.36,13.14-1.17,1-3.59.4-5.44.54.27-1.5.11-3.29.89-4.44,4.17-6.14,8.39-12.27,13-18a7.47,7.47,0,0,1,6-2.29C181.52,48.29,182.72,50.87,184.32,52.68Z"/><path d="M152.44,42.87c-.9,7.73-1.54,14.59-2.61,21.39-.22,1.45-2,2.67-3,4-.86-1.33-2.29-2.58-2.49-4-.93-6.81-1.55-13.67-2.23-20.52-.37-3.78,1.11-6.27,5.17-6.29S152.66,40.05,152.44,42.87Z"/><path d="M186.12,88.74c-3,0-6,.36-8.88-.15-1.35-.24-2.42-2.15-3.61-3.31,1.12-1,2.09-2.53,3.38-2.87,5.72-1.52,11.57-2.5,17.27-4,3.82-1,6.36.08,7.35,3.7,1.09,4-1.5,6.06-5,6.51s-7,.09-10.54.09Z"/><path d="M106.92,186.38c-18.8-.1-36.36-18-36.22-37,.13-19.78,16.3-36.47,35.09-36.24,21.21.26,38.13,15.62,38.08,34.56C143.81,167.72,125.9,186.47,106.92,186.38Zm-5.8-49.29c-.05-7.69-5.42-11-11.07-7.71a18.65,18.65,0,0,0-9.47,16,7,7,0,0,0,11,6.05C96.82,147.77,100.44,142.58,101.12,137.09Zm17.4,10c-.08-6.81-5.63-10.15-10.84-7.16a18.7,18.7,0,0,0-9.54,14.94c-.22,2.17,1,5.63,2.66,6.56,2.23,1.25,6.35,1.83,8.19.56C114.26,158.31,118,153.13,118.52,147.05Zm14.65,3.65c-2.84-.65-4.73-1.4-6.63-1.42-1.6,0-3.2.84-4.8,1.31,1.18,1.14,2.36,2.28,3.82,3.71-2.53,4.14-5.36,8.51-7.87,13-.58,1.06-.07,2.71-.07,4.09,1.16-.56,2.78-.8,3.39-1.72C124.93,163.86,128.64,157.85,133.17,150.7Z"/><path d="M86.55,148.37c-.42-.83-1.94-2.58-1.55-3.28a113.05,113.05,0,0,1,7.9-12.21c.26-.36,3.32.4,3.81,1.31C98.51,137.62,91.34,148.47,86.55,148.37Z"/><path d="M112.44,142.77c.53,1,2.23,2.95,1.81,3.74a91.58,91.58,0,0,1-7.66,11.83c-.31.41-3.62-.38-4.09-1.33C101,153.89,108,143.14,112.44,142.77Z"/></svg>