<svg id="Layer_24" data-name="Layer 24" xmlns="http://www.w3.org/2000/svg" viewBox="0 0 250 250"><title>exclusive-gate</title><path d="M168.67,207.65V129.51l-1.95-.92c-7.83,7-15.8,13.89-23.38,21.17-1.38,1.33-1.52,4.28-1.66,6.52-1,16.44-1.92,32.89-2.91,50.39H106V172.48c-8.26,4.59-15.73,8.41-22.79,12.9-1.64,1.05-2.47,4.3-2.62,6.6-.37,5.59-.12,11.21-.12,17.75l-34.11-2.89c0-16.17-.14-31.92,0-47.67.29-27.13,1-54.27,1-81.4,0-6.67.78-12.37,4.9-17.77S59.89,48.66,64,42.5C73.89,52,83.14,60.82,82.09,76.41c-1.22,18.1-.64,36.32-.82,54.49,0,3.76,0,7.52,0,13.19,9.34-5.46,17.65-10.12,25.67-15.25,1.25-.8,1.58-3.75,1.57-5.69-.13-19.08-.66-38.17-.48-57.24,0-3.85,1.91-8.08,4.06-11.4,3.43-5.3,7.8-10,11.65-14.77,20.75,15.5,21.1,37.35,18.91,61.55,8.55-6.49,16.12-11.87,23.16-17.87,1.49-1.27,1.77-5,1.32-7.3-3.05-15.85,5.31-26.29,16.31-35.58a9.34,9.34,0,0,1,1.78-.81c4.82,5.18,9.86,10.43,14.67,15.88a7.56,7.56,0,0,1,1.52,4.51q1,72.9,1.78,145.81a6.76,6.76,0,0,1-.56,1.72Z"/></svg>