<svg id="Layer_24" data-name="Layer 24" xmlns="http://www.w3.org/2000/svg" viewBox="0 0 250 250"><title>microchip</title><path d="M107.14,209.73c-5.41-7.37-9.37-15.13-7.38-24.75,1.43-6.87,4.47-12.8,10.44-16.57,3.83-2.41,6.18-4.76,5.12-9.7-1.12-5.16-3.93-8.41-8.92-9.72-3.72-1-7.51-1.73-11.3-2.49-14-2.79-22.62-11-26.16-24.92a11.73,11.73,0,0,0-4.71-6.36c-11.12-7-16.78-19.86-13.61-32A28.26,28.26,0,0,1,77.74,61.82c13.33-.16,24.36,7.8,28,20.18,3.67,12.61-1.36,25.48-12.77,32.72-.68.42-1.32.91-2.25,1.56,1.3,6.51,6,9,11.77,9.14,14.64.3,29.28.08,43.93.07,5.57-5.59,12-10.58,16.32-17,2.14-3.22.79-9.19,0-13.75-.38-2.3-2.57-4.78-4.62-6.25-12.55-9-15.3-26-5.93-38.29a26.61,26.61,0,0,1,37.49-4.8c11.94,9.51,14.71,28.39,3.4,38.23-8.05,7-8.24,14.17-8,22.91.13,3.87.76,6.33,4.28,9,8.64,6.49,12.17,15.78,9.91,26.48-2.3,10.92-9.28,17.8-20.18,20.53-10.3,2.59-19.66,0-25.58-8.38-4.82-6.85-10.27-6.59-17.05-5.67.4,5.36.7,10.58,1.26,15.76a5.28,5.28,0,0,0,1.94,2.83c15.7,13.65,16.92,26.38,4.06,42.7ZM70.33,90.39c.72,4.77,3.43,7.41,8.09,7.57a7.65,7.65,0,0,0,7.7-8.32c-.61-4.7-3.54-7.17-8.29-7C72.88,82.78,70.81,85.91,70.33,90.39Zm110.29,46.07c-.57-4.51-3-7.29-7.5-7.11s-7.23,3-7.15,7.4,2.93,7,7.43,7S180.07,140.69,180.62,136.46Zm0-69.85c-.29-4.41-2.56-7-7.17-7.21s-7.38,2.44-7.54,6.86,2.88,7.33,7.14,7.51S180.12,71.29,180.62,66.61Zm-54.83,116c-4.45.42-7.31,2.66-7.21,7.27s3.14,7,7.52,6.9c4.06-.13,7-2.46,6.92-6.86S130.32,183,125.79,182.62Z"/></svg>