<svg id="Layer_24" data-name="Layer 24" xmlns="http://www.w3.org/2000/svg" viewBox="0 0 250 250"><title>node</title><path d="M120.28,187.1c-9.33-3.73-18.22-8.17-25.56-15.27-4.14-4-4.21-3.93-.09-8,3-2.92,6-5.83,9.19-8.89a11.09,11.09,0,0,1,1.88,1.45c10.82,12.18,24.28,15.18,39.6,11.14a81.7,81.7,0,0,0,13.38-4.87c2.41-1.12,3.83-1,5.34,1,2.88,3.86,5.82,7.66,9,11.79-4.83,4.61-12.86,7.77-21.51,9.75-2.58.59-5.17,1.2-7.75,1.81Z"/><path d="M79.19,117.68c-4.12-3.92-7.21-7-10.42-9.89-2.21-2-2.55-3.84-.1-6,3.27-2.82,6.43-5.77,10-9,9.77,10.12,20,20.65,30.12,31.21,2.36,2.45,1.87,4.79-.41,7.06-9.46,9.41-19,18.79-28.3,28.31-1.88,1.91-3,1.72-4.7-.1-11.1-11.92-10.77-7.29-.66-19.09.77-.9,1.56-1.76,3-3.34-3.77-.18-6.82-.44-9.86-.45-8.85,0-17.7,0-26.55.19-3.55.08-5.41-1-4.84-4.85a28.57,28.57,0,0,0,.14-4c0-11.2-.45-9.92,10.45-10.05C57.33,117.58,67.63,117.68,79.19,117.68Z"/><path d="M180.17,136.53c-10.73,0-21.47-.13-32.21,0-8.23.13-8.3.3-8-7.81.47-12.11-1.71-10.91,11.27-11.06,10-.12,20.06,0,31,0-3.74-3.71-6.76-6.9-10-9.86-2.47-2.25-2.47-4.12,0-6.31,3.14-2.77,6.16-5.68,9.53-8.82,9.87,10.2,20.09,20.72,30.25,31.3,2.47,2.57,1.91,5-.52,7.45-9.38,9.29-18.74,18.58-28,28-1.83,1.86-3,1.88-4.74,0-11.53-12.36-10.69-7.32-.5-19.39.66-.79,1.41-1.52,2.11-2.27Z"/><path d="M173.17,81.61,159.83,93.77c-29.58-18.11-34.06-18-59,2.58L88.66,83.45C107,56.86,148.71,55.9,173.17,81.61Z"/></svg>