<svg id="Layer_24" data-name="Layer 24" xmlns="http://www.w3.org/2000/svg" viewBox="0 0 250 250"><title>NOT-gate</title><path d="M62.31,132.12H37V117.68H62.43c-.49-6.08-1.23-11.47-1.28-16.86-.07-6.52-.26-13.17.85-19.55,1.48-8.43,7.2-11.49,14.94-7.9,9.22,4.28,18,9.46,26.89,14.51,14.35,8.2,28.59,16.61,43.13,25.08,4.68-6.9,10.91-11.49,19.67-11.71,9.63-.25,16.51,4.08,20.17,12.9,1.21,2.94,2.68,3.71,5.62,3.62,6.72-.2,13.45-.06,20.58-.06V132c-7.29,0-14.51-.15-21.72.11-1.59.06-3.88,1.15-4.58,2.45-9.64,18-26.58,19.07-38.17,2.22-.3-.44-.66-.85-1.42-1.82-1.59,1.06-3.19,2.08-4.76,3.17a433.4,433.4,0,0,1-66.74,38.24c-7.8,3.58-10.82,1.83-11.24-6.67-.59-12-1-24-1.52-36A6.84,6.84,0,0,0,62.31,132.12Z"/></svg>