<svg id="Layer_24" data-name="Layer 24" xmlns="http://www.w3.org/2000/svg" viewBox="0 0 250 250"><title>OR-gate</title><path d="M64.63,164.05l-26.18-1.23V144.68h35c3.58-12.44,3.88-24.4.24-36.31-.37-1.22-3.22-2.33-4.94-2.37-9.82-.22-19.65-.11-30-.11V87.57h28c-2.52-5.2-4.76-9.36-6.61-13.69-2.65-6.2-1.29-8.3,5.26-9.6,18.11-3.61,35.46.16,52.35,6,24.71,8.61,46.24,22.24,63.33,42.45,1.32,1.56,4.23,2.39,6.44,2.47,7.88.29,15.78.12,24.09.12V134c-7.52,0-15,.19-22.43-.09-3.55-.13-5.3,1.29-7.41,4-4.08,5.32-8.38,10.82-13.66,14.83-28.34,21.46-60,34-96,34.32a97.39,97.39,0,0,1-11.57-.72c-4.44-.5-5.92-3.21-3.89-7.33C59,174.26,61.66,169.58,64.63,164.05Z"/></svg>