<svg id="Layer_24" data-name="Layer 24" xmlns="http://www.w3.org/2000/svg" viewBox="0 0 250 250"><title>randomiser</title><path d="M107,210c-1.82-1.13-4.33-2.12-6.09-3.86-19-18.79-38.12-37.56-56.76-56.76-2.21-2.27-3.32-7.46-2.44-10.59,6.32-22.56,13.36-44.92,20-67.39,1.47-5,4.44-7.72,9.31-9.28,21.65-6.92,43.27-13.91,64.79-21.23,5.64-1.92,9.57-.72,13.6,3.37q27,27.37,54.41,54.42c4.41,4.35,5.9,8.7,3.86,14.83-7.06,21.18-13.83,42.46-20.49,63.77-1.67,5.33-4.57,8.53-10,10.24-21.48,6.71-42.84,13.79-64.25,20.72C111.24,208.78,109.55,209.24,107,210ZM47.65,142.21l.76,2.06a33.22,33.22,0,0,0,5.32-.7c18.8-5.61,37.68-11,56.32-17.16,5-1.65,7.94-.77,11.55,2.63,16.09,15.15,32.41,30.06,48.74,45,1.8,1.64,4.18,2.64,6.29,3.94l1.53-1.94a56.93,56.93,0,0,0-4.32-6c-15.15-16.38-30.3-32.77-45.66-49-3-3.13-3.53-5.74-2.19-9.91,5.86-18.31,11.31-36.75,16.76-55.18.7-2.4.56-5,.81-7.57l-2.17-.54a35.76,35.76,0,0,0-2.81,4.84c-7.34,18.72-14.77,37.41-21.74,56.27-1.63,4.41-4,6.59-8.33,8.21C90.12,124,71.88,131.26,53.64,138.52,51.49,139.37,49.64,141,47.65,142.21ZM170.17,90.68c-3.62-6.25-6.19-12.62-10.46-17.49s-10.41-2.5-11.63,4a20.76,20.76,0,0,0,6,19.39c2.21,2.13,6.64,4.22,9,3.36C165.81,99,167.29,94.74,170.17,90.68Zm16.15,52.78c-3.5-6-6-12.17-10.21-16.81-4.64-5.11-11.84-2.44-11.65,4.41.18,6.21,2.57,12.77,5.57,18.31,1.35,2.49,6.95,4.44,9.93,3.73C182.38,152.53,183.76,147.61,186.32,143.46ZM84.12,99.78c7.52.08,15.2-7.54,15-14.54C99,80.47,96.28,78,91.54,77.92c-6.9-.13-14.23,6.92-14.41,13.81C77,96.83,79.52,99.51,84.12,99.78Zm32.41,78.72c3.71-2.24,8.47-3.52,9.22-6s-1.79-7.52-4.3-9c-4.36-2.48-9.75-3.54-14.84-4.13-1.93-.23-5.31,2.06-6,4s.42,5.63,2,6.89C106.64,173.39,111.41,175.56,116.53,178.5Zm-11.06.19c-3.27,2.4-7.26,3.86-8.14,6.4-.74,2.17,1.36,6.88,3.53,8.13A39.87,39.87,0,0,0,115.54,198c2.28.29,6.09-2.12,7.11-4.29.8-1.71-.89-5.92-2.75-7.28C115.79,183.38,110.88,181.47,105.47,178.69ZM120,157c3.85-2.63,8.53-4.18,9-6.57.53-2.67-2-7.61-4.53-8.87a35.06,35.06,0,0,0-15.5-3.54c-5.73.05-7.88,5.84-3.62,9.82C109.24,151.5,114.56,153.7,120,157Z"/></svg>