<svg id="Layer_24" data-name="Layer 24" xmlns="http://www.w3.org/2000/svg" viewBox="0 0 250 250"><title>selector</title><path d="M148,50.36c14.81,0,29.63.3,44.43-.13,6.35-.19,10.83,2.29,13,7.57a42.55,42.55,0,0,1,3.46,16.06c-.11,9-4.86,13.7-14,13.89-30.59.61-61.19,1-91.8,1-10.85,0-19.14-8.56-20.21-19.26s6.33-18.76,18.29-19C116.74,50.08,132.35,50.36,148,50.36Z"/><path d="M146.91,199.78c-16.81-.86-33.41-1.44-50-2.65-10.87-.79-17-7.43-17.58-17.63-.55-10,6.1-19.57,16.14-20.79,13.08-1.57,26.32-2.12,39.5-2.39q28.22-.58,56.46-.06c15.16.26,23.64,10.55,21.09,24.71-1.68,9.33-7.18,15.43-16.68,16.21C179.53,198.52,163.12,199,146.91,199.78Zm.75-29.13v1.41c-14.61,0-29.21,0-43.82,0-2,0-4.35,0-5.84,1-2.06,1.4-3.46,3.78-5.15,5.74,1.91,1.3,3.73,3.57,5.73,3.75,11.76,1,23.56,2.16,35.33,2.1,19.8-.1,39.6-1.07,59.4-1.68,3.88-.12,5.81-2.2,6-6,.19-4.22-2.48-5.55-6-5.92a65.8,65.8,0,0,0-6.59-.34C173.69,170.63,160.67,170.65,147.66,170.65Z"/><path d="M147.45,144.53c-15.4,0-30.85.75-46.18-.22-14-.89-22.39-13.86-19.42-27.63,2.29-10.63,8.7-15.44,21-15.53,24.61-.18,49.22-.25,73.84-.48,5,0,10-.66,15-.93,7.11-.38,12.51,2.59,15.72,8.89a32.4,32.4,0,0,1,2,25.07c-1.81,5.82-6.51,8.85-12.17,9.28-16.53,1.23-33.09,2-49.65,2.89Zm49.69-15.68c0-3,.11-5,0-6.93-.47-7-1.47-7.74-8.43-7.09-4.18.39-8.39.5-12.59.53q-36.61.3-73.24.52c-3.73,0-7.52.27-7.84,5.28s2.31,7.89,7.13,8.73a40.16,40.16,0,0,0,6.57.53c21.41,0,42.83.15,64.24,0C180.87,130.29,188.78,129.4,197.14,128.85Z"/><path d="M70.1,70.07,39.49,90c-.92-12.53-1.9-23.79-2.48-35.08-.19-3.85,2.08-5.89,5.79-3.45C51.63,57.28,60.27,63.35,70.1,70.07Z"/></svg>