<svg id="Layer_24" data-name="Layer 24" xmlns="http://www.w3.org/2000/svg" viewBox="0 0 250 250"><title>signal-manipulator</title><path d="M63.08,187.4c15.27,0,29.78,0,44.29,0,29.58-.12,59.15-.6,88.72-.36,17.41.14,13.63-.44,13.27,13.74-.21,8.16-.83,8.81-9,8.79-30-.05-60-.41-90-.38-21.21,0-42.42.34-63.63.81-4.9.11-6.73-1.08-6.69-6.36.39-51.21.53-102.43.72-153.65,0-10.32,0-10.32,10-9.81,12.21.62,12.24.69,12.25,13q0,63.35.1,126.67Z"/><path d="M99.73,108.46c-7.94,7.55-8,15.73-9.88,24.14l-17.39-1.13c.63-12.13,2.88-23.17,10.43-32.21,10.15-12.15,26.53-10.32,33,4.11,3.83,8.49,5.3,18,8,27,2,6.6,4.26,13.12,6.41,19.67l2.92,0c1.16-2.95,2.91-5.82,3.4-8.88,2.72-17.15,4.94-34.38,7.78-51.51a97.82,97.82,0,0,1,5.23-19.15c2.72-7,7.9-11.65,16-11.82S180.06,62,183.5,69.14c2.67,5.54,4.19,11.65,6,17.58,2.25,7.33,4.27,14.74,6.59,22.85-3.09,3.34-6.86,7.42-11.25,12.15-12.45-12.35-10.52-30.08-19-44.25-1.2,4.82-2.82,9.59-3.54,14.49-2.24,15.28-3.8,30.66-6.33,45.89a63.3,63.3,0,0,1-6.09,18.84c-8.08,15.28-26.24,15.95-35.07,1-4-6.84-5.94-15.06-8.28-22.81C104.09,126.8,102.27,118.48,99.73,108.46Z"/></svg>