<svg id="Layer_24" data-name="Layer 24" xmlns="http://www.w3.org/2000/svg" viewBox="0 0 250 250"><title>timer</title><path d="M104.39,210c-12.89-3.89-25.06-9.18-35.66-17.75-41.26-33.39-40.4-99.44,1.83-131.82,11.45-8.78,23.59-16.72,38-19.11C147.54,34.87,186.73,52,203.68,93a102.88,102.88,0,0,1,7.9,44.12c-1.33,32.19-17.19,54-47.24,65.06C155,205.65,145,207.44,135.28,210Zm13.24-23.17c9.39-1.51,18.94-2.4,28.15-4.68,24-5.93,36.46-21,36.48-45.75a122.24,122.24,0,0,0-4.55-34.17c-9.43-32-40.63-41.1-63.41-34.32C69.66,81.2,54.37,117.46,71.87,159.75,79.27,177.63,98.08,187.58,117.63,186.83Z"/><path d="M123.9,144c-5.37,6.72-5.92,6.57-9.61-1.23-.78-1.65-2.45-3-3.89-4.19-1-.82-2.46-1-3.3-1.92-1.81-1.88-3.35-4-5-6.07,2.12-1.09,4.24-2.22,6.39-3.26A5.62,5.62,0,0,1,110,127c0-9.5-.25-18.63.11-27.73a37.69,37.69,0,0,1,2.53-12.3c.93-2.36,3.76-4,5.74-5.91,1.91,2,5.21,3.78,5.5,6,1.54,11.57,2.34,23.24,3.32,34.88a39.48,39.48,0,0,1-.23,5.34c8.87,1.9,17.47,3.48,25.92,5.67A54.85,54.85,0,0,1,166,138.22c1.88,1.07,3.78,4,3.78,6.08,0,3.65-2.78,6.06-6.63,5.78-7.84-.58-15.68-1.27-23.45-2.4C134.51,146.92,129.41,145.31,123.9,144Z"/></svg>