<svg id="Layer_24" data-name="Layer 24" xmlns="http://www.w3.org/2000/svg" viewBox="0 0 250 250"><title>variable-modifier</title><path d="M121.91,196.14c-11.48-.22-23-.5-34.43-.66-5.91-.08-11.82.06-17.73.13-2.57,0-4.13-.79-4.14-3.71-.08-20.54-.22-41.07-.31-61.61a10.16,10.16,0,0,1,.48-2H79.33v53h87.35v-22L181,160.4c0,10.55.14,20.63-.14,30.71,0,1.7-1.86,3.36-2.86,5Z"/><path d="M172.18,106.05c-.27-5.92-.53-11.59-.85-18.42-8.51,0-16.71.09-24.9,0-12.12-.17-24.24-.6-36.36-.66-3.31,0-4.56-1.6-4.73-4.36-.21-3.24,0-6.51,0-10.5l83.51,2.3c.51,14.36,1,28.1,1.5,42.3H179.51v14.08H165.85V116.61H93c1.65-3.07,3-6.16,4.89-8.8.75-1,2.86-1.46,4.36-1.46,22.24-.08,44.47,0,66.71,0C169.86,106.31,170.76,106.17,172.18,106.05Z"/><path d="M46,73.7l7.34-7.91c-4.2-6.6-3.83-7.59,4.23-10.14l3.25,6.62c4.85-1.14,11,0,10.5-8.41l9.56,2.62C76.4,63,80.63,66.76,85,70.7l6.24-3.84,4.35,9c-6.7,4.1-6.7,4.1-5.35,12.42l6.6,1.61c-.43,2.62-.84,5.15-1.37,8.42-6.61-2.52-10.57.69-13.42,6.49.89,1.38,2,3.18,3.42,5.3L78,115.42l-3.69-7.09c-8.92.54-8.92.54-11.25,7.66L55,113.5l2.22-6.22c-1.51-1-3.09-1.86-4.54-3s-2.53-2.23-3.83-3.38l-5.51,4-4.51-8.91c9.48-1.9,4.6-8.31,5.28-13C35.85,80.32,35.68,79.86,40,72ZM76.13,85.57c.21-5.74-2.77-9-8.51-9.32S58.29,79,58,84.43c-.3,5.31,3.67,10.5,8.23,10.79C72.21,95.59,75.88,92,76.13,85.57Z"/><path d="M195.21,164.38c-1.56-2-2.81-3.59-4-5.19-.46-.6-.89-1.22-1.49-2.06l6.09-7.13h-32c-.81-10.46-.81-10.52,8.5-10.63,7.6-.09,15.2,0,23.84,0l-6.56-7.09,6-6.52-.76,1.31c5.81,5.12,11.72,10.14,17.33,15.48.8.76.83,3.69,0,4.54C207.07,152.67,201.6,158,195.21,164.38Z"/><path d="M130.32,167.14c-2.6-4-4.93-7.62-7.78-12l-6.2,12.18-5.92-2.73c2.09-4.14,3.75-8,5.91-11.54,1.84-3,2.14-5.46-.17-8.4-2-2.53-3.43-5.51-5.28-8.57l5.15-3.3,6.77,10,6.08-10c5.47,1.74,6.23,2.57,3.33,6.53-5.68,7.73-5.22,14.49,1.47,21.13a15.68,15.68,0,0,1,1.83,3.13Z"/><path d="M102.74,128.17c.38,2.46,1.31,4.36.74,5.5-7.41,14.77-7.34,20.18,1.07,35.11l-3,3.22C88.66,161.27,88.76,140.5,102.74,128.17Z"/><path d="M143,171.92c-2.27-1.18-2.82-2.28-1.32-5,6.5-11.74,7.93-23.5-1.8-34.93l3-3.25C157.82,141.66,154.89,160.47,143,171.92Z"/></svg>