<svg id="Layer_24" data-name="Layer 24" xmlns="http://www.w3.org/2000/svg" viewBox="0 0 250 250"><title>variable</title><path d="M48.42,105.14c-9-3.11-9.61-3.88-10.26-13.18-.4-5.87-1.06-11.74-1.15-17.62-.21-13.82,3.41-17.75,17.05-17.91,18.19-.22,36.4-.29,54.59,0,23.37.44,46.72,1.35,70.08,2.08.69,0,1.37.2,2.68.4.55,15.08,1.1,30.13,1.67,45.47l-7.94.81v18.3H159.4V105.1H62.66V177h97.22V158l16.63,1.43c0,10.05.25,20-.13,29.88-.14,3.68-3.48,4.45-6.82,4.44q-32.64-.16-65.28-.23c-15.7,0-31.41.05-47.12.07-8.73,0-8.74,0-8.74-9V105.14Zm118-15.42c0-3.55.06-6.56,0-9.58s-.28-5.92-.46-9.71L52.74,68.49,53.8,89.72Z"/><path d="M192.44,120.71c6.66,5.88,13.43,11.65,19.86,17.78.91.87.94,4.23,0,5.2-5.91,6.41-12.19,12.48-18.91,19.22l-6.58-8.1,6.56-7.72H156.85c-1.12-12-1.12-12.1,9.6-12.23,8.71-.11,17.43,0,27.29,0l-7.44-8.13,7-7.5Z"/><path d="M102.46,160.8l-6.63-3.09c2.47-4.94,4.6-9.65,7.16-14.13,1.64-2.85,1.58-5.09-.33-7.78-2.27-3.18-4.08-6.68-6.39-10.55l5.78-3.89,8.16,11.69c1.57-2.82,2.78-5,4-7.11,3.1-5.7,3.21-5.72,8.67-1.12-2,4-3.8,8.35-6.24,12.24-2,3.12-1.52,5.5.45,8.22,2.5,3.45,4.79,7,7.52,11.09l-6,4.47c-2.9-4.4-5.61-8.51-8.94-13.58C107.12,152.05,104.89,156.23,102.46,160.8Z"/><path d="M86.79,116c.48,3,1.65,5.34.93,6.47-8.75,13.63-7.91,26.85,1.49,40.09l-3.57,3.88C71,153,70,133.15,86.79,116Z"/><path d="M133.06,166.55l-2.33-2.46c2.2-6.39,4.46-12,6-17.72,2.23-8.28.28-16-4.87-22.73-2.37-3.08-2.08-5,1.07-6.76C149.08,129.69,147.58,152,133.06,166.55Z"/></svg>