<svg id="Layer_24" data-name="Layer 24" xmlns="http://www.w3.org/2000/svg" viewBox="0 0 250 250"><title>XOR-gate</title><path d="M37,142.83c8.57,0,16.73-.19,24.86.09,3.65.13,5-1.33,6-4.6,3-9.89,2.2-19.7.08-30.18H37.18V91H59.24l1.09-1.61c-1.93-1.52-4.8-2.67-5.57-4.64-1.43-3.65-1.63-7.78-2.34-11.71,3.27-.26,6.54-.69,9.81-.65,1.06,0,2.3,1.08,3.12,2,3.05,3.33,6.79,6.38,8.73,10.29,2.72,5.51,6.49,7.16,12.08,6.29,1.06-.16,2.15-.15,3.87-.27-2-4.14-4.07-7.87-5.76-11.77C82,73.75,83,72.21,88.34,71c19-4.36,36.77.48,54,7.49,19.53,7.93,36.94,19.24,50.62,35.72a8.44,8.44,0,0,0,5.47,2.35c4.67.33,9.37.11,14.57.11v16.62c-4.61,0-9.13-.27-13.58.13a9,9,0,0,0-5.11,2.81c-3.49,3.65-6.14,8.27-10,11.35-28.07,22.2-59.53,34.85-95.93,32.95-8.52-.44-9.53-2.36-5.32-10,1.57-2.86,3.06-5.76,4.55-8.66.14-.27,0-.7-.06-1.31a51.4,51.4,0,0,1-5.81-.53c-5.11-1-8.48.48-10.81,5.46-1.67,3.54-4,7.27-7.05,9.51-2.74,2-6.87,2.81-10.4,2.85-2.94,0-3.73-8-1.2-12,1.14-1.81,2.6-3.42,4.63-6.07H37Zm46.61,0c2.73,0,6.2.36,9.53-.16,1.6-.25,3.9-1.94,4.23-3.37,2.23-9.43,2.47-19-.42-28.35a4.69,4.69,0,0,0-3.06-2.83A92.1,92.1,0,0,0,83.61,108Z"/></svg>