<svg id="Layer_27" data-name="Layer 27" xmlns="http://www.w3.org/2000/svg" viewBox="0 0 250 250"><title>background-channel</title><path d="M91.37,96.81c4.35,6,8.76,12.15,13.13,18.26,8.71,12.16,17.49,24.28,26,36.56,1.79,2.58,2.67,5.81,4.56,10.07h-91C44.3,157,85.06,100.84,91.37,96.81Z"/><path d="M179.71,119.87H152.65c-12,0-15.29,3.21-15.51,15a5,5,0,0,1-1.35,3.59l-26-37.17c9-12.12,17.73-24.16,26.69-36.08,2.3-3.06,4.22-1.06,5.78,1.13,5.82,8.2,11.67,16.37,17.43,24.6C166.19,100.2,172.57,109.53,179.71,119.87Z"/><path d="M77,81.49c.21,11.43-8.43,19.86-20.36,19.87C47.85,101.37,37.09,90,37,80.68c-.09-9,9.59-19.65,18-19.84C65.83,60.6,76.77,70.89,77,81.49Z"/><path d="M184.86,130.33h6.19c1.45,4,2.9,7.74,4,11.51.42,1.4.65,3.32,0,4.49-5.64,10.37-1.32,21.41-2.32,32.07-.31,3.36,0,6.77,0,10.65H183c0-9.81.12-19.61-.06-29.41-.07-4.1,1.66-8.51-2.32-12.19-1-1-.7-4.14-.14-6C181.54,137.81,183.21,134.4,184.86,130.33Z"/><path d="M174.16,189.16H166c-.18-2.67-.3-5.43-.56-8.17-.35-3.71,1.11-7.68-2.49-10.94-1-.93-1-5,0-5.85,4-3.39,2.4-7.55,2.45-11.48.1-7.35,0-14.71,0-22.42h9.6c0,8-.22,16.06.11,24.1.12,3.12,1.61,6.17,2.23,9.3.36,1.83,1.08,4.49.18,5.52C172.48,175.08,176,182.19,174.16,189.16Z"/><path d="M208.34,189.1h-5.83c-1.61-3.46-3.28-6.36-4.28-9.48-.6-1.89-1-5.15,0-6,4.7-4,2.41-9.07,2.51-13.66.23-9.8.07-19.61.07-29.7h9.57c0,12-.11,23.85.1,35.72,0,2.27,1.65,4.48,2.05,6.79s.77,5,.15,7.23C211.84,182.94,210.05,185.63,208.34,189.1Z"/><path d="M149.64,130.28h7.1a50.81,50.81,0,0,0,.4,7.34c.65,3.25,2,6.35,2.64,9.59.44,2.18,1.22,5.46.13,6.57-3.83,3.92-2.19,8.47-2.35,12.74-.27,7.35-.07,14.73-.07,22.55H148c0-8.43.14-16.88-.07-25.31-.09-3.23,1.68-7-2.56-9.5-.89-.52-.69-3.65-.31-5.42C146.36,142.87,148,137,149.64,130.28Z"/></svg>