<svg id="Layer_27" data-name="Layer 27" xmlns="http://www.w3.org/2000/svg" viewBox="0 0 250 250"><title>character-channel</title><path d="M121.37,210c.35-11.12.74-22.23,1-33.35,0-1-1-2.05-1.32-3.15-.75-2.74-2.88-6.83-1.8-8.06,5.33-6.1,1.88-13.26,3.42-19.69a2.43,2.43,0,0,1,.26-.54c9.24-1.67,9.39-1.39,9.68,7.45.13,3.92-1.71,8.27,2.76,11.69,1.28,1,.52,5.11.11,7.71-.58,3.62-2.28,7.12-2.47,10.73-.46,9.05-.34,18.14-.46,27.21Z"/><path d="M162.29,210c-.2-10.08-.16-20.17-.7-30.23-.27-5.14,2.13-10.64-2.56-15.51-1.19-1.23.91-5.7,1.64-8.64.26-1.07,1.22-2,1.37-3.06,1.16-8.31,1.12-8.31,8.61-7.79,1.74,4.55,4,8.71,4.77,13.13.49,2.71-1.29,5.82-2,8.76a23.77,23.77,0,0,0-1,5.15c-.15,12.73-.17,25.46-.23,38.19Z"/><path d="M182.13,210c-1-2.83-2.3-5.59-2.84-8.5-.52-2.73-1.39-7.1,0-8.16,3.83-3,2.52-6.59,2.54-10,.08-11.11.15-22.23-.07-33.34-.08-4.08.9-5.81,5.44-5.82,4.84,0,5.3,2.39,5.27,6.13-.1,11.94-.14,23.87.07,35.8,0,2.16,1.69,4.25,2,6.47a29.19,29.19,0,0,1,.42,8.83c-.44,3-1.9,5.76-2.92,8.63Z"/><path d="M142.45,210c-.11-3.71.09-7.48-.45-11.13-.4-2.71-2.07-5.21-2.63-7.92s-1.48-6.66-.24-7.7c5.42-4.54,2.41-10.2,2.86-15.27s-.11-10.31-.12-15.47c0-9.06.19-9.19,10.84-7.32,0,9.8-.15,19.86.12,29.9.06,2.27,1.82,4.45,2.3,6.78.52,2.57,1.67,6.29.45,7.71-5.45,6.35-2.21,13.65-3.21,20.42Z"/><path d="M79.19,68.32c-1.45-2.31-2.45-3.9-3.46-5.48C72.2,57.23,71.34,51.12,74,45.13c2.12-4.82,7-5.69,11.68-4.85a9.33,9.33,0,0,1,5.71,3.86c3.31,5.53,1.43,16.06-3.1,20.92-.48.52-.51,1.46-1.23,3.67,15.86-1.23,26.7,5.79,33.23,19.39l24.09-20.53c-.85,10.1-15.57,28.7-23.29,30.34-1.37.29-3.42-.83-4.65-1.89-4.63-4-9-8.25-13.54-12.4-6.07,5.68-8.27,15-5.7,22.11,2.44,6.72,4.56,13.57,6.59,20.43a14.17,14.17,0,0,1,.4,6.14c-1.91,11.51-3.81,23-6.21,34.46-.77,3.67-1.27,6.09,2.9,7.88,2,.85,3.33,3.22,5.25,5.19-5.87,5.21-10.7,2-15.33-.22s-2-6-2.06-9.58c-.07-11.78,4.75-23.41.6-35.38-1.25-3.61-.19-8-.19-12.44H83.66c-.63,7.63-1.73,15-1.72,22.35,0,9.23.71,18.48,1.54,27.69.29,3.27,2.18,6.71-1.87,8.66-4.93,2.37-9.81,6-16.56,2.94,1.33-1.63,1.89-3,2.85-3.4,8-3.58,6.84-9.09,4.89-16.19-2.8-10.22-5.49-20.92-5.31-31.38.17-10.27,4.19-20.44,6.11-30.73,1.2-6.44-3.64-10.54-6.55-16-8.82,15.22-1,31.86-7,47.81-1.37-2.67-2.69-4.19-2.93-5.87-2.29-15.66-3.91-31.27.45-46.95,2.69-9.67,2.3-9.76,12.67-11.24C72.89,69.5,75.49,69,79.19,68.32Z"/></svg>