<svg id="Layer_27" data-name="Layer 27" xmlns="http://www.w3.org/2000/svg" viewBox="0 0 250 250"><title>delay-a-long</title><path d="M166.65,210c4.47-13.5,9.11-26.95,13.31-40.53,1.33-4.32,3.62-5.27,7.8-5.25,4,0,5.8,1.47,6.76,5.16,3.54,13.56,7.24,27.08,10.87,40.62Zm25-17.73c-1.65-6.71-3.09-12.53-4.52-18.35l-1.27.07L181,192.27Z"/><path d="M110.16,40c37.83,1.43,74.63,34.35,76.21,71.47,1.39,32.35-18.26,65.91-56.75,70.23-33.53,3.76-56.4-7.14-73.19-36.63-7.15-12.55-14.35-25.43-11-40.82,5.65-25.71,19.79-45.43,43.22-57.67C95.21,43.18,103,42.13,110.16,40Zm64,73.81a73.68,73.68,0,0,0-1.26-8c-6.71-26.31-23.71-42.4-49.5-49.9q-21.66-6.3-39,7.72A76.89,76.89,0,0,0,60,98c-2.74,7.64-4.31,15.68-.83,23.35,3.89,8.61,7.73,17.53,13.34,25,12.33,16.44,28,27.23,50.11,23.64,10.48-1.7,21-3.19,29.84-10C167.26,148.59,172.83,132.76,174.19,113.81Z"/><path d="M122,73.21c21,.19,44.3,22.05,43.65,41.32-.9,26.75-22.29,47.87-45.59,47.23-28.88-.79-42.65-18.18-43.18-45.49C76.43,96.06,101.29,73,122,73.21ZM153.14,114c-.14-12.35-17.76-28.14-31.41-28.15-14.49,0-32.8,17.8-32.48,31.57.45,19.29,13.16,32.46,31,32.12C136.73,149.21,153.33,131.29,153.14,114Z"/><path d="M145.15,120.26c.18,15.11-12,21-23,21.21-8.71.17-18.59-11.52-18.33-20.78.3-10.4,11.31-20.25,22.38-20C136.4,100.9,145.33,110.12,145.15,120.26Zm-19.67-7.32c-4.92,0-10,4.26-9.86,8.28.12,3.7,4.48,8,8.13,8,5.88,0,9.63-3.34,9.66-8.71C133.45,116,130.26,112.93,125.48,112.94Z"/></svg>