<svg id="Layer_27" data-name="Layer 27" xmlns="http://www.w3.org/2000/svg" viewBox="0 0 250 250"><title>delay-c-dub-echo</title><path d="M176.22,209.35c-7-12.26-5.18-28,4.37-37.84,8.1-8.33,20-7,26.18,3.7l-4.54,4.23c-11-6.21-19-1.74-19.66,10.65-.2,3.53-.15,7.36,1,10.61,3.11,8.63,9.66,9.52,19.85,2.66l3.52,6Z"/><path d="M43,112.63C43.53,81.09,71.69,47,100.9,41.48c12.73-2.39,25,.67,36.48,5.94,26.34,12.08,42.69,32.34,47.07,61.25,5.09,33.56-22.07,68-55.45,72.5-14.71,2-28.64,2.51-41.95-4.75-23.09-12.59-36-33-43.19-57.48A31.25,31.25,0,0,1,43,112.63Zm129.33.51c-.29-1.93-.54-4.77-1.15-7.53-5.69-25.89-27.1-46-53.62-51.18-13.06-2.56-24.5.43-34.64,8.49A76.37,76.37,0,0,0,58.18,97.68c-2.72,7.64-4.19,15.66-.69,23.33,3.83,8.42,7.57,17.16,13.05,24.49,12.26,16.44,27.8,27.4,49.91,23.93,10.48-1.64,21-3.08,29.88-9.79C165.44,148.19,171.05,132.19,172.37,113.14Z"/><path d="M120.11,72.7c20.93.16,44.29,22,43.68,41.2-.84,26.62-22.07,47.84-45.47,47.26-28.68-.71-42.64-17.94-43.22-45.37C74.68,95.61,99.47,72.54,120.11,72.7Zm31.23,40.82c-.08-12.34-17.57-28.11-31.28-28.2-14.4-.09-32.79,17.68-32.54,31.44.34,19.22,13,32.4,30.85,32.17C134.81,148.73,151.46,130.84,151.34,113.52Z"/><path d="M143.36,119.77c-.25,12.34-9.62,21.19-22.48,21.23-8.82,0-19.12-11.44-18.8-21,.34-10.4,11.4-20.21,22.43-19.91C134.73,100.42,143.57,109.63,143.36,119.77Zm-19.63-7.38c-4.92,0-10,4.24-9.86,8.26.1,3.69,4.46,8,8.1,8,5.87,0,9.62-3.33,9.67-8.69C131.68,115.43,128.5,112.38,123.73,112.39Z"/></svg>