<svg id="Layer_27" data-name="Layer 27" xmlns="http://www.w3.org/2000/svg" viewBox="0 0 250 250"><title>delay-b-ping-pong</title><path d="M176.92,209c.12-13,.38-26,.28-38.95,0-3.74.77-5.63,4.89-5.42,3.75.2,7.54-.34,11.28-.1,14.83.95,19.59,9.6,12.3,22.88,7.3,5.71,7.8,13.3,5.19,21.59Zm11.41.89c5.14-2.17,9.4-3.27,12.63-5.72,1.12-.86.61-5.81-.79-7.62-3-3.94-7.61-2.65-11.84-1.71Zm-1.57-24.27c5.72.77,10.28,1.07,12.65-3.4,1-1.8.51-6.22-.73-6.91-2.68-1.51-8.6-2.62-9.08-1.71C187.78,177,187.61,181.29,186.76,185.59Z"/><path d="M103.09,41.5c37.18.12,73.67,32.73,75.31,69.62,1.41,32-18,65.45-56.3,69.75-34.28,3.85-58-8.32-74.37-39.25-6.49-12.27-12.57-24.71-8.94-39.26C44.84,78.11,58.21,59.12,80.4,47.3c6.77-3.61,14.81-4.84,22.27-7.16Zm63.21,71.9a69.58,69.58,0,0,0-1.27-8C157.75,77.7,139.49,61.51,112,55.12c-13.11-3-24.69.41-34.88,8.64A76.19,76.19,0,0,0,52.86,97.92c-2.71,7.6-4.22,15.58-.74,23.19,3.89,8.53,7.69,17.39,13.27,24.81,12.12,16.11,27.52,26.8,49.23,23.4,10.61-1.66,21.26-3.13,30.16-10C159.5,147.91,165,132.17,166.3,113.4Z"/><path d="M114.79,73.18C135.33,73.52,158,95,157.84,114c-.27,24.45-22.31,48.35-45.1,47.28-28.12-1.32-42.43-17.5-43.1-45.11C69.15,95.89,94,72.84,114.79,73.18Zm30.62,40.76c0-12.28-17.14-27.94-30.9-28.21-14.16-.28-32.62,17.35-32.53,31.05.13,19,12.59,32.15,30.48,32.16C128.7,148.94,145.38,131.23,145.41,113.94Z"/><path d="M137.47,120.24c-.38,12.18-10.08,21.11-22.62,20.82-8.6-.2-18.54-11.3-18.4-20.54C96.61,110,107.9,100,119,100.48,129.25,101,137.79,110.11,137.47,120.24ZM125.83,120c0-4.47-3.29-7.47-8-7.4-4.9.08-9.87,4.39-9.64,8.37.22,3.71,4.55,7.84,8.21,7.81C122.25,128.75,125.87,125.39,125.83,120Z"/></svg>