<svg id="Layer_27" data-name="Layer 27" xmlns="http://www.w3.org/2000/svg" viewBox="0 0 250 250"><title>delay-d-short-echo</title><path d="M177.87,209c-.06-12.15,0-24.31-.23-36.46,0-3.13,1.32-4.82,4.11-4.71,6.66.27,13.58,0,19.85,1.81,3.42,1,6.79,5.34,8.33,9,3.82,9,4.33,18.49.07,27.77a12.58,12.58,0,0,0-.6,2.63Zm9.33-2.69c9.45,1.18,14.59-.48,15-5.61a57.81,57.81,0,0,0-1.57-18.15c-1.1-4.46-5.2-6.94-10.19-5.62-1.29.34-3.06,2.21-3.1,3.42C187.08,189,187.2,197.55,187.2,206.32Z"/><path d="M101.78,41c37.4,1.45,73.78,34,75.32,70.67,1.34,32.08-18.34,63.93-56.06,69.74-33.83,5.21-55.27-9.86-72.07-36.1-3.42-5.33-5.9-11.3-8.48-17.12A38,38,0,0,1,38,103.93C43.68,79,57.36,59.75,80.09,47.78,86.68,44.31,94.52,43.19,101.78,41Zm-.94,13.78a41.33,41.33,0,0,0-4.65.52C76.21,59.21,65,73.5,55.79,89.92c-8.11,14.45-7.23,28.38.46,43.29,14.36,27.84,33.64,39.18,63.68,35.22a52.17,52.17,0,0,0,44.91-56.66C162.11,82.12,132.31,55,100.84,54.77Z"/><path d="M156.62,114.8c-1.21,26.63-22.44,47.28-45.24,46.55-28.8-.92-42.1-18.36-42.53-45.09C68.52,96,93.48,73.33,114.11,73.84S157.06,96,156.62,114.8Zm-12.37-.63c-.11-12.21-17.47-27.81-31-27.85-14.27,0-32.42,17.56-32.14,31.16.4,19,12.93,32.06,30.57,31.77C128,149,144.4,131.29,144.25,114.17Z"/><path d="M136.35,120.63c-.36,12.14-9.94,21-22.47,20.77-8.78-.15-18.8-11.6-18.35-21,.5-10.31,11.56-19.92,22.4-19.45C128.09,101.44,136.65,110.56,136.35,120.63Zm-21.22,8.59c5.8.08,9.55-3.25,9.62-8.54.07-4.51-3.06-7.57-7.76-7.58-4.86,0-9.88,4.13-9.81,8.11C107.24,124.85,111.54,129.17,115.13,129.22Z"/></svg>