<svg id="Layer_27" data-name="Layer 27" xmlns="http://www.w3.org/2000/svg" viewBox="0 0 250 250"><title>gameplay-channel</title><path d="M82.84,145.33c-1.09,6.63-1.78,13.35-3.38,19.85-1.54,6.23-6,10.2-12.33,11.61s-11.84-1.28-14.63-6.69c-3.86-7.48-7.82-15.37-9.3-23.53-3.31-18.29-5.9-36.78-3-55.54C41.8,80.91,51,74.77,60.86,77.73a9.28,9.28,0,0,0,5.57,0q29.68-11.3,59.26-22.93c1.57-.62,3.45-1.48,4.27-2.81,6.83-11,15.67-12.6,25.9-4.61,17,13.29,25.52,32.54,35.66,50.62a77.72,77.72,0,0,1,6.19,15.4c1.85,6.08,0,11.36-5.22,15.24s-11,3.8-15.89-.21c-7.36-6-14.45-12.29-21.29-18.84-2.81-2.68-3.9-3.43-7.46-.38a26.15,26.15,0,0,1-13.71,5.53c-12.61,1.24-24.13,4-33.59,13.36-2.76,2.73-7.59,4.25-11.63,4.62-7.35.68-7.4.15-7,7.76.08,1.58.21,3.16.31,4.75ZM98.93,117.4c.16-5.46-3.7-9.77-8.79-9.82s-9.87,4-10.1,8.78c-.29,6,3.42,10.42,8.72,10.45A9.93,9.93,0,0,0,98.93,117.4Zm37-28.19c-4.84,0-9.35,4.85-9.46,10.26a8.79,8.79,0,0,0,9,8.91c5.39-.06,10.18-3.67,10.27-7.76C145.87,94.86,141.05,89.25,135.93,89.21Zm11.28-34.8c-2.61,3.24-5.52,5.29-5.37,7.08.17,2,3.15,3.69,4.9,5.52,1.81-2,4.38-3.69,5.12-6C152.25,59.76,149.51,57.52,147.21,54.41Zm-83.32,43C61.6,94.81,60,91.62,58.3,91.52c-2-.12-4.09,2.54-6.15,4l6.41,7Zm5,10.75c2.44-2.35,5.54-4,5.58-5.72,0-2-2.61-4-4.09-6.05l-6.81,6.48ZM57.55,113c2.54,2.33,4.28,5.2,6,5.22,1.91,0,3.83-2.64,5.75-4.13l-6.62-6.52Zm-4.82-10.83c-2.44,2.4-5.29,3.94-5.49,5.77s2.33,3.87,3.65,5.82L58,107.65Zm94.81-26.94c-3.44-2.46-5.4-4.93-7.37-4.95-1.66,0-3.34,2.84-5,4.42,1.72,1.79,3.2,4.54,5.23,5C141.88,80.12,144.1,77.54,147.54,75.24Zm6.91-1.91c-2.69,3.43-5.29,5.31-5.35,7.27,0,1.53,3,4.29,4.8,4.39,1.57.08,4.31-2.6,4.64-4.41C158.84,79,156.57,76.85,154.45,73.33Zm5.62,1c2.39-3.25,4.82-5.12,4.63-6.66-.23-1.87-2.7-3.45-4.2-5.15-1.75,1.64-4.36,3-4.95,5C155.17,68.89,157.73,71.05,160.07,74.38Z"/><path d="M200.15,207.37c-1.53-3.51-3.05-6.29-3.93-9.27-.59-2-1.2-5-.18-6.32,4.51-5.66,2-12,2.3-17.95.31-6.51,0-13,0-19.56,0-8.84,0-8.86,9.83-6.9,0,11-.19,22.26.12,33.46.09,3.39,1.78,6.7,2.35,10.1a16.73,16.73,0,0,1,0,7c-.83,3-2.48,5.78-4.14,9.43Z"/><path d="M154.1,207.59h-9.89c0-10,.12-19.66-.09-29.32-.05-2.05-1.43-4-2-6.12-.48-1.84-1.14-3.86-.81-5.64,1.21-6.51,2.81-13,4.41-20.07l7.92.71c0,3.06-.32,5.83.09,8.49.45,2.89,1.79,5.64,2.34,8.52a22.45,22.45,0,0,1,.3,7c-.53,3.88-2,7.67-2.2,11.54C153.86,190.83,154.1,199,154.1,207.59Z"/><path d="M182.32,147l5.94-.58c1.73,4.58,3.3,8.34,4.53,12.2.45,1.44.71,3.47.05,4.67-5.72,10.33-1.77,21.39-2.59,32.06-.3,3.9-.05,7.84-.05,12.18h-9.93c0-11.65.14-23-.11-34.45-.06-2.55-1.68-5-2.19-7.62-.45-2.27-.95-4.82-.36-6.95C178.62,154.84,180.45,151.41,182.32,147Z"/><path d="M170.22,207.63h-7.91c0-3.34.35-6.68-.1-9.92s-1.87-6.29-2.52-9.5c-.43-2.09-1.17-5.39-.15-6.28,4.86-4.19,2.29-9.44,2.69-14.19.37-4.52.08-9.1.08-13.65,0-8.6,0-8.6,9.81-6.63,0,9-.1,18.18.09,27.41,0,1.87,1.33,3.69,1.79,5.59s1.09,3.9.76,5.7C173.5,193.07,171.89,199.9,170.22,207.63Z"/></svg>