<svg id="Layer_27" data-name="Layer 27" xmlns="http://www.w3.org/2000/svg" viewBox="0 0 250 250"><title>general-channel</title><path d="M167.33,197.38c-.25-2.7-.29-5.44-.8-8.1s-1.72-5.1-2.18-7.72c-.4-2.28-1.15-5.92,0-6.78,4.56-3.53,2.13-8,2.31-11.94.32-6.86.09-13.75.09-20.55,8.62-1.55,8.93-1.29,9,7.05.09,6.74.11,13.49.36,20.23,0,1.41,1.2,2.75,1.47,4.19.44,2.42,1.73,5.92.63,7.16-4.63,5.24-1.75,11-2.1,16.46Z"/><path d="M201.29,197.38c-.87-2.13-2.1-4.2-2.52-6.43-.45-2.41-1.19-6.25,0-7.22,3.15-2.55,2.22-5.45,2.24-8.36,0-11.07,0-22.13,0-33.07,8.57-1.41,8.88-1.21,9,6.19.12,8.38,0,16.77.25,25.15.09,3.55-1.35,7.3,2.26,10.53,1.11,1,0,4.74-.49,7.15a46.14,46.14,0,0,1-2,6.06Z"/><path d="M149.8,197.38c-.07-8.55,0-17.11-.3-25.66-.06-1.8-1.59-3.51-2-5.35-.49-2.25-1.58-5.63-.53-6.72,4.51-4.7,1.58-10.29,2.67-15.3.15-.69.21-1.4.31-2,8.33-1.35,8.46-1.15,8.63,6.76.08,3.53-1.26,7.36,2.6,10.27,1,.73,1,4.59,0,5.68-4,4.41-2.11,9.54-2.4,14.33-.36,6-.18,12-.24,18Z"/><path d="M183.76,197.38c0-10.91.07-21.83,0-32.74,0-1.46-1.21-2.9-1.29-4.38a65.69,65.69,0,0,1,.2-8.87c.09-1.1,1.13-2.12,1.25-3.23.68-6.8.64-6.81,7.6-6.13,1.44,4,3.26,7.54,3.91,11.32.4,2.26-1.08,4.82-1.63,7.27a25.56,25.56,0,0,0-.89,5.17c-.18,10.53-.24,21.06-.35,31.59Z"/><path d="M123.47,109.89c0,16-.29,32.09.09,48.13.27,11.39-9.26,12.87-16,8.33a54,54,0,0,1-8.87-8.06c-7-7.44-13.72-15.15-20.82-22.49a10.24,10.24,0,0,0-6.4-2.92c-9.48-.26-19-.19-28.46.11-4.29.13-5.8-1.37-5.76-5.63.11-10-.21-20.07-.24-30.11,0-7.72,1.88-9.51,9.78-9.46,7.48,0,15,.44,22.44.07a13.16,13.16,0,0,0,7.49-3.29c9-8,17.56-16.48,26.57-24.45a39.54,39.54,0,0,1,10.6-6.6c5.5-2.36,9.08,0,9.16,6,.21,16.78.07,33.57.07,50.35Z"/><path d="M151.11,77.79c.11-.62.19-1.34.37-2,3.09-11.6,4.91-12.76,15.07-5.84,13.15,9,21.2,21.58,20.61,38-.26,7.33-2.48,14.62-4,21.88-.61,2.87-2.28,3.94-5.63,3.22-4-.86-8.23-.64-12.3-.89C177.67,108.08,174.44,95.42,151.11,77.79Z"/><path d="M139.69,131.88c-.59-3.67-1.12-7-1.72-10.77,6.47-1.35,10.34-4.8,9.73-11.64-.5-5.6-4-8.19-9.92-8.92.82-4.1,1.58-7.92,2.33-11.68,12.47,1.11,20,9.9,20.28,23.15C160.65,124.05,154.57,130.16,139.69,131.88Z"/></svg>