<svg id="Layer_27" data-name="Layer 27" xmlns="http://www.w3.org/2000/svg" viewBox="0 0 250 250"><title>master-mixer</title><path d="M90.91,201.78q-.54-19.53-1.08-39.06c0-1.85,0-3.69,0-6.21-7.51,1.35-7.47-3.31-7.09-8.39a47.49,47.49,0,0,0,0-7.82c-.48-5.15.31-9,7-8,0-11.75,0-23.08,0-34.4,0-14.91,0-29.83-.2-44.74,0-3.46,1.4-4.78,4.51-4.82,4.84-.06,9.69,0,14.54,0,4.19,0,5.82,1.82,5.84,6.12.13,23.67.49,47.35.76,71,0,2,0,4.06,0,6.58,7.19-.56,7.33,3.94,6.92,9a39.3,39.3,0,0,0,0,7.82c.61,5.18-.73,8.45-7.75,7.57,0,11.53.1,22.63-.05,33.73,0,3.87-.67,7.73-1,11.6Z"/><path d="M135.71,201.78q-.47-39.74-.93-79.45c-.08-7.81,0-15.62,0-23.86-6.47.77-7.63-3-6.93-8.51a34.66,34.66,0,0,0,0-7.82c-.53-5.3.51-9,8-7.81,0-6.92.14-13.4-.06-19.87-.13-4.15,1.67-5.59,5.65-5.54a112.42,112.42,0,0,0,12.84-.62c4.06-.4,5.76.87,5.55,5.21-.3,6.67-.08,13.36-.08,20.55,7.44-.92,8.21,3.17,7.67,8.52a42,42,0,0,0,0,8.39c.51,5-.79,8.09-7.08,7.22V201.78Z"/><path d="M181.63,201.78c-.37-6.85-.74-13.69-1.13-21-6.71,1-7.55-2.78-7.07-7.93a49.55,49.55,0,0,0,0-9c-.45-4.82.43-8.24,7.88-7,0-7.13.06-13.74,0-20.35-.3-27.21-.48-54.43-1.09-81.63-.12-5.46,2-6.86,6.76-6.66,4.09.17,8.2.05,12.3.08s5.94,1.49,5.94,6c0,32.05.26,64.11.44,96.17,0,1.82,0,3.65,0,5.94,7.23-1,7.71,3.25,7.21,8.47a45.38,45.38,0,0,0,0,7.82c.4,5.12-.14,9.24-7.08,7.73-.6,7.32-1.17,14.29-1.74,21.26Z"/><path d="M43.87,201.78V114.87c-6.85,1.15-7.2-3.4-6.73-8.78.22-2.6,0-5.23,0-7.84,0-6.92,0-6.92,7.52-7.93V48.22c7.81.4,14.8.57,21.73,1.32,1,.11,2.22,3.13,2.28,4.83.35,10.82.4,21.64.56,32.47,0,1.1.17,2.2.3,3.72,6.87-1,7.69,3.09,7.14,8.46-.28,2.77,0,5.6,0,8.4,0,6.59,0,6.59-6.34,7.78q-.9,43.28-1.81,86.58Z"/></svg>