<svg id="Layer_27" data-name="Layer 27" xmlns="http://www.w3.org/2000/svg" viewBox="0 0 250 250"><title>music-channel</title><path d="M201.46,205.61a58,58,0,0,1-1.77-6.1,25.7,25.7,0,0,1-.63-7.33c.52-4.39,2.15-8.69,2.31-13.06.37-9.69.12-19.4.12-29.5h9.25c0,11.27-.15,22.34.11,33.4.06,2.79,1.79,5.51,2.07,8.34a34.8,34.8,0,0,1-.6,8.24,59.76,59.76,0,0,1-1.46,6Z"/><path d="M149.76,205.61c-.06-6.84,0-13.68-.21-20.52-.11-4.24,1.87-8.89-2.62-12.4-.79-.62-.53-3.06-.19-4.53,1.36-6,2.94-11.88,4.55-18.26,6.78-1.36,7-1,7.57,6.81.25,3.41,1.71,6.71,2.38,10.11.34,1.7.84,3.92.08,5.2-5.11,8.56-1,17.88-2.53,26.7-.38,2.28-.54,4.6-.81,6.89Z"/><path d="M183.84,205.61c0-11.49.23-23,0-34.46,0-2-2.59-4.05-2.37-5.88A53.63,53.63,0,0,1,185,150.78c.58-1.38,4.73-1.26,6.6-1.68,1.67,4.55,3.16,8.3,4.38,12.13a5.83,5.83,0,0,1,.07,4c-5.44,10-1.44,20.71-2.44,31-.3,3.09-.25,6.21-.35,9.32Z"/><path d="M167.38,205.61a56.1,56.1,0,0,0-.6-6.36c-.69-3.35-1.77-6.62-2.45-10-.34-1.69-.92-4-.12-5.16,5.09-7.51,1.52-15.74,2.32-23.57.36-3.45.06-7,.06-10.89h9.58c0,8.58-.13,17.12.09,25.64.06,2.32,1.32,4.59,1.81,6.94.39,1.86,1.34,4.47.49,5.59-4.17,5.53-1.82,11.92-2.95,17.79Z"/><path d="M116.9,44.39c1.25,6.24,3,12.17,3.53,18.2,1.49,18.34,1.74,36.8,3.85,55.05s-19.22,26.88-30.91,22.11C85.43,136.51,84,126.34,91.52,120c3.78-3.21,8.89-4.86,15.2-8.16C105.93,101.27,105,88.5,104,75.21c-10.78,3.42-21,6.48-31,10.07-1.25.45-2.15,3.78-2.06,5.73.6,13.68,1.88,27.33,2.22,41,.36,14.41-14.33,25.37-28.21,21.62-5.61-1.51-8.12-4.95-7.86-10.77.41-9.26,6.1-14.69,18.5-17.6,0-7,.37-14-.09-20.93-.77-11.7-2-23.39-3.22-35-.4-3.82.76-5.49,4.6-6.52,8.27-2.21,16.35-5.13,24.54-7.65C92.69,51.64,104.06,48.26,116.9,44.39Z"/><path d="M130,157.54l15.8-74.2c5.83,1.37,10.94,2.36,15.88,3.9,1.14.35,2,2.47,2.44,4,1.11,3.93,1.44,8.13,2.92,11.89a20.92,20.92,0,0,0,15.23,13.31c1.95.49,3.53,2.49,5.28,3.79-2.11,1-4.23,2.85-6.34,2.84-5.83,0-11.67-.77-17.5-1.3-1.7-.16-3.39-.57-5.67-1-1.46,6.41-2.83,12.44-4.27,18.78-1.57.13-3.4-.24-4.51.49-3.08,2-7.73,4.07-8.41,6.92-2.07,8.57-2.62,17.53-3.59,26.35a7,7,0,0,0,.92,4.5c3.45,4.82,1,7.22-3.15,9.63-8.48,5-22.41,3.79-29.75-2.8-6.9-6.2-3.81-20.12,5.93-23.72C116.86,158.8,123.26,158.67,130,157.54Z"/></svg>