<svg id="Layer_27" data-name="Layer 27" xmlns="http://www.w3.org/2000/svg" viewBox="0 0 250 250"><title>reverb-b-music-2</title><path d="M161.59,210.27v-46.7c8.24,0,15.69-.95,22.79.22,11.45,1.9,14.39,11.43,7.75,23.54,7.76,6.07,8.3,14.13,5.52,22.94ZM173.73,209c5,.16,10.31,1.8,13.12-3.27,1.23-2.22.92-6.75-.62-8.76-3.18-4.16-8.08-2.81-12.5-1.74Zm-1.68-23.12c6.1,0,11.08.71,13.49-4.25.94-2,.38-6.58-.95-7.29-2.88-1.55-9.19-2.63-9.67-1.66C173.05,176.38,172.94,181,172.05,185.9Z"/><path d="M50.82,185.22V39.86c5.18,0,10.18-.42,15,.28,1.31.18,3,3.74,3,5.77.34,21.6.4,43.21.5,64.82q.15,33,.23,66c0,8.47-.06,8.47-8.56,8.48Z"/><path d="M101.16,157.16H83.55V73.22c5,0,9.94-.2,14.83.15,1.17.08,3.15,2,3.16,3.08.21,26.53.2,53.06.21,79.59C101.75,156.22,101.58,156.4,101.16,157.16Z"/><path d="M115.61,139.18c0-14.23-.09-27.94.15-41.65,0-1.22,2.14-3.34,3.42-3.45,4.73-.42,9.52-.17,15.2-.17v45.27Z"/><path d="M165,125.91H144.37c.54-5.45-.73-13.28,2-15.07,3.79-2.51,11.65-2.28,15.68.18C164.8,112.71,164,120.2,165,125.91Z"/><path d="M174.66,116.32c5.13,0,10.28-.14,15.41.11,1.11.06,2.14,1.52,3.21,2.34-1.1,1-2.15,2.79-3.31,2.87a66.72,66.72,0,0,1-12.48-.28c-1.51-.18-2.82-2-4.23-3.06Z"/></svg>