<svg id="Layer_27" data-name="Layer 27" xmlns="http://www.w3.org/2000/svg" viewBox="0 0 250 250"><title>reverb-a-music-1</title><path d="M153.72,210.22c4.75-14.62,9.72-29.18,14.12-43.91,1.56-5.2,5-4.52,8.82-4.75,4-.25,5.66,1.63,6.58,5.27,3.67,14.49,7.55,28.93,11.35,43.39ZM169,198.17h11.09c-1.73-6.92-3.26-13.07-4.8-19.21l-1.3.11Z"/><path d="M53.77,185.18V39.8c5,0,9.78,0,14.52,0,4.45,0,3.61,3.5,3.64,6.12q.27,32.71.39,65.42t.23,65.4c0,8.41-.06,8.42-8.6,8.43Z"/><path d="M104.48,157.07h-18V74c.57-.34.9-.68,1.24-.71,16.44-1,16.91-1,17.29,15.23.5,21.54.2,43.11.2,64.67A22.71,22.71,0,0,1,104.48,157.07Z"/><path d="M137.43,93.9V139H118.61c0-14.13-.06-28.22.14-42.29,0-1,1.9-2.61,3-2.68C126.68,93.73,131.65,93.9,137.43,93.9Z"/><path d="M167.93,125.77H147.3c.62-5.25-.59-12.63,2.35-15.14s11.51-2.36,15,.19C167.64,113,166.92,120.21,167.93,125.77Z"/><path d="M177.57,116.5h18.07c1,3.2,1.11,5.42-3.25,5.24-4-.16-8,.1-11.89-.41-1.54-.2-2.87-2-4.3-3C176.65,117.71,177.11,117.11,177.57,116.5Z"/></svg>