<svg id="Layer_27" data-name="Layer 27" xmlns="http://www.w3.org/2000/svg" viewBox="0 0 250 250"><title>reverb-c-game-1</title><path d="M162.11,210.22c-7.68-12.64-5.23-30.94,5.45-40.8,8.54-7.9,20.43-6.11,26.77,4.75l-4.64,4.58c-11.93-6.71-20.13-2.12-20.88,11.11-.22,3.72-.16,7.78,1.07,11.21,3.28,9.15,10.32,10.11,20.9,2.8,1.27,2.14,2.53,4.24,3.78,6.35Z"/><path d="M53.8,39.79c5.15,0,9.72,0,14.28,0s3.81,3.28,3.83,6q.24,32.41.38,64.82.15,33.3.23,66.6c0,8-.08,8-7.82,8-3,0-6,.07-9,.06-.34,0-.69-.32-1.91-.94Z"/><path d="M104.5,157H86.41V74c.67-.36,1-.67,1.35-.69,16.38-.86,16.84-.86,17.22,15.32.5,21.34.2,42.71.2,64.07A28.37,28.37,0,0,1,104.5,157Z"/><path d="M137.41,139.19H118.54c0-14.19-.07-28.07.14-42,0-1.13,1.94-3.1,3.09-3.19,4.92-.35,9.89-.15,15.64-.15Z"/><path d="M148.63,125.77c-.42-.48-.64-.62-.66-.78-1.71-15,.57-17.26,15.33-14.91,1.29.2,3.2,1.89,3.32,3,.4,4.06.15,8.18.15,12.64Z"/><path d="M177.66,116.29c5.15,0,10.3-.15,15.44.11,1.07.06,2.07,1.59,3.1,2.44-1.13,1-2.22,2.69-3.42,2.76a66.59,66.59,0,0,1-12.47-.28c-1.47-.19-2.73-2.07-4.09-3.17Z"/></svg>