<svg id="Layer_27" data-name="Layer 27" xmlns="http://www.w3.org/2000/svg" viewBox="0 0 250 250"><title>reverb-d-game-2</title><path d="M159.19,210.29c-.06-13,0-25.95-.25-38.92-.05-3.34,1.41-5.17,4.38-5.05,7.12.27,14.5,0,21.2,1.94,3.65,1.06,7.25,5.71,8.89,9.57,4.08,9.64,4.62,19.74.07,29.64a14.46,14.46,0,0,0-.64,2.82Zm10.38-2.84c5.91,1.05,11.33,1.48,14.91-3.95,3.13-4.74,1.71-18.62-2.07-23.66-3.43-4.57-7.76-5.06-12.84-3Z"/><path d="M53.31,185.24V39.85c5.15,0,10-.44,14.62.26,1.4.21,3.29,3.57,3.32,5.51.36,21.8.41,43.61.51,65.42.1,22.21,0,44.41.33,66.61.07,5.75-1.39,8.65-7.76,7.68C61,184.83,57.62,185.24,53.31,185.24Z"/><path d="M86,74c.53-.4.68-.6.84-.62,16.69-1.49,17.17-1.5,17.56,14.89.53,21.55.23,43.13.23,64.69a24.49,24.49,0,0,1-.77,4.21H86Z"/><path d="M136.88,139.26H118.06c0-14.38-.06-28.47.14-42.55,0-.93,1.92-2.58,3-2.64,4.94-.29,9.9-.13,15.66-.13Z"/><path d="M167.39,125.82H146.76c.61-5.25-.6-12.63,2.35-15.14s11.51-2.36,15,.19C167.09,113,166.37,120.27,167.39,125.82Z"/><path d="M177.23,116.33c5,0,9.92-.18,14.86.12,1.25.08,2.41,1.66,3.6,2.54-1.17.94-2.29,2.6-3.51,2.68a67.54,67.54,0,0,1-12.48-.3c-1.44-.19-2.65-2.13-4-3.27Z"/></svg>