<svg id="Layer_27" data-name="Layer 27" xmlns="http://www.w3.org/2000/svg" viewBox="0 0 250 250"><title>speakers</title><path d="M65.09,210c-1.17-4.23-3.36-8.46-3.34-12.69.2-48.26.7-96.52,1.21-144.78.09-7.81,4.6-12.19,12.62-12.23,27.85-.14,55.71-.11,83.57-.16,2.74,0,5.49,0,8.23-.11,12.14-.51,19,5.78,19.12,17.85.59,45.7,1.06,91.4,1.74,137.1.09,5.85-1.44,10.77-5.34,15Zm100.12-56c.61-20.36-20.66-41.18-42.61-41.71-16.87-.4-36.4,20-37.14,38.73-.72,18.22,20.38,41.4,38.63,41.1C146.45,191.74,162.84,182,165.21,154ZM125.3,99.45c11.8-.13,20.11-8.09,20.06-19.19C145.3,70,134.3,59.51,123.56,59.49c-8.4,0-18.38,11.09-18.06,20.09C105.83,89.15,116.2,99.55,125.3,99.45Z"/><path d="M124,132.86c10.8.13,20.86,9.85,20.78,20.07-.09,11.27-8.64,19.36-20.17,19.07-8.8-.23-18.75-11.23-18.57-20.53C106.19,142.44,115.54,132.75,124,132.86Z"/><path d="M133.17,80.73c-.43,4.17-2.89,6.69-7.55,6.76-4.19.06-8.63-4.32-8-8.34s2.86-7.36,7.65-7.35C129.67,71.82,133.33,75.91,133.17,80.73Z"/></svg>