<svg id="Layer_27" data-name="Layer 27" xmlns="http://www.w3.org/2000/svg" viewBox="0 0 250 250"><title>voice-channel</title><path d="M154.92,210c-.2-1.75-.31-3.51-.64-5.24-.82-4.36,1.27-9.1-2.68-13.23-1.09-1.15,1-5.32,1.63-8.12a25.39,25.39,0,0,0,.88-5c.08-9.46,0-18.92,0-28.85h10.27c0,8.91-.17,17.9.1,26.88.08,2.64,1.56,5.21,2.06,7.88.42,2.29,1.41,5.64.31,6.84-4.71,5.1-2,11.09-2.91,16.6a15.11,15.11,0,0,1-.72,2.22Z"/><path d="M135.88,210c-.09-9.26,0-18.53-.36-27.78-.08-2.24-1.54-4.4-2.05-6.66s-1.74-5.41-.74-6.65c4.68-5.86,1.8-12.76,3.4-19.32h9.09a59.12,59.12,0,0,0,0,6.69c.46,3.83-1.29,8,2.8,11.33,1.18.95,1.29,5.53.14,6.65-4.13,4-2.36,8.79-2.55,13.22-.31,7.5-.19,15-.25,22.52Z"/><path d="M191.82,210c-.95-2.51-2.27-4.95-2.76-7.55s-1.29-6.89,0-7.87c3.77-2.86,2.39-6.25,2.42-9.52.09-11.67,0-23.34,0-35.48h10c0,12.2,0,24.4,0,36.6,0,2.91-1.06,5.83,2.3,8.37,1.3,1,.51,5.21.06,7.86s-1.67,5.06-2.56,7.59Z"/><path d="M172.78,210c0-12.06.07-24.11-.05-36.17,0-1.55-1.18-3.07-1.47-4.66-.49-2.62-1.37-5.43-.87-7.92.74-3.75,2.53-7.29,4.12-11.61h6.82c1.41,4.09,3.33,8.2,4.12,12.53.42,2.27-1.15,4.89-1.74,7.38a26.1,26.1,0,0,0-1,5.54c-.2,11.64-.27,23.27-.38,34.91Z"/><path d="M116.79,62.44l-15.49.76c-1.51,4.38-1,6.92,4.37,6.61,3.93-.21,7.89,0,12.31,0,.19,2.4.37,4.68.62,7.74H101.49c-2,5.51-.62,7.71,4.75,7.36,4.11-.26,8.25-.05,12.84-.05.13,2.53.23,4.59.36,7.29H101.05v7.06h18V107c-4.78,0-9.5-.27-14.16.16-1.52.14-2.88,2.1-4.32,3.23,1.39,1.15,2.68,3.14,4.17,3.29a123.48,123.48,0,0,0,12.9.16c2.6,13.37-7.3,26-21,27.16-16.78,1.46-28.77-7.05-31.5-23.7a173.56,173.56,0,0,1,.67-58c2.26-13,11.74-19.76,24-19.28,15,.6,24.7,7.63,26.93,19.52A19,19,0,0,1,116.79,62.44Z"/><path d="M126.61,87.5H138c-.71,12.91.35,25.9-2.52,38-3.86,16.15-14.24,28.48-31.46,32.32-6.86,1.53-8.57,4.93-7.82,11,.24,2,.38,3.91.62,6.49h22.34v10.61H63.86V175.53H86.25c0-4.81.31-8.95-.17-13-.16-1.33-2.18-3.08-3.67-3.51-25.36-7.34-37-22.68-37-49.21V86.46H56.1c0,6.66,0,12.94,0,19.22,0,3.57,0,7.15.29,10.7,1.4,18.83,16.48,32.83,35.14,32.71,18.32-.11,34-14.62,35-33C127,106.82,126.61,97.51,126.61,87.5Z"/></svg>