<svg id="Layer_25" data-name="Layer 25" xmlns="http://www.w3.org/2000/svg" viewBox="0 0 250 250"><title>advanced-rotator</title><path d="M187.33,113.42c-1,10.15-1,10.15-12.14,11.22-1.14-9.3-2.49-18.61-3.21-28-.11-1.46,2.4-4.23,4.06-4.55,7.84-1.5,15.81-2.36,23.75-3.45,4,9,3.42,10.41-6.36,13.69,3.41,3,7,5.72,10.06,9,9.26,10,8.24,22-2.14,30.77C187.09,154.19,170.17,159.34,152,161a262.73,262.73,0,0,1-81-5,56.07,56.07,0,0,1-19.59-8.49c-15-10.47-15.1-29.44-.21-40a91,91,0,0,1,23-11.49c18.62-6.31,38.08-8.39,57.67-9,6-.21,6.75,1.43,7.12,9.94.24,5.66-3.24,5-6.81,5.09-19.6.63-39,2.6-57.5,9.67a70.6,70.6,0,0,0-13.71,6.94c-8.1,5.36-7.86,13,.66,18A44.13,44.13,0,0,0,74.9,141.6c29.46,6,59.15,8.12,88.8,2.1,8.05-1.63,15.9-5.53,23.11-9.67C197.81,127.72,197.79,122,187.33,113.42Z"/><path d="M85.53,56l10.34-3.63,4.18,8c3-3.73,5.6-7.26,8.52-10.5,12.34-13.69,25.53-13.09,36.6,1.59,10.4,13.79,14.87,29.73,16,46.63.72,10.85.54,21.78.54,32.67,0,5.29-8.85,10.44-13.26,7.59-1.2-.77-1.53-3.5-1.57-5.35-.26-11.71.1-23.45-.58-35.14-.71-12.25-4-23.91-10.87-34.33-7.52-11.41-15.55-11.22-23.26,1.12l9.73-2,4.27,11.18c-9.31,3.17-18,6.33-26.78,8.9-1.49.43-4.85-1.27-5.45-2.75C90.89,72.4,88.46,64.55,85.53,56Z"/><path d="M95.11,171.25c3.85.3,7.77.28,11.52,1.05,1.6.33,3.3,2.07,4.18,3.62,2.34,4.09,3.89,8.64,6.4,12.6,5.29,8.35,13.2,8.43,18.51-.06,2.56-4.09,3.86-9,5.47-13.63,1.25-3.6,11.51-7.51,14.53-5.22a3.26,3.26,0,0,1,1.05,2.61c-2.54,13-5.34,26-18.05,33.56-11.61,6.94-23.35,5.48-31-5.59-5.84-8.46-9.79-18.22-14.58-27.41Z"/></svg>