<svg id="Layer_25" data-name="Layer 25" xmlns="http://www.w3.org/2000/svg" viewBox="0 0 250 250"><title>advanced-mover</title><path d="M47.19,209.67,43.11,186c4.07,0,8.11-1.16,10.41.34s2.7,5.64,4.29,9.46c6.19-4.16,12.26-8.17,18.26-12.29,10.22-7,10.2-7,21,.9l-25,16.8.37,1.22a50.17,50.17,0,0,0,6.83-.05c5.76-.8,8.14,1.54,7.3,7.25Z"/><path d="M165.28,209.67c-1.53-4.4-.07-6.37,4.67-6a20.27,20.27,0,0,0,9.31-1.33l-24.95-16.53c8.81-7.82,10.61-8,19.56-2q8.41,5.64,16.85,11.24a21.53,21.53,0,0,0,2.9,1.35c1.19-3.17,1.49-7.46,3.67-8.86,2.34-1.52,6.43-.35,10.38-.35-1,7.74-2,15.12-3,22.5Z"/><path d="M180.76,127.4c0,9.73.35,19.47-.22,29.17a11.07,11.07,0,0,1-4.81,7.76Q154.09,176.21,131.84,187a12.23,12.23,0,0,1-9.39,0c-15-7.23-29.72-15.06-44.59-22.58-3.44-1.73-4.84-4.16-4.82-8,.13-19.06-.13-38.13.28-57.18A10.87,10.87,0,0,1,78,91.35Q99.76,79,122.1,67.74a12,12,0,0,1,9.32,0c15,7.22,29.73,15,44.63,22.49,3.7,1.86,5.13,4.52,5.08,8.54-.13,9.53,0,19.06,0,28.59ZM78.93,96.33l-1,2.06c1.71,1.11,3.36,2.34,5.15,3.31,12,6.58,24,13.21,36.12,19.57,2.81,1.48,4,3,4,6.31.42,15.87,1.13,31.75,1.87,47.61.11,2.19.94,4.34,1.44,6.51l2.08-.28c.23-1.85.6-3.7.66-5.56.56-15.47,1.21-31,1.48-46.44.07-4.48,1.4-7.06,5.6-9.18,11.87-6,23.47-12.48,35.13-18.88a32.89,32.89,0,0,0,4.42-3.55L175,96.33c-1.75.64-3.54,1.17-5.24,1.92-12.9,5.65-25.71,11.5-38.72,16.88a11.83,11.83,0,0,1-8.23,0C110,109.76,97.4,103.93,84.7,98.32,82.84,97.51,80.86,97,78.93,96.33Z"/><path d="M164.53,40.37c11.6,0,22.89-.18,34.15.2,1.66,0,4.25,2.51,4.65,4.27C205,52,205.9,59.23,207.09,66.39c-10.1,2.9-10.81,2.47-14.08-9.14-6.47,4.3-12.67,8.39-18.84,12.53-10,6.74-10,6.76-21-.82L178.3,52.09l-.18-1.25c-1.79,0-3.59-.05-5.38,0C163.39,51.2,163.09,50.87,164.53,40.37Z"/><path d="M71.28,53.09,95.86,69.54c-8.58,8-10.11,8.12-19.39,1.92L57.14,58.59c-1.73,3.82-2.37,7.91-4.74,9.66-2,1.5-6,.31-10.07.31,1.4-8.49,2.45-16.29,4.15-24,.29-1.34,3.27-2.9,5.06-3q15.18-.46,30.38,0c1.28,0,3.29,2.26,3.58,3.74.49,2.51,1.1,6-3.07,6.4-3.5.31-7.05.06-10.57.06Z"/></svg>