<svg id="Layer_25" data-name="Layer 25" xmlns="http://www.w3.org/2000/svg" viewBox="0 0 250 250"><title>destroyer</title><path d="M106.81,198.08c-1.32-2.81,2.83-9-3.63-9-5.48,0-2.32,6-3.67,9.15a12.19,12.19,0,0,0-.31,3c-.55,3.92.59,8.88-6,8.85-7,0-11-2.9-11.66-9.19-.57-5.73-.7-11.5-1.05-17.25A14.8,14.8,0,0,0,74,171.7a218.73,218.73,0,0,1-23.46-20.16C40.16,141.18,36,128.74,39.84,113.93A148.24,148.24,0,0,1,60.52,68.62a16.68,16.68,0,0,1,6.16-5.46c14-6.89,28.07-13.88,42.42-20.08,10-4.32,20.52-3.76,30.9-.39,17.7,5.74,34.26,13.7,49.06,25.09a24.83,24.83,0,0,1,5.77,5.94,103.65,103.65,0,0,1,16.68,49.13c.63,8.46-3.44,15.74-9,21.45a349.71,349.71,0,0,1-27.63,25.27c-3.43,2.85-5.13,5.36-5.07,9.79.1,7.94-.45,15.88-.58,23.83-.06,4-1.52,6.52-5.82,6.61s-9.27.74-10.46-5.19c-.86-4.27-.84-8.71-1.67-13-.25-1.29-2-2.29-3.09-3.42-1,1.21-2.54,2.34-2.72,3.65a56.19,56.19,0,0,0-.51,11.29c.34,5.08-2.11,6.7-6.69,6.72s-9-.34-9.46-6.39c-.21-3,.24-6-.23-8.92-.28-1.74-1.76-3.29-2.7-4.92-1.26,1.64-3.05,3.12-3.65,5-.78,2.4-.66,5.1-.82,7.68-.34,5.25-2.68,8-8.35,7.61s-6.89-3.65-6.48-8.44C106.69,200.48,106.72,199.48,106.81,198.08Zm49.49-86.7c-10.11-.54-15.63,5.25-13.72,15.06a63.26,63.26,0,0,0,5.15,16.38c1.31,2.6,5.67,5.73,8.07,5.31a85,85,0,0,0,20.57-6.55c4.38-2,5.24-6.7,3.79-11.42C177.19,120.47,166.31,111.91,156.3,111.38ZM87.69,149.24c3.6-.52,7.31-.51,10.57-1.7,2.31-.84,5-2.94,5.82-5.11a37.6,37.6,0,0,0,.55-25.08c-1.39-4.23-4.46-6.56-9-6.21-13,1-24.47,13.33-24.63,26.36-.06,5.14,2.53,8.76,7.37,10.27C81.32,148.69,84.56,148.77,87.69,149.24Zm50.18,16.84L139.7,164c-4.08-6.86-8.09-13.77-12.35-20.52-.42-.66-2.61-.91-3.52-.45-3.42,1.74-10.28,18.25-9.44,23.73C122,159.62,130,163.34,137.87,166.08Z"/></svg>