<svg id="Layer_25" data-name="Layer 25" xmlns="http://www.w3.org/2000/svg" viewBox="0 0 250 250"><title>dialogue-text-displayer</title><path d="M60.21,116.94c-.19-.45-.36-.65-.31-.76,6.51-15,1.44-12.82-8.68-14.37-6.36-1-10-4.48-11.6-10.45-5.31-19.24,6.44-35.23,27-35.75a71.07,71.07,0,0,1,21,3c12.44,3.58,18.77,15.28,16.23,28.19-2,10.3-12.28,17.44-24.4,16.92-2.08-.09-4.16-.39-6.52-.62C70.59,109.57,68.16,115.89,60.21,116.94Z"/><path d="M190.47,194.4c-8.29-1.71-11-7.4-12.78-13.61-4.46,0-8.54.45-12.47-.09-9.76-1.34-16.72-7.76-18.11-16.06-1.92-11.42,2.3-21.77,11.62-26,11.54-5.21,23.69-6.67,36-2.41,14.26,4.94,21.39,22.91,14,36.18-1.64,2.95-5.65,4.66-8.75,6.65-1,.66-2.64.34-4,.57-9.7,1.68-10.22,2.66-6.53,12.1C189.72,192.4,190,193.06,190.47,194.4Z"/><path d="M112.21,96.4c1.07-6.5,2-12.09,3.05-18.39,10.81,3,22.86,3.63,33,10.56,6.84,4.67,10.78,11,10.12,19.52s-6.61,13.07-13.82,15.37c-11.5,3.67-23.38,6.18-35,9.61A104.29,104.29,0,0,0,92,140c-4.28,2.18-4.16,5.48.06,7.8,3.13,1.72,6.78,3.35,10.24,3.46,12.19.42,24.39.17,37,.17V169c-3.55,0-7.78.53-11.83-.11-10.6-1.69-21.23-3.44-31.62-6.1-4.44-1.14-8.83-4-12.32-7.11-7.83-7-7-18.38,2.15-23.45,6.79-3.76,14.49-6,22-8.36,8-2.54,16.34-4.31,24.45-6.69A51.54,51.54,0,0,0,142.15,113c6.91-3.79,7.07-9.59-.24-12.64-5.69-2.38-12.21-3-18.43-3.84C119.73,96,115.85,96.4,112.21,96.4Z"/></svg>