<svg id="Layer_25" data-name="Layer 25" xmlns="http://www.w3.org/2000/svg" viewBox="0 0 250 250"><title>emitter</title><path d="M205.31,68.66c-1.7,18-12.78,24.8-27.53,25-12.14.17-26-15.44-25.66-27.73s14-26.51,25-25.92C192,40.81,205.92,55,205.31,68.66Z"/><path d="M67,210H51.61c-.07-14.81,3.55-28.51,8.72-42.83l-12.1,2.25L44.67,154.3l40.17-9.5c3.45,12.92,6.75,25.27,10.21,38.25L80.17,187.3c-1.41-4.55-2.76-8.87-4.48-14.4C69.49,185.26,67.84,197.47,67,210Z"/><path d="M128.14,66.8c12.19.13,23.43,11.27,23.27,23.07-.16,12.35-9.38,21.1-22.23,21.1-9.58,0-21.44-12.46-21.53-22.64S118.56,66.71,128.14,66.8Z"/><path d="M97.92,138c-7.54.08-16.39-9.19-16.27-17.06.12-7.1,8-15.57,14.64-15.82,8.59-.31,17.71,8.22,17.92,16.78C114.44,131,107.45,137.88,97.92,138Z"/></svg>