<svg id="Layer_25" data-name="Layer 25" xmlns="http://www.w3.org/2000/svg" viewBox="0 0 250 250"><title>follower</title><path d="M50,136.54l-9.07-5.12a29.66,29.66,0,0,1,2.8-1.55c6.12-2.08,7.57-6.85,7.57-12.66,0-13.5,16.32-27.09,27.29-27,14.62.16,28.62,13.21,28.17,28-.2,6.61.88,11.06,8.31,12.13-1.38,4.58-4.73,5.35-8,5.24-3.06-.1-4.47.94-5.93,3.52-12.51,22.16-41.79,27.81-62.16,16-1.36-.79-2.07-2.7-3.07-4.09,1.33-.74,2.58-1.79,4-2.15C46,147.32,48.94,143.73,50,136.54Zm23.9-21.78,0-2.09c-2.08-1.32-4.13-3.56-6.25-3.63-1.41,0-3.8,2.83-4.19,4.72-.62,3,1.93,5.08,4.69,4.7C70.17,118.17,72,116.06,73.88,114.76Zm24.3-2.28,0-2.19c-1.85-1.35-3.88-3.94-5.51-3.71-1.88.26-4.43,2.78-4.87,4.73-.7,3.06,2.13,4.81,4.91,4.44C94.67,115.49,96.38,113.63,98.18,112.48ZM81.37,128.57a69.92,69.92,0,0,0,7-4.35c.61-.47.35-2.06.49-3.14-.95.13-2.17-.06-2.79.46-3,2.52-5.75,3.11-8.85.17-.49-.47-1.85,0-2.8,0,.13,1-.11,2.61.48,3.06A57.55,57.55,0,0,0,81.37,128.57Z"/><path d="M152.59,125.46c5.42-8.17,7.41-19.46,22-16.21-4.73-5.64-6.88-10.93-4.58-16.58a19.11,19.11,0,0,1,6.37-8c6-4.23,14.16-2.45,18.79,3.39,5.23,6.61,4,14.3-3.88,22.14l5.25,3.92,7.94-8.65,9.55,9c-4.28,4.52-7.94,9.08-12.38,12.69-1.71,1.39-5.23,1-7.82.68-1.61-.2-3-1.85-4.53-2.85l-1.39.72c.87,2.08,1.3,4.53,2.7,6.16,3,3.46,6.6,6.35,9.6,9.78,1.29,1.47,2.5,3.78,2.34,5.59-.57,6.65-1.73,13.24-2.74,20.37l-12.56-2c.52-3.95.58-7.51,1.52-10.81,1.44-5-.53-8.14-5.14-10.9a50,50,0,0,0-2.41,6.14c-1.17,4.43-4,6.45-8.43,7-5.41.71-10.78,1.8-16.63,2.81-.69-4.09-1.35-8-2.12-12.45,3.14-.67,6.16-1.71,9.23-1.86,4.94-.24,7.59-2.42,8.86-7.25,1.41-5.36,4.76-10.28,3.22-16.33-8.34-2.38-7.77,6.31-12.19,9.67C160,129.79,156.51,127.76,152.59,125.46Z"/><path d="M123.43,107.46l24.14,19L123.43,142.8Z"/></svg>