<svg id="Layer_25" data-name="Layer 25" xmlns="http://www.w3.org/2000/svg" viewBox="0 0 250 250"><title>force-applier</title><path d="M110.18,201.05c-6-6.6-9.74-14-8.29-23.29.79-5,4.4-8.31,8.7-7.89s7,3.79,7.07,8.83c.07,8.32,3.19,12.23,10,12.47,6.56.24,12.45-5.59,12.79-12.67.39-8.11-4.78-15.09-13.31-16.07-10.37-1.18-20.86-1.39-31.31-1.75-17.09-.57-34.19-.92-51.28-1.38-1.88-.05-3.76-.17-5.94-.27V144.3c3.69,0,7.12-.05,10.54,0,24.08.38,48.16.65,72.23,1.25,11.61.28,22,3.78,29.17,13.74,9.43,13.08,7.72,28.2-4.7,41.75Z"/><path d="M37.16,132.75V117.2c2.08,0,4.09,0,6.09,0,37.67.67,75.33,1.45,113,2a201.11,201.11,0,0,0,29.16-1.27c3.72-.49,7.8-3.87,10.24-7,3.09-4,1.34-10.57-2.35-13.82a12,12,0,0,0-14.54-1,27.78,27.78,0,0,0-5.07,5.2c-3.49,4.26-8.06,5.34-11.87,2.61-3.62-2.6-4-7.55-1-12.12C168.41,80.11,181.2,75.38,194,79.47c12.35,3.94,19.53,14.7,18.8,28.16-.68,12.77-10.16,23.5-23.86,26.25a81.48,81.48,0,0,1-17.14,1.54c-43.79-.64-87.57-1.5-131.35-2.31C39.43,133.09,38.42,132.89,37.16,132.75Z"/><path d="M72.52,108.87c-9.58-.54-19.15-1.16-28.73-1.6-3.49-.16-4.36-1.69-3.92-5,1.62-12.28.14-10,11.25-10,16.89.06,33.82.45,50.66-.48,5.65-.32,11.47-3.63,16.53-6.7,4.1-2.49,5.93-7.61,3.4-12-1.89-3.28-5.45-6.58-8.95-7.69-4.65-1.47-8.79,1.61-11.19,5.88-2,3.65-4.54,6.3-9,5.54-6.11-1-8.35-6.9-5.15-13.06,5.17-10,17.56-16.3,28.52-14.52,11.16,1.82,20.83,12.27,22.34,24.13,1.62,12.79-6.75,26.19-20.8,31C110,107,101.89,107.78,94,108.52c-7.09.66-14.3.14-21.45.14Z"/></svg>