<svg id="Layer_25" data-name="Layer 25" xmlns="http://www.w3.org/2000/svg" viewBox="0 0 250 250"><title>gyroscope</title><path d="M82.77,210c-.85-4.57-1.42-9.21-2.68-13.67a13.82,13.82,0,0,0-3.93-6.44A78.83,78.83,0,0,1,55.28,97.07C67.77,69.6,98,51,128.4,52.39c4.15.18,6.47-.5,8-4.72,2.18-5.94,6.88-8.18,13.31-7.58,11.64,1.09,20.51,11.37,19.7,22.69-.14,1.94,1.57,4.6,3.22,6,24.85,20.87,35.11,54.12,25.72,84.07-10.39,33.14-43,55.75-78.11,54-2.89-.14-5.67-.73-6.41,3.18Zm36.31-50.35c-2.41,6.48-4.47,12.07-6.56,17.66-2.92,7.84,1.5,14.65,10,14.54,25.38-.34,45.23-11.29,57.09-33.7,12.45-23.51,9.06-46.7-6.16-68.07-4.69-6.59-9.26-14.53-20.26-10.14-2.5,1-4.42,1.13-5.43,4-4.66,12.92-9.52,25.77-14.24,38.66a10.2,10.2,0,0,0-.65,4,41.22,41.22,0,0,0,.92,5.23c-2.29.08-4.71.67-6.83.12a20.23,20.23,0,0,1-7.45-3.6c-2.85-2.29-3.22-4.8.82-6.8a8,8,0,0,0,3.64-3.91c4.84-12.64,9.5-25.35,14.12-38.07.5-1.4,1.18-3.67.52-4.4-3.7-4.09-5.85-10.8-13.73-8.56-3.21.91-6.78.5-10,1.33-23.32,6-40.8,19.36-48.26,42.7-7.34,23-2.26,44.06,13.76,62.27,3.72,4.22,7.36,9.16,14.16,4.93a3.51,3.51,0,0,1,2.36-.05c3.6.86,4.83-1.18,5.85-4.17,2-5.8,4.25-11.49,6.54-17.57Z"/><path d="M122.62,105.49c-3.06,5.44-2.42,12.12-9.27,15.41-3.57,1.71-3.67,7,0,9a84,84,0,0,0,19.53,8c4.19,1.12,8.32-3.61,6.84-7.44-2.68-6.91,2.1-11.54,3.8-19.17,9.63,6.69,18.59,12.15,26.61,18.77,5,4.11,7.9,10.33,5.32,17.2-2.49,6.67-8.4,8.16-14.85,9.13-29.55,4.43-53.74-6.93-75.34-25.53-4-3.41-7-8.15-9.66-12.75-3.08-5.38-1.24-10.06,4.29-12.91a25.81,25.81,0,0,1,5.62-1.89C95.39,101,113.13,101.89,122.62,105.49Z"/></svg>