<svg id="Layer_25" data-name="Layer 25" xmlns="http://www.w3.org/2000/svg" viewBox="0 0 250 250"><title>health-manager</title><path d="M119.86,207.13a70.53,70.53,0,0,0-5.11-5.12A356.13,356.13,0,0,1,52,135.66c-16.71-23-18.26-49.08-4.55-71.3C60.8,42.74,87,36.32,106.18,50.22c9,6.54,13.81,16.19,17.69,26.32.64,1.67,1.14,3.4,1.63,4.87,4.64-7.9,8.64-16.13,13.94-23.43,10.81-14.88,28.93-18.49,48.89-10.58,16.46,6.52,25.19,20.72,23.18,38.77-2,18.39-10.24,34.47-21.37,48.73-18,23.07-36.92,45.42-55.47,68.06-1.17,1.44-2.44,2.79-3.67,4.17Z"/></svg>