<svg id="Layer_25" data-name="Layer 25" xmlns="http://www.w3.org/2000/svg" viewBox="0 0 250 250"><title>health-modifier</title><path d="M119.86,207.13a70.53,70.53,0,0,0-5.11-5.12A356.13,356.13,0,0,1,52,135.66c-16.71-23-18.26-49.08-4.55-71.3C60.8,42.74,87,36.32,106.18,50.22c9,6.54,13.81,16.19,17.69,26.32.64,1.67,1.14,3.4,1.63,4.87,4.64-7.9,8.64-16.13,13.94-23.43,10.81-14.88,28.93-18.49,48.89-10.58,16.46,6.52,25.19,20.72,23.18,38.77-2,18.39-10.24,34.47-21.37,48.73-18,23.07-36.92,45.42-55.47,68.06-1.17,1.44-2.44,2.79-3.67,4.17ZM129.62,116l-3-10.51-7.43,2.08-5.54-9.28c1.21-2.39,2.31-4.58,3.69-7.33-3.13-1.69-6.11-3.29-9.07-4.9C102,96.7,100,96.33,92.24,83.32l-8.52,2.45c-.66,4-.16,7.76-1.83,9.61-4.1,4.55-9,3.18-13.4-1.09-1.56,3-2.86,5.33-4,7.75a11.82,11.82,0,0,0-.59,2.82c6.1,4.34,6.1,4.34,4.59,14l-8.59,2.76c1.59,3.8,2.89,6.91,4.15,9.94l6.51-1.67c2.59,5.6,8.81,10.37,1.85,16.94l9.24,6.05,4.09-7.29c6.71,0,12.5,1,12.1,9.5C108,153.4,108,153.4,107,144.21l7.87-5.9,6,3.43c1.06-1.74,2-3.09,2.75-4.52s1.53-3.2,2.24-4.72c-6.35-4.39-6.35-4.39-5.18-14.34Zm6.3,25.49,6.26,5.23.16-1.67c2.22-.63,4.71-2.2,6.57-1.65,2.47.74,4.44,3.15,6.62,4.84l-.78,1.8,6.93-.92-1.14-1.32,6-8.72,6.7,5.31c1.58-2.62,2.91-4.81,4.18-6.93-6.24-5.26-5-9,4.23-13.07-.47-2-1-4.13-1.43-6.13-8.78-.45-10.42-3.83-5.95-11.43-3.11-4.46-6.39-7.42-11.31.52l-8.09-10.73-4.25.47-6.72,10.64-6.44-4.87c-1.57,2.07-3,4-4.55,6l5.34,4.91-8.57,9.72-1.2-.8c.23,2,.46,4,.71,6.22l6.28.63C137.71,133.34,141.47,137,135.92,141.48Zm14.71,30c-1-2.26-1.35-5-2.77-5.79-5.66-3.27-6-3.93-1.87-9.74l-4-4.38c-6.57,3.45-8.4,2.34-10.24-6h-4.32c-2.28,3-4.1,5.36-6.14,8-2.15-2-3.46-3.18-6.08-5.6-.82,3-2.47,5.63-1.75,7,2.24,4.4-.67,6-3.24,8.14-1.72,1.44-3.21,3.15-5.45,5.37,8.88,2.76,10.13,5.93,6.29,12a27.29,27.29,0,0,0,1.79,2.37,26.91,26.91,0,0,0,2.15,1.93c5.1-3.21,7.3-2.47,9.57,2.55a4.38,4.38,0,0,0,3,2.21,4.28,4.28,0,0,0,3.4-1.64c3.71-6.3,4-6.41,10.05-1.56l3.78-4.44C140.91,176.21,142.2,173.44,150.63,171.45ZM165.79,62.52c-1.38,2-3.06,3.47-3.48,5.24-.73,3-1.47,5-5.17,3.68-.83-.29-2.69.25-2.95.88-.43,1,.18,2.43.15,3.68a70.91,70.91,0,0,1-.47,7.58c-.17,1.19-1.68,2.71-1.31,3.36.61,1.06,2.47,1.31,3.4,2.29a45.32,45.32,0,0,1,4.33,5.59c.69,1,.81,2.7,1.68,3.14a3.92,3.92,0,0,0,3.51-.48c2.77-2.3,5-3.34,7.27.67.18.33,4.85-1.06,4.83-1.53-.31-6.87,3.71-4.82,7.83-3.56.31-1.85,1.4-4.61.76-5.09-5.63-4.22-1.37-6.63,2.15-9.66-1.46-1.29-2.84-3.44-3.87-3.28-4.72.71-4.82-1.54-4.76-5.23,0-1.17-4.33-3.58-4.49-3.4C170.38,71.62,168.84,66.57,165.79,62.52ZM66.33,91.27l.18-1.71c3-.14,6-.11,9-.54.68-.1,1.84-2.06,1.59-2.65-2.41-5.53,5.27-3,4.94-6.23-.29-2.69-2.53-5.38-2.23-7.88.74-6.3-9.48-1.54-7.71-8.2-1.33,0-3.47-.43-3.84.18-1.75,2.91-3.37,3-5.93,1-.39-.31-3.77,1.91-3.64,2.33,1,3.26,0,4.71-3.34,4.71.08,3.89,0,7.79.34,11.65.06.78,1.72,2.17,2.39,2,3.46-.72,5.6-.12,5.81,3.94C63.88,90.39,65.47,90.81,66.33,91.27ZM92.22,73.84,93.64,81l6.76,4.18,6.73-1.46L111.62,78l-1.78-7.45-5.9-4L96,67.4Z"/><path d="M95.23,109.14c5.69.1,9.55,3.85,9.4,9.13-.19,7.2-3.94,11.4-10.07,11.3a9.61,9.61,0,0,1-9.53-10C85.18,112.61,88.69,109,95.23,109.14Z"/><path d="M162.79,126.77c-1.78,1.2-4.29,3.85-7.3,4.7-3.64,1-7.83-3.93-8-8.27-.15-5.22,3.62-6.57,7.52-7.25C158.76,115.29,162.64,120,162.79,126.77Z"/><path d="M136.63,168.28c-3.53,2.82-6.26,6.31-7.65,5.84-2.69-.91-5.9-3.71-6.59-6.34-1.07-4.07,2.56-6.75,6.26-6.11C131.1,162.1,133.09,165.2,136.63,168.28Z"/><path d="M177.18,82.19c-3.35,2.44-5.75,5.33-7.06,4.89-2.17-.72-4.25-3.34-5.1-5.63-.32-.87,3-4.44,4.47-4.29C171.7,77.39,173.69,79.75,177.18,82.19Z"/><path d="M73.8,77.38c-2.79,1.82-4.39,3.69-5.68,3.5-1.54-.23-2.82-2.22-4.21-3.45,1.23-1.36,2.45-3.82,3.67-3.82C69.24,73.61,70.9,75.49,73.8,77.38Z"/></svg>