<svg id="Layer_25" data-name="Layer 25" xmlns="http://www.w3.org/2000/svg" viewBox="0 0 250 250"><title>look-at-rotator</title><path d="M90.29,210.44l-16.9-9.09c2.58-3.75,4.8-7,7-10.22l20.82,10-1.55,9.29Z"/><path d="M119.6,210.44c.14-2.09.29-4.18.43-6.18l23.27-2.59,2.1,8.77Z"/><path d="M77.3,125.49l-9-7.41,7.54-9,8.79,7.12,4.41-4.17-7.76-9.64,9.24-7.71,6.86,9.09,5.9-2.74c-1.1-3.77-2.18-7.44-3.48-11.88l11.92-2.91c.86,4,1.6,7.55,2.65,12.49,3.1-1.34,6.87-1.79,8.22-3.84,1.63-2.48,1.21-6.3,1.78-10.27l13,2c-.8,3.86-1.48,7.18-2.14,10.36,10.09,8.4,10-4.22,15-7.2l10.32,7.27-8.07,10.15,7.76,6.39,7.79-11,1.18,1.2c.18.05.41,0,.54.15,9.55,8.16,9.56,8.26.72,16.51-.85.79-1.83,1.45-2.75,2.17.85,1.26,1.37,2.08,1.94,2.86,9.44,12.87,8.95,14.38.05,27.81-16.34,24.66-46.36,27.44-65.86,21.7-9-2.64-15.35-9.09-20.73-16.46a75.3,75.3,0,0,1-5.55-8.94C71,137.3,71.09,137.28,77.3,125.49Zm40.93,38.05c20.29-.6,33-6,40.36-20.52.81-1.6,1.63-3.77,1.19-5.32-2.57-9.07-20.29-25.59-30.17-26.37-17.4-1.35-35.29,8.78-40.92,25-.53,1.54,0,3.83.83,5.4C96.41,155.5,106.18,165,118.23,163.54Z"/><path d="M178.21,39.56c2.65,10.81,5.33,21.13,7.57,31.55.29,1.35-1.4,4.24-2.71,4.64-9.07,2.76-18.29,5-27.37,7.47-.4-.44-.78-.68-.89-1-3.93-11.57-3.89-12.16,7.91-14.67,6-1.29,7.12-4,5.62-9.34-1.3-4.64-2.14-9.42-3.3-14.68Z"/><path d="M49.12,141.21l-11.9,1.63V115.36l11.9,2.06Z"/><path d="M57.86,71.38l9.49,8.52L54.52,99.62,43.1,94.76Z"/><path d="M200.3,126.16c-1.9-8-3.64-15.34-5.54-23.39l11.81-4.37c2.1,8.92,4,17.16,6.21,26.44Z"/><path d="M148.24,45.36c-1.71,5.17-2.9,8.8-4,12.23l-23-2.47c-.19-3.57-.39-7.38-.66-12.57Z"/><path d="M99.05,45.59c1.36,4.79,2.41,8.49,3.5,12.31L81.39,67.7,74.28,57.45Z"/><path d="M202,172.82l-10.89-6.42,8.23-21.83,12.35,2.07C208.38,155.51,205.34,163.73,202,172.82Z"/><path d="M42.39,163.72l11.82-4.85c4,6.52,8,12.91,12.29,19.9l-9.14,8.39C52.35,179.33,47.65,172,42.39,163.72Z"/><path d="M166.78,206.18l-6-11.3,18.72-13.94,9.27,8.51Z"/><path d="M143.27,139.93c-.3,10.58-8.79,18.22-19.76,17.78-9.29-.38-18.31-10.15-18.14-19.67a18.79,18.79,0,0,1,19.53-18.35C135.59,120.12,143.59,128.94,143.27,139.93Z"/></svg>