<svg id="Layer_25" data-name="Layer 25" xmlns="http://www.w3.org/2000/svg" viewBox="0 0 250 250"><title>mover</title><path d="M172,140.05c0,10.71-.17,21.43.07,32.13.12,5.43-1.79,8.87-6.8,11.34-16.35,8-32.57,16.33-48.73,24.73a12.82,12.82,0,0,1-12.91,0Q79,195.5,54.3,183.11c-4.44-2.22-6.3-5.27-6.27-10.24q.24-32.13,0-64.28c0-5,1.94-8,6.29-10.25,16.53-8.67,32.82-17.84,49.52-26.17a15.46,15.46,0,0,1,11.94-.23c16.86,8,33.29,16.88,50,25.17,4.79,2.37,6.58,5.65,6.48,10.81-.21,10.7-.07,21.42-.07,32.13Zm-62.76,62.48,2.41.06a81.25,81.25,0,0,0,1.22-8.58c.64-17.53,1.26-35.06,1.64-52.6.09-4.38,1.63-6.87,5.64-8.94,13.77-7.07,27.33-14.57,40.89-22,1.95-1.07,3.51-2.86,5.26-4.32L165,104.52a42.75,42.75,0,0,0-4.93,1.54c-15,6.63-29.88,13.5-45,19.81a14.28,14.28,0,0,1-9.94,0c-14.92-6.19-29.59-13-44.38-19.48-1.9-.84-4-1.34-5.93-2l-1,1.85a40.75,40.75,0,0,0,5.2,4c13.77,7.57,27.51,15.2,41.47,22.41,3.79,2,5.21,4.29,5.35,8.38.64,18.44,1.48,36.88,2.32,55.31A46.37,46.37,0,0,0,109.19,202.53Z"/><path d="M140.52,72.8,169,53.66l-.5-1.32c-3.76,0-7.51,0-11.27,0-5.13,0-4.83-3.52-4.91-7.08-.09-3.74,1.3-5.35,5.19-5.27,10.91.24,21.83.25,32.74.32,4.84,0,7.44,2.11,8.07,7.18.95,7.64,2.43,15.21,3.67,22.75-11.77,3-12.09,2.78-16.41-10.34-7.54,5-14.85,9.76-22.15,14.58C152.21,81.88,152.22,81.89,140.52,72.8Z"/></svg>