<svg id="Layer_25" data-name="Layer 25" xmlns="http://www.w3.org/2000/svg" viewBox="0 0 250 250"><title>number-displayer</title><path d="M99.48,170.15c-16,0-31-.32-45.87.12-8.59.25-14.94-4.28-15-12.89q-.39-40.95-.23-81.91c.06-10.28,6.2-15.32,17.82-15.39,19.75-.14,39.5,0,59.24-.23,28-.29,56-.75,84-1.19,8.31-.14,12.23,3.22,12.27,11.54.11,29.86,0,59.73,0,89.6a31.19,31.19,0,0,1-.47,4.61c-.62,4.13-2.62,6.17-7.23,6.11-15.44-.19-30.88,0-46.31,0-2.22,0-4.44,0-6.66,0-.08,7.33,1.82,9.58,8.54,10.3,9.21,1,18.41,2.3,27.65,2.74,5.32.25,6.41,2.53,5.64,7.45h-4.64q-62.35.06-124.7.08c-2.24,0-5.71,1.38-5.77-2.94-.05-3.56,2.27-4.27,5.46-4.55,9.56-.85,19.08-2.16,28.64-3.11C97.88,179.94,96.69,174.48,99.48,170.15ZM125,77v1.66c-20.42,0-40.83,0-61.25,0-3.82,0-5.86,1.34-5.85,5.32q.15,31.41.23,62.81c0,4.54,1.95,6.2,6.59,6.18,39.29-.16,78.57,0,117.86-.18,10.15,0,10.84-.55,10.91-10.72.13-18.7-.25-37.4-.51-56.1-.11-8.36-.95-9-9.3-8.94C164.12,77.05,144.56,77,125,77Z"/><path d="M138.79,126.34c2-4.07,4-6.78,9.23-3.58,3.87,2.35,8,.07,9.22-4.15s-.82-8-5.27-8.91a49.53,49.53,0,0,0-5.51-.58c-3.68-6.86,3.16-9.13,6.12-13.77H141.1c-2.27-7.87-1.53-8.92,5.81-8.93H164.2c4.11,8.07-2.68,11-6.25,15.3,10,7.41,12.29,17,5.86,24.7C158.53,132.69,149.17,135.49,138.79,126.34Z"/><path d="M115.93,115.85l-6.33-3c.77-5.74,4.64-8.12,9.23-9.3,6.46-1.68,12.25.44,14.91,5.28,2.42,4.42,2.48,9-1,13-2.56,3-5.57,5.6-8.18,8.55-1.62,1.83-2.88,4-5,7h16.54v8.1c-8.07,0-15.76.12-23.43-.16-.88,0-2.33-2.26-2.4-3.53a18.84,18.84,0,0,1,6.22-15.23c2.35-2.26,4.89-4.33,7.22-6.61,2-2,4.14-4.44,1.48-7s-5.65-1.69-7.91,1.2Z"/><path d="M88.44,102.76c-1.65-2.73-3.14-5.18-4.94-8.14,5-3.77,9.23-8.08,16.13-7.73,2.59.13,3.79.64,3.79,3.39,0,11.33.14,22.66.17,34,0,7-5,4.16-9.25,4.57V99.56Z"/></svg>