<svg id="Layer_25" data-name="Layer 25" xmlns="http://www.w3.org/2000/svg" viewBox="0 0 250 250"><title>rocket-rotator</title><path d="M90.27,210.39l-16.92-9.1,7-10.23,20.84,10-1.55,9.3Z"/><path d="M119.61,210.39l.43-6.18,23.29-2.6c.62,2.57,1.36,5.68,2.1,8.78Z"/><path d="M158.78,180.22C153,175.59,148.47,172,144,168.34c-3.19-2.6-6.14-3.73-10.55-1.76a15.68,15.68,0,0,1-10.74.41c-5.16-1.88-8.55-.16-12.1,3-4.12,3.62-8.34,7.13-13.75,11.74-1.52-10.6.89-18.48,4.91-25.87,1.69-3.1,1.7-5.39.33-8.6-8.73-20.3-2.54-49.94,13.37-65.39,9.41-9.14,19.41-8.84,26.65,2.28,12.38,19,16.46,39.81,10,62.16a11.81,11.81,0,0,0,.82,7.84C156.78,161.79,160.61,169.33,158.78,180.22Zm-32.95-63.45c6,.07,10.58-4.3,10.54-10.07a10.55,10.55,0,0,0-21.09-.16A10.42,10.42,0,0,0,125.83,116.77Zm2.3,9.36-2.81-.07c-1.66,2.33-4.27,4.48-4.74,7-.7,3.78,2.13,6.13,5.94,6.21s6.78-2,6.12-5.92C132.21,130.78,129.71,128.53,128.13,126.13Z"/><path d="M155.69,83.05c-.48-.53-.68-.65-.73-.82-4.16-13.94-4.28-11.41,8.16-15,5-1.42,7.07-3.37,5.41-8.46a31.51,31.51,0,0,1-.93-4c-2.48-13.5-5.69-10.83,10.71-15.23,2.59,10.54,5.31,21,7.58,31.65.27,1.26-1.66,4-3.07,4.43C173.92,78.38,164.88,80.62,155.69,83.05Z"/><path d="M37.11,115.13l12,2.17V141l-12,1.79Z"/><path d="M54.39,99.56,43.06,94.5,57.7,71.3l9.59,8.42Z"/><path d="M212.89,124.83,200.4,126c-1.89-7.93-3.68-15.43-5.57-23.39l11.79-4.43C208.71,107.11,210.69,115.49,212.89,124.83Z"/><path d="M148,45.26c-1.51,4.94-2.62,8.57-3.7,12.12l-23-2.45c-.21-3.59-.43-7.5-.72-12.69Z"/><path d="M99.11,45.26c1.39,5.2,2.38,8.92,3.36,12.56l-21,9.6L74.2,57.37Z"/><path d="M191.17,166.32c2.86-7.61,5.44-14.47,8.23-21.87l12.37,2.09-9.71,26.17Z"/><path d="M179.68,180.79c2.74,2.59,5.4,5.12,9.11,8.62L167,206l-6.23-11.14Z"/><path d="M42.33,163.62l11.74-4.81,12.34,19.92-9.11,8.36C52.3,179.24,47.59,171.87,42.33,163.62Z"/></svg>