<svg id="Layer_25" data-name="Layer 25" xmlns="http://www.w3.org/2000/svg" viewBox="0 0 250 250"><title>rotator</title><path d="M91.22,208.2l-16.44-8.85,6.82-9.95,20.27,9.76c-.48,2.86-1,6-1.51,9Z"/><path d="M119.76,208.2c.14-2,.29-4.07.42-6l22.66-2.53,2,8.54Z"/><path d="M171,131.35c0,8.17-.11,16.34.05,24.51.07,3.84-1.19,6.41-4.75,8.21-13,6.6-25.92,13.52-39,20a9.56,9.56,0,0,1-7.35,0c-13.13-6.42-26-13.3-39.09-19.86-3.34-1.68-4.63-4-4.61-7.67.1-16.53-.13-33.06.24-49.59a9.84,9.84,0,0,1,4.23-7.09c12.68-7.25,25.59-14.13,38.63-20.73a10.14,10.14,0,0,1,7.87-.07c13.19,6.29,26.27,12.83,39.11,19.8,2.25,1.22,4.31,4.82,4.49,7.46C171.31,114.6,171,123,171,131.35ZM166.77,106l-.71-1.63a38.43,38.43,0,0,0-5.38,1.47c-11.14,4.86-22.17,10-33.4,14.62a11.2,11.2,0,0,1-7.72,0c-11.4-4.74-22.59-10-33.91-14.89a21.74,21.74,0,0,0-4.7-.92l-.51,1.59c1.53,1,3,2,4.59,2.85,10.36,5.61,20.69,11.27,31.15,16.69,2.63,1.36,3.91,2.71,4,5.94.38,14.06,1.12,28.11,1.79,42.16a41.48,41.48,0,0,0,.87,5.14l1.7.05a32.21,32.21,0,0,0,1-5c.54-13.67,1.21-27.35,1.34-41,0-4.07,1.5-6,4.9-7.78,10.14-5.2,20.14-10.69,30.16-16.12C163.6,108.21,165.15,107.06,166.77,106Z"/><path d="M155,84.33c-.49-.4-.71-.5-.76-.65C150,72.7,150.39,71.59,162,69c5.44-1.21,6.74-3.64,5.34-8.69-1.3-4.68-2.13-9.5-3.25-14.63l12.79-3.9c2.58,10.67,5.19,21.06,7.48,31.53.23,1-1.3,3.34-2.41,3.67C172.88,79.65,163.78,82,155,84.33Z"/><path d="M39.53,115.55l11.68,2.12v23l-11.68,1.75Z"/><path d="M68.9,81.11,56.37,100.33,45.3,95.54,59.54,72.91Z"/><path d="M192.92,103.4l11.46-4.3,6.09,25.8-12.12,1.29Z"/><path d="M143.8,59.43,121.27,57l-.55-12.23,26.86,2.79C146.08,52.25,145,55.79,143.8,59.43Z"/><path d="M99.75,47.66l3.38,12.11L82.59,69.18l-7-9.86Z"/><path d="M189.36,165.34c2.79-7.4,5.29-14.07,8-21.28l12,2L200,171.56Z"/><path d="M165.71,204.06c-2.4-4.54-4.15-7.83-5.86-11.06l18.3-13.52,8.93,8.36Z"/><path d="M56,158c4.06,6.55,7.93,12.78,12,19.44L59,185.54,44.73,162.68Z"/></svg>