<svg id="Layer_25" data-name="Layer 25" xmlns="http://www.w3.org/2000/svg" viewBox="0 0 250 250"><title>rumbler</title><path d="M65.73,188.59a23.3,23.3,0,0,1-9-17c-.58-6.88-1.09-13.9-.32-20.71,1.84-16.21,3.91-32.42,10.58-47.63a14.87,14.87,0,0,1,21.86-6.4,8.09,8.09,0,0,0,5,1.19q30.3-3.2,60.56-6.71a6.66,6.66,0,0,0,3.95-1.7c6.77-7.55,17.16-7.24,23.76.52a63.11,63.11,0,0,1,12.4,23c3.87,13,7.22,26.09,10.45,39.24.9,3.67.81,7.64.75,11.47-.09,5.49-2.92,9.28-8.07,11.26-5.32,2-10.43,1.24-13.86-3.16A246.07,246.07,0,0,1,168,149.28c-2.81-4.58-2.61-5-7.29-2.09-4.33,2.69-8.91,2.86-13.77,1.46a31.45,31.45,0,0,0-9.32-1.52A103.15,103.15,0,0,0,122,148.75a22,22,0,0,0-7.35,3.3c-4.61,2.88-9.31,3.83-14.46,1.79-4.8-1.89-5.28-1.35-6.66,3.82-1.78,6.68-4,13.26-6.25,19.77a19.26,19.26,0,0,1-10.45,11.16ZM105,148.81c5.54.06,9.67-3.76,9.64-8.91,0-5.32-3.57-9.18-8.35-9.11-5.93.1-9.58,3.74-9.54,9.52C96.75,145.44,100,148.75,105,148.81Zm56.5-13.89c-.05-5.46-3.7-9.7-8.35-9.71a9.83,9.83,0,0,0-9.64,9.73c.13,4.69,4.22,8.35,9.25,8.28C158.5,143.15,161.53,140.27,161.47,134.92Zm-74.95-21c-.63-3.71-1.45-5.9-4.82-5.58-2.36.23-5.32.24-5,3.93.27,3.24,1.38,6.65,5,6.56C83.35,118.81,84.91,115.67,86.52,113.94Zm4.06,12.33c3.53-.83,5.76-1.58,5.34-5-.29-2.36-.17-5.19-4-4.82-3.39.33-6.53,1.73-6.52,5.13C85.39,123.14,88.75,124.7,90.58,126.27Zm-17.1,2.22c2-1.93,5.58-3.77,5.7-5.8.18-3.18-3.41-4-6.5-4-2.86-.05-4.34,1.07-4,4C68.92,125.17,68.91,127.85,73.48,128.49Zm99-30.56c-3.47,0-5.75,1.42-5.81,4.78-.06,3.15,2.38,5.22,5,4.66,1.93-.4,4.21-2.88,4.81-4.89C177.3,99.75,175.17,98.05,172.48,97.93ZM77.92,129.62c.69,3.73,1.52,5.77,4.94,5.46,2.44-.21,5.22,0,5-3.81-.21-3.41-1.69-6.52-5.09-6.58C81.18,124.66,79.54,127.88,77.92,129.62Zm83.52-10.87,2,0c1.27-1.77,3.35-3.42,3.63-5.33a4,4,0,0,0-4.85-4.61c-1.69.28-4.34,2.7-4.25,4C158.08,114.89,160.17,116.79,161.44,118.75Zm17.48,3.45-.09-2c-1.72-1-3.63-3-5.1-2.72-1.9.37-3.44,2.58-5.13,4,1.73,1.64,3.28,4.23,5.26,4.61C175.25,126.34,177.22,123.6,178.92,122.2Zm3.69-4.48c2.1-3,4.35-4.79,4.11-6.17-.33-1.87-2.31-4.42-4-4.86a4,4,0,0,0-4.88,4.54C178,113.08,180.25,114.68,182.61,117.72Z"/><path d="M36,105.51C37.14,93.32,41.1,83,51.06,75.74c2.6-1.9,5.33-3.09,7.51.3,2,3.18-.21,5-2.64,6.72-8.16,5.91-11.11,14.37-11.45,24,0,1.22.5,2.65,0,3.63-.66,1.34-2,3.21-3.1,3.27a5.45,5.45,0,0,1-4.34-2.27C36.1,109.65,36.25,107.29,36,105.51Z"/><path d="M214,93.6c-.68.65-2.12,3.13-3.66,3.19S206.21,94.58,206,93C204,81.72,198,74,187.65,69.16c-1.41-.66-2.57-3.73-2.29-5.42.17-1.06,3.5-2.64,5-2.28C201.39,64.07,214.1,80.76,214,93.6Z"/><path d="M200.67,96.48c-.66.68-1.82,2.85-3.24,3s-4.22-1.28-4.57-2.54a27.41,27.41,0,0,0-11.34-15.66c-1.11-.77-1.73-3.83-1.09-5.07s3.36-2.36,4.8-2C191.49,75.76,200.64,88.61,200.67,96.48Z"/><path d="M50,108.81c.66-9.92,3.87-16.84,10-22.39,2.06-1.88,4.39-2.72,6.53-.59,2.33,2.31,1.53,4.66-.78,6.74a21.68,21.68,0,0,0-7.23,15c-.23,3-1.48,5.55-4.66,4.86C52,112,50.7,109.54,50,108.81Z"/></svg>