<svg id="Layer_25" data-name="Layer 25" xmlns="http://www.w3.org/2000/svg" viewBox="0 0 250 250"><title>subtitle-displayer</title><path d="M99.33,170.35c-16.1,0-31.08-.32-46,.12-8.62.25-15-4.3-15.06-13q-.4-41.13-.23-82.27C38,64.92,44.22,59.87,55.9,59.8c19.32-.13,38.63,0,58-.23,28.62-.3,57.24-.76,85.86-1.2C208.05,58.24,212,61.61,212,70c.12,30,.05,60,0,90a31.61,31.61,0,0,1-.48,4.63c-.62,4.16-2.65,6.18-7.28,6.12-15.5-.19-31,0-46.51.05h-6.69c0,7.42,1.84,9.62,8.62,10.35,9.25,1,18.49,2.27,27.76,2.75,4.93.25,6.46,2.16,5.73,7.13-1.33.11-2.79.33-4.24.33q-62.88.1-125.75.1c-2.26,0-5.74,1.37-5.78-3,0-3.58,2.31-4.28,5.5-4.56,9.43-.84,18.81-2.28,28.25-3C97.67,180.37,96.56,174.84,99.33,170.35ZM125.17,76.8v1.66c-20.51,0-41,.08-61.52-.06-4.57,0-6.09,2-6.09,6.22,0,12.93-.27,25.86-.23,38.79,0,8.1.48,16.19.62,24.29.07,4,1.95,5.38,5.82,5.32,4.64-.07,9.29.54,13.94.52q52.49-.25,105-.66c10.37-.1,11.06-.58,11.13-11.13.12-18.61-.26-37.22-.52-55.83-.12-8.57-1-9.19-9.69-9.15C164.12,76.87,144.64,76.8,125.17,76.8Z"/><path d="M177.92,121.39c.71,6,1.31,11.09,1.94,16.51a18.64,18.64,0,0,1-3,.56c-18.06.39-36.12.58-54.17,1.21-4.88.17-6.55-1.57-6.25-6.11.11-1.71.06-3.43,0-5.15-.11-3,1.3-4.42,4.28-4.54C139.62,123.07,158.49,122.23,177.92,121.39Z"/><path d="M108.88,140c-11.81,0-22.78.13-33.76-.06-4.75-.08-3.44-4.48-4-7.12-.58-3-.82-7,3.51-7.25,10.45-.72,20.93-1,31.4-1.13.92,0,2.6,1.78,2.68,2.83C109.07,131.26,108.88,135.34,108.88,140Z"/></svg>