<svg id="Layer_25" data-name="Layer 25" xmlns="http://www.w3.org/2000/svg" viewBox="0 0 250 250"><defs><style>.cls-1{fill:#1e1e1e;}.cls-2{fill:#242424;}.cls-3{fill:#191919;}.cls-4{fill:#1d1d1d;}.cls-5{fill:#202020;}.cls-6{fill:#313131;}.cls-7{fill:#212121;}.cls-8{fill:#1a1a1a;}.cls-9{fill:#1b1b1b;}.cls-10{fill:#1f1f1f;}.cls-11{fill:#1c1c1c;}.cls-12{fill:#171717;}.cls-13{fill:#131313;}.cls-14{fill:#0f0f0f;}.cls-15{fill:#101010;}.cls-16{fill:#141414;}.cls-17{fill:#111;}.cls-18{fill:#0e0e0e;}.cls-19{fill:#151515;}.cls-20{fill:#0b0b0b;}</style></defs><title>teleporter</title><path d="M140.63,101.76c-7.84,14.33-1.7,29.09-5.9,42.8a6.06,6.06,0,0,1-3.27-4.49c-1.88-14.09-4-28.2.65-42.19A5.23,5.23,0,0,0,132,95c-.55-3.37.73-5.37,4.3-5.89,3.94-.58,7.84-1.42,11.76-2.12,3.08-.55,3.9-2.11,1.48-4.27-4.62-4.13-4.41-9.51-3.9-14.79.46-4.77,4.46-7,10.43-7.08,4.94,0,7.25,2.92,7.3,7.08.07,5.28,2.7,11.42-3.81,15.33-1.77,1.06-1.55,2.93.94,3.45a15.75,15.75,0,0,0,4,.5c10.44-.54,16.77,5.55,22,13.51.73,1.11,1.42,2.23,2.15,3.33.08.11.3.12.68.27,5.33-7.73,13.37-12.38,21.14-17.51-5.78,9.71-9.72,20.8-21,26.09a3.15,3.15,0,0,1-4.07-.79c-3.15-3.91-7.92-6.13-10.65-10.41-1.67-2.62-3.27-2-4.31.25-1.87,4-3.42,8.18-5.05,12.31a2.08,2.08,0,0,0,.42,2.24c2.44,3.09,3.05,6.95,3.94,10.63.81,3.36,1.39,6.66,3.15,9.82,2,3.61,1.38,7.81.23,11.7-2.81,9.49-1.27,19.82-5.65,29-.72,1.53.29,2.53,1.43,3.31.67.46,1.54.63,2.23,1.07,2,1.25,4.69,2.83,3.38,5.24-1.09,2-4,2.64-6.66,1.49-2.13-.92-4.43-1.5-6.47-2.57-2.54-1.33-3.54-3.61-2.2-6.29.77-1.52,1.6-2.93,1.3-4.67-1.12-6.35,1.53-12.41,1.48-18.73a31.17,31.17,0,0,0-.86-6.69c-.79-3.57-2.4-7.26-1-10.78,1.72-4.45,0-5.17-3.81-4.67-.81.1-1.65,0-3.46,0,5.75,8.65.3,17.05.89,25.46.49,7.08.84,14.2,2,21.17.61,3.67-.07,5.66-3.35,7.12-3,1.35-5.93,3-9.34,3.24-1.41.1-2.89-.17-3.53-1.4-.82-1.58.69-2.59,1.78-3.05,7.09-3,7.08-8,4.35-14.09-1.28-2.88-1.45-6.08-1.53-9.29-.1-3.9-.13-7.82-1.88-11.57-3.07-6.57-1.43-13.36,0-19.95,1.2-5.29,1.25-10.65,3.9-16C148.31,111.55,142.53,107.35,140.63,101.76Z"/><path class="cls-1" d="M80,182.64c1.4.65,3,1.19,2.63,3.1-.32,1.52-1.3,2.84-3.1,2.53a2.53,2.53,0,0,1-2.3-2.76A2.86,2.86,0,0,1,80,182.64Z"/><path class="cls-2" d="M61.16,169.74a2.39,2.39,0,0,1-2.41,2.43,2.67,2.67,0,0,1-3-2.59c-.18-1.88,1.16-2.73,2.69-2.83C60.24,166.62,60.91,168,61.16,169.74Z"/><path class="cls-3" d="M55.43,89.65a2.5,2.5,0,0,1-2.71,2.65c-1.78,0-2.59-1.29-2.69-2.86s1-2.28,2.46-2.45C54.37,86.76,55,88,55.43,89.65Z"/><path class="cls-4" d="M58.53,108.23c-.57,1.42-1.46,2.4-3,2.17a2.57,2.57,0,0,1-2.34-3.2,2.44,2.44,0,0,1,2.9-2.14A2.85,2.85,0,0,1,58.53,108.23Z"/><path class="cls-5" d="M61.39,184.69c-.39,1.78-1.38,2.84-3.13,2.65a2.74,2.74,0,0,1-2.45-2.73c-.13-1.88,1.25-2.75,2.81-2.81C60.45,181.73,61,183.31,61.39,184.69Z"/><path class="cls-1" d="M82.86,97.17a2.91,2.91,0,0,1-2.73-3,2.75,2.75,0,0,1,2.94-2.68c1.52,0,2.24,1.31,2.42,2.65C85.73,96,84.31,96.66,82.86,97.17Z"/><path class="cls-6" d="M63.43,61.05a2.76,2.76,0,0,1-2.75,3.06c-1.74.18-2.72-1-2.84-2.66a2.71,2.71,0,0,1,2.69-2.9C62.33,58.34,62.87,59.93,63.43,61.05Z"/><path class="cls-7" d="M70.82,60.87c0,1.7-.77,2.74-2.32,2.88s-3-.55-3.07-2.42a2.53,2.53,0,0,1,2.23-2.86A2.89,2.89,0,0,1,70.82,60.87Z"/><path class="cls-5" d="M42.36,114.48c1.53.47,2.61,1.33,2.52,3.1a2.27,2.27,0,0,1-2.67,2.21,2.41,2.41,0,0,1-2.53-2.9A2.75,2.75,0,0,1,42.36,114.48Z"/><path class="cls-7" d="M110.32,98a2.66,2.66,0,0,1-2.79,2.75,2.52,2.52,0,0,1-2.78-2.18,2.72,2.72,0,0,1,2.48-3.09C108.9,95.2,109.76,96.59,110.32,98Z"/><path class="cls-8" d="M42.56,137.11a2.77,2.77,0,0,1-2.51-3,2.39,2.39,0,0,1,2.58-2.39,2.52,2.52,0,0,1,2.55,2.46C45.34,135.94,44.13,136.71,42.56,137.11Z"/><path class="cls-5" d="M54,137.16c-1.61-.46-2.69-1.36-2.47-3.16a2.45,2.45,0,0,1,2.7-2.33,2.59,2.59,0,0,1,2.47,3.09C56.5,136.28,55.37,136.92,54,137.16Z"/><path class="cls-9" d="M48.14,92.77c-.07,1.44-.59,2.55-2.18,2.76a2.51,2.51,0,0,1-3.07-2.39,2.4,2.4,0,0,1,2.18-2.77C46.85,90.07,47.79,91.1,48.14,92.77Z"/><path class="cls-10" d="M76.31,171.9a2.55,2.55,0,0,1,2.47,3,2.29,2.29,0,0,1-2.58,2.36,2.7,2.7,0,0,1-2.54-3C73.77,172.67,74.87,172,76.31,171.9Z"/><path class="cls-11" d="M98,113.35c-1.59-.47-2.53-1.48-2.3-3.22A2.38,2.38,0,0,1,98.51,108c1.81.13,2.58,1.39,2.3,3.09A2.62,2.62,0,0,1,98,113.35Z"/><path class="cls-12" d="M63.65,176.86A3,3,0,0,1,61.12,180c-1.83.3-2.63-1-2.72-2.66a2.67,2.67,0,0,1,2.67-2.91C62.59,174.31,63.34,175.46,63.65,176.86Z"/><path class="cls-1" d="M78.64,90.2c-.15,1.75-1.08,2.92-2.8,2.88a2.36,2.36,0,0,1-2.53-2.48c0-1.43.72-2.76,2.2-2.89A2.77,2.77,0,0,1,78.64,90.2Z"/><path class="cls-10" d="M56.05,130.39c-1.8-.35-3-1.06-2.94-2.9.08-1.4.77-2.73,2.31-2.73s3,.68,3.08,2.54S57.41,129.9,56.05,130.39Z"/><path class="cls-10" d="M72.57,114.45c-.36,1.52-1.18,2.74-2.95,2.48a2.63,2.63,0,0,1,.61-5.23A2.57,2.57,0,0,1,72.57,114.45Z"/><path class="cls-12" d="M71.69,65.33A2.55,2.55,0,0,1,74,68.41a2.34,2.34,0,0,1-2.73,2.15,2.28,2.28,0,0,1-2.4-2.49A2.61,2.61,0,0,1,71.69,65.33Z"/><path class="cls-13" d="M72.83,75.67c-.26,1.41-.89,2.79-2.78,2.62a2.4,2.4,0,0,1-2.47-2.56c.08-1.71,1-2.84,2.83-2.74A2.28,2.28,0,0,1,72.83,75.67Z"/><path class="cls-8" d="M76.62,123.46a2.42,2.42,0,0,1-2.78,2.26,2.49,2.49,0,0,1-2.57-3A2.53,2.53,0,0,1,74,120.42C76,120.42,76.36,121.94,76.62,123.46Z"/><path class="cls-3" d="M85.82,191.55a2.6,2.6,0,0,1-.25-5.2,2.56,2.56,0,0,1,2.72,2.78A2.27,2.27,0,0,1,85.82,191.55Z"/><path class="cls-3" d="M81.24,157.58c-.36,1.65-1.07,2.93-2.88,2.81a2.54,2.54,0,0,1-2.46-2.57,2.68,2.68,0,0,1,5.34-.24Z"/><path class="cls-12" d="M94.15,102c1.9.16,2.95,1.18,2.93,2.85a2.41,2.41,0,0,1-2.53,2.49,2.61,2.61,0,0,1-2.8-2.78C91.75,103,93,102.36,94.15,102Z"/><path class="cls-3" d="M64.19,133.83a2.54,2.54,0,0,1-2.52,2.58c-2,.09-2.71-1.19-2.62-2.87a2.35,2.35,0,0,1,2.7-2.31C63.43,131.27,64,132.36,64.19,133.83Z"/><path class="cls-3" d="M82.33,101.47a2.73,2.73,0,0,1-2.24,2.77A2.57,2.57,0,0,1,77,101.8a2.51,2.51,0,0,1,2.14-2.92A2.89,2.89,0,0,1,82.33,101.47Z"/><path class="cls-12" d="M50.59,186.21a2.31,2.31,0,0,1,2.68,2.21,2.46,2.46,0,0,1-2.43,3c-1.87.11-2.71-1.13-2.72-2.74A2.32,2.32,0,0,1,50.59,186.21Z"/><path class="cls-14" d="M58.41,73.07A2.48,2.48,0,0,1,61,75.58a2.63,2.63,0,1,1-5.24.37C55.56,74.07,56.76,73.33,58.41,73.07Z"/><path class="cls-5" d="M63.11,87C63,89,62,89.75,60.52,89.77c-1.74,0-2.8-.9-2.7-2.69A2.66,2.66,0,0,1,63.11,87Z"/><path class="cls-15" d="M68.31,90.44c-1.83-.39-2.79-1.35-2.53-3.13.22-1.48,1.09-2.44,2.68-2.23a2.48,2.48,0,0,1,2.39,3.06A2.41,2.41,0,0,1,68.31,90.44Z"/><path class="cls-13" d="M64.63,77.37a2.57,2.57,0,0,1,2.22,2.79,2.24,2.24,0,0,1-2.56,2.37c-1.8,0-2.81-1-2.51-2.87A2.65,2.65,0,0,1,64.63,77.37Z"/><path class="cls-15" d="M116,93a2.61,2.61,0,0,1-2.39,2.69,2.62,2.62,0,1,1-.67-5.2C114.78,90.16,115.5,91.5,116,93Z"/><path class="cls-16" d="M42.59,97.45a2.7,2.7,0,0,1,2.57,2.49A2.26,2.26,0,0,1,43,102.7a2.38,2.38,0,0,1-2.89-2.56A2.66,2.66,0,0,1,42.59,97.45Z"/><path class="cls-13" d="M69,135.72a2.5,2.5,0,0,1-2.44-2.55c0-1.66.92-2.89,2.68-2.69a2.54,2.54,0,0,1,2.47,3C71.54,135,70.42,135.58,69,135.72Z"/><path class="cls-17" d="M79.32,132.34c-.25,1.58-.86,2.94-2.72,2.94-1.62,0-2.38-1.22-2.45-2.65A2.34,2.34,0,0,1,76.56,130,2.47,2.47,0,0,1,79.32,132.34Z"/><path class="cls-7" d="M60.88,116.71c-1.73-.23-2.6-1.1-2.52-2.62.09-1.67,1-2.84,2.79-2.59a2.54,2.54,0,0,1,2.36,3.1A2.49,2.49,0,0,1,60.88,116.71Z"/><path class="cls-12" d="M42.7,111.43a2.58,2.58,0,0,1-2.55-2.69c0-1.77,1.16-2.71,3-2.49a2.36,2.36,0,0,1,2.15,2.81A2.48,2.48,0,0,1,42.7,111.43Z"/><path class="cls-10" d="M53.75,145.79a2.62,2.62,0,0,1,.17-5.22,2.52,2.52,0,0,1,2.61,3A2.44,2.44,0,0,1,53.75,145.79Z"/><path class="cls-11" d="M57.4,152A2.52,2.52,0,0,1,55,154.65a2.16,2.16,0,0,1-2.67-2.22c-.08-1.72.78-3,2.58-3C56.4,149.42,57.25,150.47,57.4,152Z"/><path class="cls-11" d="M77.64,163.43a2.76,2.76,0,0,1,2.67,2.89,2.31,2.31,0,0,1-2.49,2.43,2.35,2.35,0,0,1-2.7-2.24C75,164.79,75.93,163.8,77.64,163.43Z"/><path class="cls-18" d="M60.87,120.53c-.09,1.64-.74,2.88-2.59,2.86-1.43,0-2.65-.7-2.74-2.24a2.59,2.59,0,0,1,2.66-2.88A2.32,2.32,0,0,1,60.87,120.53Z"/><path class="cls-16" d="M76.52,181.89c-.28,1.43-1,2.54-2.56,2.51-1.83,0-2.69-1.12-2.54-2.9a2.19,2.19,0,0,1,2.68-2.2C75.71,179.42,76.38,180.4,76.52,181.89Z"/><path class="cls-19" d="M77.78,108.21c-.68,1.89-1.69,2.87-3.45,2.39-1.4-.39-2.28-1.35-1.84-2.94.38-1.36,1.19-2.45,2.76-2.26A2.86,2.86,0,0,1,77.78,108.21Z"/><path class="cls-16" d="M57.13,70.8c-1.64-.21-2.69-.86-2.62-2.51s.8-2.93,2.63-2.93a2.4,2.4,0,0,1,2.49,2.51C59.75,69.7,58.57,70.46,57.13,70.8Z"/><path class="cls-14" d="M78,143.41a2.33,2.33,0,0,1-2.29-2.66,2.23,2.23,0,0,1,2.46-2.46c1.77,0,2.81,1,2.56,2.83A2.46,2.46,0,0,1,78,143.41Z"/><path class="cls-18" d="M50.3,103.39c-1.83-.45-2.85-1.41-2.63-3.13a2.42,2.42,0,0,1,2.75-2.17,2.53,2.53,0,0,1,2.41,3C52.69,102.68,51.46,103.15,50.3,103.39Z"/><path class="cls-11" d="M78.8,146.5a2.53,2.53,0,0,1,2.53,2.5,2.35,2.35,0,0,1-2.28,2.74,2.38,2.38,0,0,1-2.88-2.61C76.21,147.63,77.27,146.79,78.8,146.5Z"/><path class="cls-14" d="M89.17,97.33a2.41,2.41,0,0,1,2.46,2.56,2.33,2.33,0,0,1-2.84,2.59,2.25,2.25,0,0,1-2.21-2.71A2.43,2.43,0,0,1,89.17,97.33Z"/><path class="cls-15" d="M42.35,123.23a2.39,2.39,0,0,1,2.47,2.53,2.32,2.32,0,0,1-2.34,2.63,2.37,2.37,0,0,1-2.72-2.73A2.44,2.44,0,0,1,42.35,123.23Z"/><path class="cls-20" d="M104.77,103.92c-.32,1.44-1.1,2.46-2.63,2.45a2.64,2.64,0,0,1-.15-5.28A2.78,2.78,0,0,1,104.77,103.92Z"/><path class="cls-18" d="M119.22,90.54c-1.91-.14-2.69-1.14-2.68-2.64A2.3,2.3,0,0,1,119,85.37a2.41,2.41,0,0,1,2.61,2.87A2.26,2.26,0,0,1,119.22,90.54Z"/><path class="cls-17" d="M56.19,158.26a2.34,2.34,0,0,1,2.68,2.26c.14,1.45-.4,2.64-2,2.86a2.58,2.58,0,1,1-.66-5.12Z"/><path class="cls-15" d="M45.68,142.52c-.12,1.72-.8,2.76-2.37,2.85a2.37,2.37,0,0,1-2.74-2.68,2.25,2.25,0,0,1,2.54-2.36A2.5,2.5,0,0,1,45.68,142.52Z"/></svg>