<svg id="Layer_25" data-name="Layer 25" xmlns="http://www.w3.org/2000/svg" viewBox="0 0 250 250"><title>text-displayer</title><path d="M99.29,170.49c-16.17,0-31.21-.32-46.22.12-8.65.25-15-4.31-15.13-13q-.39-41.26-.23-82.53c0-10.36,6.24-15.44,17.95-15.51,20.07-.14,40.14,0,60.21-.23,28-.29,56-.76,84-1.2,8.38-.14,12.34,3.24,12.37,11.62.12,30.09.05,60.19,0,90.28a32,32,0,0,1-.71,5.65c-.68,3.56-2.68,5.15-6.53,5.12-15.55-.1-31.1,0-46.65.09-2.42,0-4.83,0-7.23,0-.09,7.37,1.83,9.65,8.6,10.37,9.28,1,18.54,2.32,27.85,2.76,5.36.25,6.47,2.54,5.69,7.51h-4.67q-62.82.06-125.64.08c-2.26,0-5.76,1.39-5.82-3,0-3.59,2.29-4.31,5.5-4.59,9.64-.86,19.23-2.17,28.86-3.13C97.67,180.35,96.48,174.85,99.29,170.49ZM125.2,76.64v1.67c-20.74,0-41.48,0-62.23,0-3.65,0-5.57,1.44-5.56,5.15q.14,31.89.26,63.8c0,4.41,2,5.92,6.39,5.9,39.76-.14,79.51-.05,119.27-.19,9.91,0,10.59-.56,10.67-10.58.13-18.84-.25-37.68-.5-56.52-.12-8.63-1-9.26-9.69-9.22C164.28,76.71,144.74,76.64,125.2,76.64Z"/><path d="M112.34,124.37l-10.44,11.9-1.75-1.18c.67-1.78,1.41-3.53,2-5.33,1-3.24.24-5.12-3.51-5.87-13-2.6-15.45-5.18-15.57-15.62-.13-11,5.74-19.13,15.8-21.52,9-2.15,17.93-1,26.36,2.6s12.31,12.55,10.42,22.12C134.14,119,128,123.8,119,124.34,116.3,124.51,113.54,124.37,112.34,124.37Z"/><path d="M145.89,148.47l-8.13-9.72c-6,0-14.26,2.26-17.27-6.44,6.23-3.42,13.09-5.37,17-9.88s4.68-11.39,7.12-18c5.1-1,11.63,2.4,15.94,9.27,4.07,6.5,4.37,13.91-.12,18.85a17.57,17.57,0,0,1-8.3,4.56c-6.54,1.72-6.85,1.82-5.25,8.63.14.61.22,1.23.33,1.85Z"/></svg>