<svg id="Layer_20" data-name="Layer 20" xmlns="http://www.w3.org/2000/svg" viewBox="0 0 250 250"><title>cameras-and-lighting</title><path d="M125.16,122.17c-3.85-1.2-7.64-2.59-11.54-3.57-6.52-1.64-12.15,1.9-13.54,8.26-1.36,6.18,2,11.61,8.36,13.09,3.08.72,6.26,1,10.23,1.68-5.24,1.5-9.74,2.69-14.17,4.09-1.74.56-3.72,1.19-5,2.42-8.5,8.43-18.36,3.89-27.67,2.68-1.58-.2-3.27-4.22-3.78-6.71-.65-3.2-.16-6.63-.16-11.72-5.81,1.34-10.7,2.38-15.55,3.61-5.25,1.34-10.45,2.87-16.5,4.55V95.44c5.07,1.23,10,1.7,14.33,3.69,5.41,2.51,10.59,4.51,17.48,2.77,0-2.15-.13-4.5,0-6.84.39-5.71,3.33-9.67,8.91-9.75,21.62-.33,43.25-.13,66.37-.13-8.3,6-5.19,13-4.44,20.35-1.63-2.32-3.2-4.67-4.89-6.94C129.52,93,122.49,91.91,117.46,96s-5.52,11.33-.8,16.38c2.9,3.1,6.25,5.79,9.4,8.66Z"/><path d="M191,143.48c-2,6.09-3.45,12.47-6.26,18.18a20,20,0,0,1-8.49,8.51c-4.11,2.07-6.65,4.4-7.31,8.9-.16,1-.75,2.49-1.56,2.88-6.54,3.2-6.73,9.71-8.34,15.47-2.17,7.8-4.86,9.48-12.64,7.63a47.15,47.15,0,0,1-5.85-1.94c-6.81-2.59-8.62-4.79-6-11.32,3.48-8.53.42-17.22,2.09-25.69.21-1.07-.89-2.69-1.8-3.66-6.95-7.41-8.45-15.71-5.27-25.37,8.75-26.55,27.11-29.74,48.68-17.09C187.56,125.43,190.29,131.44,191,143.48Zm-10.37-3.8c1.26-7.15-6.68-11-15.24-14.41-9.07-3.59-16.13-2.25-20.77,4-7.1,9.52-7.94,19.29-1.92,26.73,2.59,3.2,3.44,6.29,2.38,10.33-1.43,5.43.4,7.74,6.58,9.35,6.72,1.75,9,.62,11.06-4.75,1-2.43,2.4-5.93,4.34-6.49C177.59,161.31,179.7,153.34,180.61,139.68Z"/><path d="M92.74,40a21,21,0,1,1-.35,41.9A21,21,0,1,1,92.74,40ZM92.61,54c-2.3,3.29-4.78,5.29-4.61,7s3,3.3,4.59,4.94c1.63-1.64,4.38-3.17,4.57-5S94.87,57.24,92.61,54Z"/><path d="M133.16,52.39A14.39,14.39,0,0,1,147.65,67a14.66,14.66,0,1,1-14.49-14.61Zm-.61,9c-1.62,3-3.22,4.65-3.09,6.13.12,1.24,2.58,3.4,3.46,3.16,1.5-.41,3.45-2.31,3.57-3.72S134.6,64.16,132.55,61.43Z"/><path d="M167.32,104.9c.94-5.66,1.43-10.34,2.62-14.84.38-1.45,2.58-2.42,3.94-3.6.65,1.68,2.12,3.53,1.8,5a102.17,102.17,0,0,1-4.07,13.39c-.41,1.11-1.86,1.84-2.83,2.74Z"/><path d="M195.57,149.53c5.16.83,9.32,1.13,13.21,2.3,1.6.49,2.65,2.83,3.95,4.33-1.71.65-3.58,2.12-5.1,1.81a82.27,82.27,0,0,1-12.24-3.85c-.94-.35-2.25-2.09-2-2.63C193.79,150.46,195.19,149.83,195.57,149.53Z"/><path d="M105,162.79c-.56-1.77-1.5-3.41-1.47-5,0-1.4.83-3.61,1.86-4a114.75,114.75,0,0,1,12.8-3.93,2.9,2.9,0,0,1,2.2,1.07,2,2,0,0,1-.33,1.94C115.93,155.65,111.74,158.35,105,162.79Z"/><path d="M197.49,134.5l-3.32-1.63c1.13-1.22,2-2.93,3.43-3.56a30.27,30.27,0,0,1,9-2.79c1.47-.16,3.16,1.7,4.75,2.65-1.3,1.44-2.35,3.65-3.95,4.17C204.66,134.24,201.55,134.1,197.49,134.5Z"/><path d="M124.62,101.24c.85.44,1.73.61,2.11,1.14,2.51,3.47,5,7,7.25,10.61.42.67-.21,2-.36,3-1-.17-2.31,0-2.94-.58a94,94,0,0,1-8.18-8.4c-.76-.91-.78-2.8-.48-4.09C122.19,102.21,123.7,101.8,124.62,101.24Z"/><path d="M121.3,134.12c-4.31-.65-7.73-.84-10.9-1.81-1.16-.36-1.75-2.57-2.6-3.93,1.42-.86,3-2.62,4.21-2.39a42,42,0,0,1,9.46,3.34c1.11.51,1.75,2,2.61,3.07Z"/><path d="M197.86,106.32c-1.4,1.49-2.57,2.89-3.89,4.13a78.6,78.6,0,0,1-6.71,6c-.77.58-2.21.26-3.35.36,0-1-.38-2.35.11-3a102.25,102.25,0,0,1,7.81-9.53c.77-.81,2.69-.94,4-.72C196.52,103.61,197,105.08,197.86,106.32Z"/><path d="M185.5,168.36a31.78,31.78,0,0,1,3.21,2.6,72.09,72.09,0,0,1,6.71,8.26c.66,1-.29,3.11-.51,4.7-1.38-.34-3.39-.23-4-1.11a64.84,64.84,0,0,1-5.76-9.61C184.61,172.21,185.27,170.63,185.5,168.36Z"/><path d="M152.76,101.68c-.77,2.25-1.55,4.49-2.32,6.74a52.31,52.31,0,0,1-3.52-6.26,16.88,16.88,0,0,1-1.42-6.51c0-1.25,1.6-2.47,2.47-3.7,1.17.93,3,1.64,3.36,2.83.68,2.06.49,4.41.66,6.64Z"/><path d="M156.32,145.23l-5.27,6.25-3.35-5.83L143.89,150l-1.23-.58c1.09-3.54,2.18-7.07,3.59-11.6l5.72,4.91,5.74-7.32,3.57,7.47c5.84-5,5.84-5,9,6.82l4.18-1.55.85,1L167.38,158c-1.17-4-1.94-6.63-2.74-9.34C159.24,153,159.24,153,156.32,145.23Z"/></svg>