<svg id="Layer_20" data-name="Layer 20" xmlns="http://www.w3.org/2000/svg" viewBox="0 0 250 250"><title>gameplay-gear</title><path d="M127.84,207.89c-4.9-8.74-10-17.36-14.61-26.26-2.92-5.69-5.89-11.6-7.3-17.76-3.52-15.33,9.29-30.69,24.88-32.71,22.43-2.92,39.64,20.76,32.44,41.16-3.32,9.39-8.1,18.27-12.23,27.38-1.24,2.74-2.53,5.46-3.79,8.19ZM153.94,161c-.12-10.1-9.06-20.12-17.93-20.09-10.36,0-21,9.67-20.77,18.74.28,10.08,10.11,20.32,19.38,20.2C145.73,179.68,154.06,171.56,153.94,161Z"/><path d="M138.27,85.12c-1.72,6.16-.64,10,5.84,10.81,13.85,1.7,19.82,11.89,24.94,23.68l-13.15,7.77c-2.74-13.78-12.65-18.44-25.53-20.62-3,12.81-14.13,17.65-25.33,23.22L98,118.2c16.47-5.61,23-18.53,26.68-34.56-8.38.13-8.26,7.82-12.89,11.62L101,89c4.1-10.53,9.59-19.1,20.62-19.57-1.55-5.73-4.07-11-4-16.19,0-3.46,3.14-7.62,6-10.14,6.27-5.5,15.63-4,21.09,2.56,5.89,7.08,4.5,15.91-4.11,23.94l6.28,4.55,7.48-10,10.7,10.1c-4.65,4.84-8.75,9.84-13.69,13.82-1.74,1.4-5.57.62-8.34.17C141.51,88,140.15,86.41,138.27,85.12Z"/><path d="M50.81,146.77l-.6-5.31,6.11-.64c2.56-6.79,2.56-6.79-.93-10.73,1.33-1.66,2.72-3.39,3.16-3.92L71,128l.43-7h5.35l6.84,10.57,4.85-5.83,4.66,3.71-1.5.2-.72,11.83,6.48.69v6.32l-6.06.35c-.88,3.68-5,7.39,1.26,10.53l-4.86,5.34-3.44-3.29-6.9,2.86-.52,5.58-6.16.52c1.08-5.88-3-7.39-7.23-9.09L59,165.38l-4.2-4.79,1.69-.34c0-3.34.42-6.76-.22-10C56,149.05,53.31,148.31,50.81,146.77Zm22.49,6.12c4.12.13,8.07-3.8,8.13-8.1,0-3.57-3.41-6.77-7.44-6.88-3.86-.09-7.27,3.29-7.49,7.45C66.3,149,69.72,152.78,73.3,152.89Z"/><path d="M190,121.73c-.52,7,1.32,8.86,6.7,7.26,1.19,2,3.35,3.68-.21,6-.74.49.18,3.89.7,5.85.27,1.05,1.33,1.88,2,2.81-1.17.63-2.38,1.2-3.5,1.91-2.09,1.31-5.23,1.85-3.56,5.77.4.92-.95,2.59-1.84,4.73-3.34-4.19-6.17-6.83-9.52-1.55-.19.3-3.78-.71-3.84-1.29-.37-4-2.12-5.48-6.09-4.68a2.76,2.76,0,0,1-2.37-1.23,3.61,3.61,0,0,1,.26-3.1c2.69-3,2.47-5.4-1-7.69a2.67,2.67,0,0,1,1.37-4.86c4-.29,6-1.74,5.1-6.16-.21-1,1.19-2.37,2.16-4.14,3.06,4.25,5.7,6.68,8.95,1.2C185.91,121.69,188.34,122,190,121.73Zm-8.11,10.93c-1.38,1.81-3.65,3.5-3.93,5.47-.46,3.19,1.26,6,5.06,6,3.24,0,5.31-1.65,5.14-5.3C188,135.57,186.81,133.41,181.92,132.66Z"/><path d="M95.77,197.34c-2.93-3.2-4.93-5.82-8-1.42-1.54,2.19-2.74,1.26-3.8-1.23-.7-1.65-3-3.63-4.66-3.64-3.53,0-3.78-1.65-2.29-3.66,2.11-2.85,2.36-4.82-.73-7-.41-.3.4-3.66,1-3.79,3.35-.7,5.57-1.68,4.52-5.8-.19-.74,1-1.85,1.94-3.36,2.6,4.14,5,5.3,7.78,1A2.64,2.64,0,0,1,94,167.8a3,3,0,0,1,1.37,2.27c.1,3.11.76,5.22,4.67,4.5.37-.07,2.16,3.3,1.73,3.84-1.94,2.44-2,4.08.55,6.1.54.43-.17,3.78-.58,3.84-3.84.55-5.53,2-3.91,6.08C98.06,195,96.7,196.09,95.77,197.34Zm.34-14.87c-3.14-2.23-5-4.59-6.54-4.39-1.75.24-4.51,2.84-4.42,4.26.11,1.75,2.53,4.34,4.3,4.67C90.91,187.29,92.89,184.8,96.11,182.47Z"/><path d="M142.77,149.89l4.85,5.2-16.49,16.73c-3.26-3.07-6.44-6-9.89-9.28l4-3.63,6,4.43Z"/></svg>