<svg id="Layer_20" data-name="Layer 20" xmlns="http://www.w3.org/2000/svg" viewBox="0 0 250 250"><title>logic-and-processing</title><path d="M55.47,151.74l-14.11-1V142.6H55.14l-.89-19.36H41.38v-8.5l11.7-.55c2.39-11.38,2.4-11.37,14.38-12,5.52-.3,11.07-1.14,16.57-.87,16.14.8,27.71,8.45,34.11,23.65.63,1.5,3.12,2.61,5,3.1s3.73-.14,6.07-.31v8.93l-10.24.49a35.71,35.71,0,0,1-13.69,22.34,18.22,18.22,0,0,1-9.8,3.64c-10.87.38-21.76-.22-32.64,0-5.76.13-8.16-1.86-7.15-7.65A19.23,19.23,0,0,0,55.47,151.74Z"/><path d="M141.53,101.8c-5.06-1.45-8.46-.77-10.79,4-1.64,3.38-4.51,7.24-8.79,5-1.28-.68-.2-5.83-.2-9.45l-8.84-.68V91.5c4.21,0,8.35-.19,12.46.06,3.37.2,5.18-1.16,5.28-4.41.15-4.88,0-9.77,0-15.13H113.18l-.5-9.24,11.8-.66c-1.34-3.11-2.61-6-4-9.21,7.31-3.07,10.25,1.45,12.69,5.6,2.29,3.9,5,4.68,8.81,3.34,0-.36.14-.58.08-.73C138,51.15,138.83,50,150,50.46c16.48.75,30.71,7.24,43.16,17.73,5.36,4.53,9.21,11.66,18.37,8.18v10c-7.19-1.91-10.73,2.75-15.34,6.87-15.45,13.79-33.9,20.13-54.71,19.46-4.47-.14-4.83-2-2.93-5.44C139.58,105.52,140.51,103.7,141.53,101.8Zm-2.48-29.18V90.94c7.73,1.16,8.3.75,8.7-6.72a62.33,62.33,0,0,0-.12-6.26C147.37,72.51,144.78,70.5,139.05,72.62Z"/><path d="M141.9,188.45H129.79v-9h16.29c.44-1.9.88-3.33,1.08-4.79,1.6-12,.1-13.72-11.86-13.79h-5.48v-8.21l12-.7c.09-.82.28-1.24.15-1.51-4-8.46-2.07-10.92,8.23-10C166.5,142,181,148.2,192.57,159.71c4.37,4.33,8.39,6.66,14.35,5.71a30.88,30.88,0,0,1,4.46,0v8.5c-.26.16-.59.56-.88.52-7.44-.9-12.49,2.17-18.19,7.3-13.44,12.1-29.95,18-48.28,17.92-7,0-7.32-.56-4.33-6.67C140.27,191.78,140.85,190.6,141.9,188.45Z"/></svg>