<svg id="Layer_20" data-name="Layer 20" xmlns="http://www.w3.org/2000/svg" viewBox="0 0 250 250"><title>movers-and-output</title><path d="M172.13,140.53c0,10.76-.13,21.51.06,32.27.09,5.15-1.71,8.5-6.51,10.86-16.6,8.19-32.92,17-49.67,24.87a16,16,0,0,1-12.07,0c-16.93-8-33.46-16.9-50.22-25.3-4.2-2.1-6-5-6-9.75q.18-32.61,0-65.22c0-4.71,1.86-7.6,6-9.78C70.52,89.68,87.08,80.39,104,71.87a14.71,14.71,0,0,1,11.39-.22c17.12,8.16,33.85,17.13,50.84,25.59,4.52,2.25,6.27,5.43,6.19,10.34-.17,11,0,22,0,33Zm-63.32,62.12,2.5.38c.5-2.48,1.34-4.94,1.43-7.42.66-17.38,1.38-34.75,1.59-52.13.07-5.7,1.77-9,7.07-11.64,13.49-6.75,26.64-14.18,39.86-21.45,1.91-1,3.48-2.74,5.2-4.13l-.94-1.66a32.48,32.48,0,0,0-4.81,1.3c-15.06,6.62-30.19,13.1-45.07,20.11-4.21,2-7.38,1.79-11.47-.11C89.68,119.15,75,112.8,60.36,106.36a57.23,57.23,0,0,0-5.91-1.89l-1,1.89a38.65,38.65,0,0,0,4.81,3.72c13.82,7.6,27.61,15.27,41.62,22.52,3.93,2,5.76,4.26,5.9,8.8.55,18.52,1.45,37,2.28,55.54C108.13,198.85,108.55,200.75,108.81,202.65Z"/><path d="M140.34,72.84l28.72-19.32-.29-1.37c-3.71,0-7.42-.07-11.12,0-4.94.11-5.22-3-5.27-6.82-.06-4.08,1.39-5.72,5.6-5.61,10.73.28,21.46.3,32.19.31,5.21,0,7.86,2.24,8.49,7.59.91,7.63,2.38,15.2,3.61,22.77-12.58,2.22-12.58,2.22-16.25-10.53-4.92,3.11-9.59,6-14.22,9-2.5,1.61-4.93,3.31-7.41,5C152.83,81.52,152.83,81.52,140.34,72.84Z"/></svg>