<svg id="Layer_20" data-name="Layer 20" xmlns="http://www.w3.org/2000/svg" viewBox="0 0 250 250"><title>sensors-and-input</title><path d="M63.21,205l-10.05-6c48.66-47.93,101.54-90,154.43-132.66,4.18,7.77,3.58,16.49,2.72,25.08-.17,1.64-2.83,3.16-4.52,4.5C162.08,130.65,119.25,166.42,78.84,205Z"/><path d="M102.88,205c2.83-2.79,5.5-5.78,8.52-8.35q46.13-39.35,92.35-78.57c1.9-1.61,4-3,7.1-5.32,0,9.5.23,17.63-.19,25.72-.08,1.67-2.38,3.45-4,4.79Q172,172.41,137.18,201.46a28.88,28.88,0,0,0-3,3.54Z"/><path d="M158.18,205c6.9-6.05,13.66-12.26,20.71-18.12,10.15-8.43,20.5-16.6,30.84-25,4.56,14.62-5.78,32.17-25.1,43.08Z"/><path d="M198.06,51.85c-5.59,5.14-10.66,10.51-16.41,15C134.75,103.49,89.51,142,46.3,183c-1.12,1.06-2.4,2-3.9,3.18-4.63-7.64-5.93-15.64-5.41-23.87.13-2,2.1-4.21,3.78-5.68,27.74-24.23,55.67-48.25,83.36-72.53,15.65-13.72,30.93-27.85,46.49-41.68a7.42,7.42,0,0,1,5.18-1.94A37.07,37.07,0,0,1,198.06,51.85Z"/><path d="M36.8,137.06c0-8.3-.23-15.91.16-23.48a9.39,9.39,0,0,1,3.3-5.84C59.33,91.56,78.59,75.59,97.69,59.45,104.1,54,110.17,48.24,116.5,42.73c1.4-1.22,3.2-2.74,4.86-2.79,9-.27,18-.13,27-.13l1,1.56Z"/><path d="M95.9,40.24,37.18,87.9c-1.1-14,2.2-25.63,11.51-35.47C61.53,38.84,77.83,39.06,95.9,40.24Z"/></svg>