<svg id="Layer_20" data-name="Layer 20" xmlns="http://www.w3.org/2000/svg" viewBox="0 0 250 250"><title>sound</title><path d="M137,99.3c-.42,27.2-.77,54.4-1.31,81.6-.15,7.49-6.25,11.8-13.25,9.07a32.7,32.7,0,0,1-11.23-7.31c-9.58-9.88-18.58-20.32-28-30.33a9.78,9.78,0,0,0-6.25-2.9c-11.1-.09-22.2.25-33.29.52-5.46.13-6.58-.84-6.64-6.4-.12-11.58-.25-23.16-.28-34.74,0-9.17,2.76-11.52,12-11.06,8.28.42,16.57.38,24.85.69,3.38.13,5.75-1.1,8.22-3.48q15.9-15.25,32.33-30a37.18,37.18,0,0,1,10.4-6.19c6.66-2.78,10.22-.46,10.71,6.71.42,6.24.55,12.5.69,18.76.1,5,0,10,0,15Z"/><path d="M168.19,178.77c-1.29-4.64-2.51-9-3.69-13.36-.28-1-.37-2.12-.63-3.67,16.7-6.29,25.83-18.73,27.39-36.26,1.64-18.46-8-30.44-24.47-38.63l4.93-15.63c5.4,2.5,10.76,4,15,7.13a54.43,54.43,0,0,1,20.4,29c3.91,13,1.58,25.81-2.85,38.17C198.16,162.51,185.75,173.22,168.19,178.77Z"/><path d="M152.28,135.7c8.3-1.92,11.18-5,11.24-11.42,0-6.61-2.56-9.49-11.2-12,.33-2.19.62-4.46,1-6.71s.89-4.53,1.43-7.22c6.67,1.53,12.51,3.73,17,8.62,6.48,7.06,8.34,22.6,3.75,31-2.77,5-14,11.33-19.31,10.42-1.06-.18-2.35-1.95-2.63-3.19A91.79,91.79,0,0,1,152.28,135.7Z"/></svg>