<svg id="Layer_6" data-name="Layer 6" xmlns="http://www.w3.org/2000/svg" viewBox="0 0 250 250"><title>clone</title><path d="M184.4,176c1.14-5,3.21-10,3.16-14.9-.12-10.91-1.18-11.84-11.91-10.48-12.36,1.56-24.67,3.45-37,4.87-3.37.39-3,2.27-2.9,4.4.17,4.66.73,9.35.44,14-.35,5.46-1.18,5.79-7.35,4.66,2.1-8.51,3-17-4-23.66l-1.31.22c.25,3,.65,6,.69,9.05a29.66,29.66,0,0,1-.66,7.17c-1.17,4.87-2.26,5.39-7.77,4.39a8.05,8.05,0,0,1,.29-2.05c4.19-9.74,1.68-17.69-6.37-24.19-7.65-6.18-11-14.56-12.46-24-.71-4.63-1.41-9.28-2.49-13.83s-2.45-4.91-6.77-3.58c-2.65.82-5.5,1.77-8.18,1.55-5.33-.42-7.73-5.37-4.43-9.52C81.16,92.83,86.62,85,96.6,82.65,98,82.32,99,80.18,100.26,79c.95-.89,2-1.62,3.09-2.43.68,1,1.32,1.93,2,2.86,1.29,1.7,2.37,3.65,4,5,2.59,2.18,5.85,3.61,8.23,6,5.66,5.59,12.39,6.91,20,6.29,13.57-1.11,27.15-2.31,40.75-3,9.31-.46,18.48.49,25.88,7.34,6.48,6,9.85,13.11,8.14,22.08-.83,4.32-1.56,8.67-2.67,12.92-2.62,10-3.79,20-2.05,30.27a15.91,15.91,0,0,1-.33,5.08c-1.08,6.48-1.54,6.8-8.55,6.29,2.95-9.7,2.88-18.92-3.84-27l-1.29.12a63.29,63.29,0,0,1,.31,8.58,78.06,78.06,0,0,1-2,12.45C190.82,175.71,188,177.13,184.4,176Z"/><path d="M91.53,171.38c2.49-8.59,3.34-17-5.08-23.48.22,2.87.55,5.74.64,8.62a32.86,32.86,0,0,1-.32,6.35c-1,5.78-2,6.38-8.06,5.32a3.21,3.21,0,0,1,0-1.24c5-10.66,1.39-18.88-7.16-25.8-7.74-6.26-10.11-15.11-11.64-24.37-.69-4.2-1.31-8.42-2.31-12.55s-2.45-4.78-6.5-3.17c-3.62,1.43-7.14,2.82-10.95.49-3.33-2-4.55-4.75-2.27-7.8C43.55,86.19,49,78.31,59,75.62c1.72-.46,3-2.64,4.48-4,.87-.76,1.93-2,2.77-1.9s1.44,1.65,2.15,2.56c1.31,1.68,2.39,3.66,4,5,2.8,2.28,5.93,4.13,9.31,6.42L76,89c-13.52-8.58-18.33-7.88-26.47,2.92,3.6.9,8.5.81,11.3,3.19s4.07,7.19,5.25,11.15c1.25,4.18,1.39,8.69,2.42,12.95A36.54,36.54,0,0,0,72,128.72c3.82,6.64,8.81,11.39,17.49,11.17,6.12-.16,9.38,4.67,9.26,11.11-.09,5.08.65,10.19.43,15.27C98.89,172.21,98.1,172.57,91.53,171.38Z"/><path d="M163.49,170.87c.71-4,1.4-7.9,2.21-12.49l6.68-1.59c-.25,3-.28,5.54-.72,8C170.55,171.06,170.13,171.31,163.49,170.87Z"/><path d="M157.72,159.46c-.36,7.36-3.21,10.3-9.05,9.62C150.83,160.09,150.83,160.09,157.72,159.46Z"/></svg>