<svg id="Layer_4" data-name="Layer 4" xmlns="http://www.w3.org/2000/svg" viewBox="0 0 250 250"><title>delete</title><path d="M90.16,80.45c12.45.89,24.9,2.36,37.36,2.51,16,.18,32.11-.51,48.15-1.23,5.7-.25,7.45.5,6.86,6.25-2.65,25.86-5.37,51.71-8.42,77.52-1.16,9.83-3.33,19.54-5,29.32-.91,5.41-3.41,8.47-9.27,9.88-23.69,5.69-47.33,7.05-71.21,1.48-7.38-1.72-11.64-5.59-12.44-13.63C73,159.79,69.08,127.08,66,94.3c-1.3-13.55-.19-14.07,13.44-13.48,3.56.16,7.14,0,10.71,0Zm40.21,62.31h.89c0-12.31-.17-24.62.1-36.92.09-4.44-1.7-6.09-5.79-6.32-6-.35-8.26,1.59-8.32,8-.24,24.22-.32,48.44-.57,72.65,0,4.46,1,7.23,6.27,7.07,4.81-.15,7.49-1.72,7.45-6.94C130.31,167.76,130.37,155.26,130.37,142.76ZM92.63,97.56c-6.09.13-8.06,2.24-7.85,8,.18,5,.34,9.91.55,14.86.87,19.76.08,39.66,5.61,59,1.28,4.51,3.76,5.47,7.94,4.65s5.86-2.41,5.26-7.26c-2-16.1-3.53-32.26-4.85-48.43-.68-8.28-.54-16.63-.74-25C98.46,99.32,96.57,97.17,92.63,97.56Zm51.76,62.05.42,0c-.44,5.93-.69,11.88-1.37,17.79-.57,5,.51,8,6.2,8.5s6.87-2.28,7.3-7.31c1.81-21.11,4-42.19,6.1-63.28.35-3.55,1.34-7.11,1.09-10.6a7,7,0,0,0-3.69-4.92c-5.69-2.26-9.37.26-10.1,6.6C148.3,124.16,146.36,141.89,144.39,159.61Z"/><path d="M101.77,53.47c2.39-10.66,3.54-12.19,13.74-13.22a100.15,100.15,0,0,1,21.27.1c11.19,1.26,11.28,1.79,12.58,13.28,9.15,0,18.41-.1,27.67,0,6.15.09,10.38,4.4,9.62,10.19-.21,1.58-2.54,4-4,4.13-26.69,1.94-53.36,3.08-80.13.57-10.6-1-21.38-.06-32.07-.23-2.75,0-6.68,2-7.5-3.14-.86-5.35,1.23-9.87,6-10.56,6.24-.89,12.62-.9,18.94-1.12C92.45,53.34,97,53.47,101.77,53.47Z"/></svg>