<svg id="Layer_13" data-name="Layer 13" xmlns="http://www.w3.org/2000/svg" viewBox="0 0 250 250"><title>freeze</title><path d="M117.08,141.07c-8.38,8-17.26,15.47-24.88,24.09-2.54,2.86-2.29,8.52-2.56,13-.26,4.2-1.58,6-6,6.13-12.81.28-12.8.43-13.26-12.18a19.63,19.63,0,0,0-.47-2.57c-3,0-5.95,0-8.87,0-1.19,0-2.63.59-3.52.1-6-3.24-2.2-8.88-2.79-13.39-.24-1.75,1.62-4.28,3.23-5.61,1.13-.95,3.51-.87,5.22-.58C74,151.86,82,147,89.61,139.82c6-5.73,13-10.44,20.58-16.37-8.92-5-17.6-9.32-25.66-14.58-9.06-5.9-18.31-8.19-28.66-4.47-4,1.44-5.76.24-6.44-4-2.6-16.22-4.55-13.18,10.91-16.57,1.52-.33,3-.92,4.76-1.49-.3-1.77-.66-3.28-.81-4.8-.31-3.24-1.66-8.79-.58-9.32,4.7-2.31,10.09-3.28,15.31-4.35.55-.11,2.31,2.28,2.34,3.53.37,16.58,10.32,25.32,24.5,31.11,4.34,1.77,8.12,4.92,13.73,8.43,0-7.15-.74-13.26.16-19.11,2-12.83-1.2-22.94-11.72-31.26-6.42-5.08-5.8-5.86.33-11a24.39,24.39,0,0,0,2.73-2.32c3.93-4.55,7.14-4.11,11,.51,5.4,6.38,5.7,6.13,11.93.75,7.49-6.46,7.49-6.46,13.62,1.06.38.46.77.92,1.14,1.39,4.86,6.15,5.08,6.45-1.45,11.26-5.75,4.23-8.68,9.12-8.3,16.5.5,9.65.12,19.35.12,29.72,8.95-5.11,17.76-10,26.39-15.19,1.22-.73,1.83-2.8,2.29-4.38.37-1.29,0-2.77.08-4.16.37-15.66-3-13.23,14.17-13.56,3.67-.08,5.09,1.44,4.91,4.94-.08,1.59.09,3.19,0,4.78-.24,3.41.89,4.88,4.69,5,10.68.51,10.67.71,10.64,11.5,0,8.21-.05,8.51-8.25,7.76a28.15,28.15,0,0,0-20,5.29c-7.6,5.38-16.15,9.41-24.27,14.07-2.21,1.27-4.33,2.69-8.17,5.09,12.62,7.7,23.9,15.05,35.7,21.42,3,1.6,7.63.16,11.5-.13,3.53-.26,7-.85,11.29-1.39,0,5.72.4,10.9-.25,15.94-.19,1.49-3.31,3.54-5.21,3.68-5.29.38-6.43,2.36-4.88,7.32,3.42,10.91,4.54,9.53-7.12,13.05-8.32,2.51-9,2.53-10.42-5.61-1.89-10.72-6.47-18.43-17.05-22.77-5.74-2.36-10.62-6.84-16.79-11-.39,9.09-.22,17.57-1.26,25.89-1.1,8.87-.08,16.43,7.72,22,2.92,2.08,2.86,4.51.1,6.87-1.05.91-2,2-3,2.95-6.49,6.55-6.58,6.66-13.5.7-2.61-2.25-4.47-1.69-6.69.31-7.79,7-6.59,6.44-13.74-1.25-1.09-1.17-2.08-2.42-3.21-3.54-2.33-2.31-2.6-4.74.35-6.4,12-6.76,14-17.72,13.31-30.11-.38-6.94-.07-13.92-.07-20.88Z"/></svg>