<svg id="Layer_11" data-name="Layer 11" xmlns="http://www.w3.org/2000/svg" viewBox="0 0 250 250"><title>hide</title><path d="M139.42,177c-1.76.41-2.69.67-3.63.83-10.27,1.83-10.27,1.82-11.37,12.58-.91,8.88-1.22,9.11-10.29,7.22L101.85,195c1.37-5.95,2.64-11.45,4-17.46l-12.33-4.05-10.75,18c-5.3-3.85-10.36-7.17-14.89-11.11-.93-.81-.62-4.44.4-5.84,2.88-3.94,6.42-7.39,10.22-11.61L67,153l-14.5,17.06L36.73,152.66,53.66,138c-3.14-4.55-6.26-9.23-9.54-13.79-5.44-7.59-5.24-15-.86-23.24,22-41.15,59.88-53.74,99-49.1,23.61,2.79,38.93,16.69,51,35.46,4.36,6.78,7.64,14.25,11.56,21.32,2.89,5.2,2.93,10-.9,14.79-2.3,2.9-4.11,6.19-6.42,9.73,3.89,3.06,7.5,6.06,11.28,8.83,3.12,2.28,3.3,4.72.81,7.42-11.61,12.6-7.48,12.71-19.56,1.95-1-.89-2.07-1.73-3.54-2.95L179.71,156c3.38,3.77,6.47,7.35,9.7,10.8,2,2.15,2,3.68-.26,5.89C177.62,184,177.69,184,168.08,171.14c-.7-.93-1.44-1.83-2.35-3l-9,4.58c1.81,6,3.61,11.9,5.65,18.65-5.86,1.55-11.26,3.29-16.79,4.16-1.09.17-3.43-2.8-3.92-4.66C140.55,186.54,140.19,182,139.42,177ZM126.54,73.81c-27.05-.52-46.77,10.64-58.7,34.69a9.56,9.56,0,0,0-.23,7c5.15,13,15.22,21.87,25.75,30.32,17.94,14.39,48.69,14,65.31-1.91,8.12-7.8,14.3-17.66,21.06-26.81a6.9,6.9,0,0,0,.4-5.88C168.4,86.64,155.77,72.25,126.54,73.81Z"/></svg>