<svg id="Layer_15" data-name="Layer 15" xmlns="http://www.w3.org/2000/svg" viewBox="0 0 250 250"><title>left-button</title><path d="M96.39,205.07c.53-12.39.86-24.8,1.75-37.17.16-2.34,2.17-4.82,3.89-6.75,4.42-5,9.1-9.68,13.78-14.39,5.35-5.38,11.76-5.39,17.12-.16,18.27,17.82,18.33,17.82,20.32,43.17.39,5.07.11,10.2.14,15.3h-25c3.38-.69,6.78-1.26,10.12-2.11s5.23-2.85,4.7-6.9c-1-7.26-1.39-14.59-2.14-21.88-.17-1.62-.27-3.62-1.24-4.71-4.81-5.44-9.9-10.63-15.2-16.24-5.4,5.67-10.36,10.79-15.16,16.07a6.69,6.69,0,0,0-1.13,3.69c-.71,7.79-1.17,15.61-2,23.4-.42,4,1.14,6,4.89,6.68,3.39.63,6.77,1.33,10.15,2Z"/><path d="M38.54,130.32c1.27-7.07,2-13.86,3.79-20.38s5.91-9.48,12.56-9.19c10.29.44,20.55,1.43,30.8,2.46a10,10,0,0,1,5.19,2.67c6.1,5.64,12.12,11.38,18,17.29,3.45,3.49,3.47,9.32.44,13.3-.7.92-1.75,1.58-2.37,2.54-12.81,19.86-33.09,20.23-53.36,20.28-5.54,0-9.6-3.43-11-8.65C40.75,144,39.83,137.05,38.54,130.32Z"/><path d="M210.92,128.41c-.94,6.76-1.3,12.45-2.6,17.91-2.11,8.86-8,13.2-17.06,12.71-8.63-.46-17.24-1.37-25.85-2.11a4.31,4.31,0,0,1-2.38-.63C155,149,146.44,142.16,139.26,134.1c-3-3.38-1.38-9,2.36-12.72,5.1-5,10-10.28,15.53-14.81a20.68,20.68,0,0,1,9.83-4.14c8.38-1.18,16.87-1.65,25.32-2.32,7-.55,12.58,2.47,14.75,9.34C209.07,115.87,209.81,122.7,210.92,128.41ZM148.7,131c5.38,5.1,10.15,9.73,15.06,14.2a7.42,7.42,0,0,0,3.92,1.83c7.94.8,15.92,1.26,23.86,2.1,3.92.41,6.48-1.11,6.59-4.85.25-9.09.21-18.2-.15-27.28-.15-3.72-2.71-5.28-6.66-4.79-7.26.9-14.57,1.38-21.84,2.22a9.49,9.49,0,0,0-5,1.77C159.24,120.77,154.27,125.67,148.7,131Z"/><path d="M96,68.82c-.06-.83-.13-1.66-.19-2.49-1-14.16,3.74-20.31,17.94-21.13a122,122,0,0,1,26.74,1.09C151,48,154.78,54.3,153.8,65c-.73,7.8-1.3,15.6-2.07,23.39-.2,2-.29,4.41-1.45,5.7-6.54,7.27-13.1,14.57-20.29,21.17-3.25,3-10.44,1.42-13.8-1.94-5.07-5.06-10.28-10-14.8-15.56a20.16,20.16,0,0,1-3.8-9.48c-1-6.41-1.11-12.94-1.6-19.42Zm28.28,37.87c10.26-8.55,19.26-17.12,17.85-31.68a36.74,36.74,0,0,1,1-10.4c.83-4.21-1.09-7-4.77-7.18-9.2-.49-18.44-.43-27.65,0-1.54.07-4.27,3-4.22,4.47.3,9.12,1.23,18.23,2,27.33a3.19,3.19,0,0,0,.82,1.76C114.32,96.24,119.35,101.49,124.3,106.69Z"/></svg>