<svg id="Layer_10" data-name="Layer 10" xmlns="http://www.w3.org/2000/svg" viewBox="0 0 250 250"><title>move</title><path d="M113.23,209.73c-4.37-4.65-8.63-9.41-13.14-13.91a82.36,82.36,0,0,0-7.49-6l10.6-11.78,9.45,10.08v-34l19.31,1v32.25l1.13.72,7.41-9.57a16.25,16.25,0,0,1,2.85,1.1c10.43,8.53,10.44,8.55,1,18-4,4-8.16,8-12.24,12Z"/><path d="M65.16,96.69a1.59,1.59,0,0,1,.66.3c9.77,8.36,9.77,8.36,1.29,18.28a11.69,11.69,0,0,0-1,1.93c7.82,0,15.27.18,22.71,0,8.6-.25,8.72-.28,8.35,8.3-.54,12.54-.54,12.39-13.1,11.62-6-.36-12-.06-19.72-.06l11.49,8.91-10,10.9c-9.84-9.19-19.61-18.1-29-27.43-.92-.91-.08-5.13,1.28-6.51C46.83,114.09,55.84,105.65,65.16,96.69Z"/><path d="M182,116.85l-9.75-9.16L185,97.3c8.1,8.35,17,17.35,25.58,26.63.83.9.51,4.13-.47,5.25-8.27,9.56-16.82,18.88-25.61,28.62l-11.35-11.29,8.71-9.26-.23-1.67c-7.79,0-15.58-.16-23.36,0-8,.21-8,.37-8.5-7.28-.66-10.67-.67-10.87,9.93-11.42C166.83,116.55,174,116.85,182,116.85Z"/><path d="M132.27,101c-5.34,0-9.76-.25-14.14.08-4.08.3-5.22-1.53-5.08-5.17.31-7.93.52-15.86.75-23.79,0-.87-.07-1.74-.18-4.11a79.6,79.6,0,0,0-5.21,6c-3,4.33-5.65,3.53-8.74,0-5.42-6.16-5.7-7.08,0-13.14,6.19-6.55,12.73-12.78,19.21-19,3-2.9,5.52-2.94,8.67.61,7.58,8.55,15.68,16.63,24,25.4l-9.86,11-8-10.14-1.46.94Z"/><path d="M122.82,143.53c-7.59.13-15.36-7.84-15.44-15.84-.09-8.86,6.45-15.75,15-15.79s15.71,7.13,16,15.8C138.66,136.58,132,143.38,122.82,143.53Z"/></svg>