<svg id="Layer_15" data-name="Layer 15" xmlns="http://www.w3.org/2000/svg" viewBox="0 0 250 250"><title>right-button</title><path d="M94.58,204.81c.53-12.39.89-24.79,1.74-37.16.15-2.21,2-4.58,3.58-6.37,4.55-5.07,9.33-9.92,14.11-14.78,5.29-5.37,11.75-5.39,17.11-.16,18.27,17.83,18.34,17.82,20.32,43.17.4,5.08.11,10.2.14,15.3h-25c3.38-.69,6.79-1.25,10.12-2.11s5.24-2.84,4.7-6.89c-1-7.26-1.38-14.59-2.13-21.87-.17-1.62-.27-3.63-1.24-4.72-4.81-5.44-9.9-10.63-15.21-16.24-5.38,5.66-10.33,10.79-15.16,16a5.77,5.77,0,0,0-1.09,3.2c-.73,8.12-1.26,16.27-2,24.39-.34,3.51,1.16,5.4,4.39,6.1,3.54.77,7.11,1.41,10.67,2.1Z"/><path d="M208.86,130.31c-.72,4.92-1.12,10.78-2.52,16.38-2.08,8.26-8.09,12.54-16.54,12.09-8.79-.47-17.57-1.38-26.35-2.15a5.17,5.17,0,0,1-2.85-.77c-7.81-7.1-16.07-13.82-23-21.68-3-3.45-1.66-9.07,2-12.79,5.15-5.2,10.23-10.54,15.87-15.17a20.55,20.55,0,0,1,9.86-4.06c8.39-1.17,16.87-1.66,25.32-2.31,7-.53,12,2.7,14.78,9.45a26.61,26.61,0,0,1,1.81,6.21C207.9,120.11,208.27,124.75,208.86,130.31Z"/><path d="M36.73,130.17c1.27-7.1,2-13.89,3.77-20.41,1.83-6.69,6.07-9.62,13-9.29,10.12.49,20.22,1.42,30.3,2.49a10.88,10.88,0,0,1,5.59,2.94q9,8.28,17.6,16.95c3.33,3.36,3.53,9,.83,12.89a18.15,18.15,0,0,1-2,2.23c-18.52,19.3-27.26,22.76-54,21.13-5.55-.34-9.62-3.43-11-8.64C39,143.79,38,136.87,36.73,130.17Zm62.4-.24c-4.56-4.35-8.83-8.05-12.63-12.18a14.34,14.34,0,0,0-10-4.68c-7-.58-13.91-1.23-20.85-2-3.07-.34-4.81,1-5.5,3.76A63.33,63.33,0,0,0,49.9,144c.59,2.71,2.12,4.27,5.32,4,8.11-.78,16.24-1.24,24.35-2.06a9,9,0,0,0,4.81-2.14C89.22,139.46,93.86,134.92,99.13,129.93Z"/><path d="M94.21,68.54l-.15-2C92.94,51.6,97.76,45.65,113,44.86A118.48,118.48,0,0,1,138.73,46c10.5,1.78,14.24,8,13.26,18.71-.73,7.79-1.27,15.6-2.09,23.39-.24,2.26-.54,5-1.92,6.57-6.2,6.92-12.54,13.76-19.36,20.06-3.23,3-10.58,1.86-13.9-1.41-5.33-5.27-10.71-10.53-15.48-16.29-2-2.38-3-5.94-3.47-9.11-.9-6.42-1.1-12.93-1.59-19.41Zm28.44,38.1c8.85-8.77,19.08-15.94,17.55-30.3-.43-4,.54-8.27,1.18-12.37.52-3.37-.53-5.6-3.79-6.5a55,55,0,0,0-29.46-.07c-1.56.42-3.5,3.37-3.44,5.09.28,8.46,1.15,16.91,1.88,25.35a4.86,4.86,0,0,0,.91,2.75C112.42,95.93,117.46,101.18,122.65,106.64Z"/></svg>