<svg id="Layer_12" data-name="Layer 12" xmlns="http://www.w3.org/2000/svg" viewBox="0 0 250 250"><title>sculpture-detail</title><path d="M110,211c-9.8-3.69-20.23-6.24-29.29-11.26-31.85-17.62-48.17-54.36-41.17-90.41C46.36,74.35,75.74,46,111,41.6c10.37-1.3,21-.2,32.31-.2V57.65h17.36V74.8H177.3V91h-33V75H127.05V92h16.41v16.93h16.71v16.71H144v34.58h16.19v16.71H143.77v16.71H127.09V177.47H109.88v16.76h16V211Zm13.2-101.6H106.46V125.7h16.77Zm-17.1,33.92H89.38v16.58h16.75Z"/><path d="M144.21,211V195h15.87v16Z"/><path d="M178.11,176.45V160H161.55V126.59h16v16.63h16.85v33.23Z"/><path d="M194.47,125.42H178.64V109.51h15.83Z"/><path d="M211.56,142.51H195.74v-15.9h15.82Z"/><path d="M161.43,193.71V178h15.85v15.72Z"/></svg>