<svg id="Layer_8" data-name="Layer 8" xmlns="http://www.w3.org/2000/svg" viewBox="0 0 250 250"><title>stretch</title><path d="M51.12,158.49c8.29-4.82,15.45-9.42,23.05-13.13,2-1,5.77.06,8,1.36,5.92,3.36,11.47,7.39,18.13,11.78,4.47-31.6,4.16-62.79,7-95.14-5.06,2.61-9,4.41-12.76,6.65-4.82,2.91-9.13,3.16-13.74-.58C77.91,67,74.36,65.3,70.63,63a15.76,15.76,0,0,1,2-1.46c14.5-6.95,29-14,43.57-20.71,2.06-.95,5.2-1.56,7-.66,13.79,6.73,27.37,13.88,41,20.9.94.49,1.84,1.07,2.56,1.49-10.47,13.07-22.17,10.42-34,2,2.18,31.83,4.29,62.76,6.5,95,5.83-4.32,10.81-7.66,15.39-11.49,5-4.14,9.49-4.52,15-.73,5.89,4.05,12.34,7.26,19.2,11.21-1.68,1.54-2.79,2.67-4,3.66-13.66,11.08-27.26,22.23-41,33.16-5.78,4.6-11.8,8.94-18,12.94-1.9,1.23-5.09,1.89-7.13,1.18a40.43,40.43,0,0,1-11.7-6.1c-17.2-13.46-34.17-27.21-51.22-40.87C54.51,161.46,53.32,160.37,51.12,158.49Z"/></svg>