<svg id="Layer_5" data-name="Layer 5" xmlns="http://www.w3.org/2000/svg" viewBox="0 0 250 250"><title>tweak</title><path d="M44.16,209.73c-1.2-9.25-3.34-18.5-3.42-27.77-.35-37.9-.06-75.8,0-113.7,0-16.65,10.91-28,27.66-28.39,12.83-.28,25.67,0,38.5,0,26.67,0,53.34-.18,80-.06a43.48,43.48,0,0,1,12.35,1.91c7.85,2.38,12.64,7.54,12.55,16.25-.29,28.45-.5,56.9-.94,85.34-.17,11.22-.67,22.45-1.37,33.65-.68,10.95-1.8,21.87-2.72,32.8Zm79.61-68.66c17.65,0,35.29,0,52.94,0,7.74,0,10.87-3.17,11-10.95.06-5.21.11-10.43,0-15.64-.16-6.38-3.29-9.69-9.67-9.71q-54.15-.14-108.29,0c-6.35,0-9.56,3.25-9.84,9.65-.22,5-.13,10,0,15,.12,8.52,3.21,11.61,11.62,11.62Q97.59,141.1,123.77,141.07Zm-.12,54.21c17.85,0,35.71,0,53.56,0,7.14,0,10.32-3.14,10.45-10.16.1-5.42.12-10.84,0-16.25-.16-6.71-3.28-9.88-10.12-9.9q-53.86-.1-107.72,0c-6.4,0-9.63,3.16-9.94,9.55-.25,5.21-.16,10.43-.07,15.65.16,8.1,3.28,11.1,11.48,11.11Q97.46,195.3,123.65,195.28ZM171.83,89.49c9.61.1,16.94-6.93,17-16.36a17.14,17.14,0,0,0-17-17.35,17.36,17.36,0,0,0-16.87,17A16.61,16.61,0,0,0,171.83,89.49Zm-46.36,0a16.62,16.62,0,0,0,17-16.48,17.41,17.41,0,0,0-16.63-17.23c-9.26-.26-17.33,7.73-17.27,17.08S115.87,89.42,125.47,89.49Zm-48.17,0a16.69,16.69,0,0,0,17-16.5c0-9-7.73-17-16.69-17.22A17.19,17.19,0,0,0,60.41,72.9C60.5,82.36,67.7,89.44,77.3,89.5Z"/><path d="M83.71,109.71c19-.37,18-.33,17.85,18.1-.06,6.65-2,8.55-8.62,8.63-6.41.07-12.82-.07-19.23,0-5.23.09-7.85-2.3-7.83-7.55,0-3.8,0-7.61,0-11.42,0-5.52,2.73-8,8.22-7.82C77.29,109.81,80.5,109.71,83.71,109.71Z"/><path d="M101,163.91c9,0,18,.1,27,0,5.56-.09,8.18,2.65,8.25,8,.25,19.89,1,19.34-18.06,19.17-14.41-.13-28.82,0-43.23,0-7.11,0-9-1.9-9.07-8.83-.23-19.17-.61-18.48,17.68-18.23C89.37,164,95.17,163.91,101,163.91Z"/></svg>