<svg id="Layer_1" data-name="Layer 1" xmlns="http://www.w3.org/2000/svg" viewBox="0 0 250 250"><title>animate</title><path d="M50.77,209.73a96.83,96.83,0,0,1-1.06-10.14c-.09-25.53-.26-51.06,0-76.59.13-10.2-.82-20.1-3.86-29.83-1.19-3.79-2-7.69-3.22-12.21C50,78.86,57,76.78,64.1,74.84,103.5,64,142.93,53.32,182.28,42.34c5.22-1.46,7.79-.57,8.78,4.95a136.1,136.1,0,0,0,3.54,13.83c1.27,4.42.44,6.75-4.63,8.12-43.85,11.9-87.6,24.1-131.39,36.21A15.44,15.44,0,0,0,52.8,108H193c7.31,0,8.27.78,8.29,8.11q.1,43.73,0,87.44a50.45,50.45,0,0,1-.73,6.22Zm26.16-52.2c0,7.87-.18,15.62.19,23.34.06,1.23,2.58,3.29,4,3.35,16.14.61,32.31,1.34,48.46,1.14,13.09-.17,26.16-1.68,39.25-2.36,3.35-.18,4.79-1.18,4.7-4.69-.15-5.89-.05-11.8.15-17.69.11-3.4-1.09-4.85-4.63-4.67-8.92.46-17.84.79-26.77,1-9.29.26-18.57.45-27.86.52C102.31,157.59,90.18,157.53,76.93,157.53ZM46.84,84.85c6.18,4.58,11.41,8.5,16.7,12.32a3.62,3.62,0,0,0,2.65.6c7.14-1.83,14.25-3.8,22.37-6-6.17-4.53-11.14-8.31-16.28-11.85a5.78,5.78,0,0,0-4.14-.78C61.41,80.79,54.75,82.7,46.84,84.85ZM91.42,72.47c5.68,4.08,10.4,7.54,15.2,10.89,1.19.83,2.8,2.07,3.93,1.82,7.23-1.6,14.38-3.58,23.1-5.82-6.86-4.9-12.16-8.81-17.63-12.48-.88-.59-2.56-.35-3.75,0C105.71,68.52,99.2,70.35,91.42,72.47Zm91.72-6.7c-6.63-4.83-11.81-8.67-17.07-12.39a3.6,3.6,0,0,0-2.61-.57c-7,1.83-14,3.79-22,6,6.07,4.42,11.09,8.16,16.24,11.73a5.19,5.19,0,0,0,3.68.89C168.12,69.81,174.84,68,183.14,65.77Zm-88.2,47.36c-8.29.39-16.72-1.08-23.46,1.65-6.2,2.52-10.58,9.55-15.76,14.59a105.08,105.08,0,0,0,20.35,1.2,5.64,5.64,0,0,0,3.64-1.21C84.61,124.35,89.32,119.16,94.94,113.13Zm97.82,2.49-1-1.49c-7.49,0-15.79-2-22.24.57s-11.25,9.8-17.92,16.08c8.91,0,15.74.06,22.56-.06a5.87,5.87,0,0,0,3.61-1.2C182.85,125,187.78,120.27,192.76,115.62Zm-51-1.18c-18.18-3.63-33,2.58-39.67,16.31,7.08,0,13.87.1,20.64-.08a6.72,6.72,0,0,0,4.05-1.72C131.66,124.43,136.35,119.72,141.77,114.44Z"/></svg>