<svg id="Layer_1" data-name="Layer 1" xmlns="http://www.w3.org/2000/svg" viewBox="0 0 250 250"><title>phmArtboard 1</title><path d="M86.15,206V190.79H106.3c.31,5.1.61,10.15.92,15.21Z"/><path d="M70.69,164V144.13l13.8-.61V39.73h21V142.16H212.64v19.55l-106.46,1.7v14.68H85.26V164Z"/><path d="M153.63,131.88c-14.66-1-24.5-10.24-31.55-22.88C110.6,88.39,123.68,59.41,147,54.94c13.85-2.66,25.58,3.57,35.17,13.43,13.51,13.9,14.74,34,3.46,49.62C177.89,128.7,166.47,130.84,153.63,131.88Z"/><path d="M56.86,144.31V163.6H36.73V144.31Z"/></svg>