<svg id="Layer_1" data-name="Layer 1" xmlns="http://www.w3.org/2000/svg" viewBox="0 0 250 250"><title>L3</title><path d="M80.89,204.06c0-13.59-.2-27.17-.08-40.75,0-3-.89-4.59-3.72-5.78C65.75,152.78,55.76,146.07,48,136.41c-11.08-13.7-12.82-28.69-5.35-44.48C50.45,75.34,64,64.38,80.36,57.2c38.76-17,75.69-13.57,109.43,12.43,7.07,5.44,12.83,13.34,17.35,21.17,9.34,16.2,6.69,33.59-5.79,47.54a75.75,75.75,0,0,1-27.62,19.24c-2.18.92-3.8,1.78-3.75,4.76.22,13.9.18,27.81.23,41.72Zm54.81-95.59c4.15.45,7.84.69,11.48,1.28,3.94.64,6.66,2.76,6.3,7.16s-3.34,6.69-7.53,6.57c-4.94-.14-9.85-.93-15.35-1.5l-2.27,6.84c7.29,3.84,19.42,4.72,26.29,2.1,7.26-2.76,10.9-8.43,10.3-15.73-.46-5.68-4-8.85-9.53-11.14,6.84-3.63,9.07-8.93,7.65-15.64-1.36-6.5-6.43-9.16-12.24-10.17a33.73,33.73,0,0,0-21,3c.79,2.73,1.54,5.3,2.18,7.53,4.87-.79,9.27-2.08,13.64-2,2.17.06,5,2.29,6.17,4.32.83,1.38.12,4.88-1.16,6-1.85,1.67-4.77,2.41-7.36,2.92-2.41.46-5,.1-7.57.1ZM89.54,79.79v51.66h30.93V122.9H100V79.79Z"/></svg>