<svg id="Layer_1" data-name="Layer 1" xmlns="http://www.w3.org/2000/svg" viewBox="0 0 250 250"><title>phmmodes</title><path d="M147.42,209.73c-6.09-2-13.39-4.31-20.66-6.74-10.58-3.52-10.56-3.54-6.05-13.78,8.13-18.42,16.37-36.79,24.28-55.3,2.17-5.07,4.69-6.28,9.95-4.2a157,157,0,0,0,19.42,5.74,13,13,0,0,1,9.26,7.33c7.13,14.3,14.63,28.43,22,42.63,3.26,6.31,2.42,8-4.47,10-15,4.19-30,8.48-45,12.66C153.78,208.67,151.34,209,147.42,209.73Zm3.09-7.11,2.05.74q12.16-29.18,24.31-58.35C170.74,149.1,149.6,197.36,150.51,202.62Z"/><path d="M70.55,130c7.13-3.24,14.19-6.67,21.44-9.65a24.57,24.57,0,0,1,9.79-2.14c2.45.08,5.76,1.53,6.92,3.45.79,1.31-1,4.88-2.45,6.7C102.42,133,98,137.14,94,141.57a42.42,42.42,0,0,0-3.2,4.69c6.37-2.08,12-4.61,17.87-5.6a24.7,24.7,0,0,1,12.54,1.46c7.09,2.8,8.11,8.85,2.89,14.38a58.82,58.82,0,0,1-7.79,6.51c-6.65,5-11.87,10.94-13.65,19.41-.74,3.56-2.39,6.66-6.92,5.46-5-1.31-4.81-5.32-3.12-8.59a189.61,189.61,0,0,1,11-18.14c1.47-2.2,3.86-3.79,5.82-5.65l-1.58-1.74c-5.25,4.59-11.15,8.64-15.58,13.92-5.54,6.58-10,14.07-14.67,21.38-3.72,5.88-8.31,8.77-13.69,7.79-6.49-1.19-11-5.12-11.27-12.24-.22-5.8,1.18-11.84,2.88-17.48,1.27-4.2,4.17-7.91,5.83-12.52-1.48,1.12-2.81,2.66-4.47,3.25-2.63.93-6.32,2.51-8,1.41s-2.94-5.26-2.56-7.81c.6-4.19,2.66-8.16,4.1-12.23.41-1.15.84-2.29,1.74-4.76-2.15,2-3.08,3.29-4.34,3.87a31,31,0,0,1-5.47,1.44c0-1.95-.72-4.4.18-5.77,7.09-10.9,16.88-18.1,30-20.06,1.65-.24,4.54.92,5.13,2.22.76,1.66.52,4.77-.63,6.1-2.16,2.51-5.28,4.2-8,6.23Z"/><path d="M139.71,83.86c0,11.47.08,23-.05,34.42,0,3.48.45,8.32-4,8.85a14.89,14.89,0,0,1-10.61-3.2c-6.63-6.07-12.23-13.28-18.62-19.65a12.72,12.72,0,0,0-7.58-3.39,164.19,164.19,0,0,0-18.55.45c-3.52.21-5.24-.69-5.15-4.61.18-7.53,0-15.06-.08-22.59,0-4.53,1.72-7.24,6.74-6.76a23.64,23.64,0,0,1,3.38.08c14,3.65,22.8-4.52,31.64-13.27a82.22,82.22,0,0,1,14.36-11.64c5.1-3.14,7.87-1.35,8,4.62.22,12.22.07,24.46.07,36.68Z"/><path d="M160.14,59.64c1-3.1,2-5.92,2.85-8.68,12.53,1.94,23.69,14.68,24.27,28.43.75,17.7-7,35.06-26.24,40.44-1-3.24-2.06-6.52-3.06-9.66C181.85,92.76,182.65,75,160.14,59.64Z"/><path d="M152.36,68.07c11,2.74,15.58,8.79,14.88,19.26-.53,8.08-4.45,11.45-15,12.71-1.36-3.86-3.16-7.25,2.7-9.77,4.17-1.78,4.46-9.56.33-11.39C148.81,76,151.18,72.25,152.36,68.07Z"/></svg>