<svg id="intro" xmlns="http://www.w3.org/2000/svg" viewBox="0 0 250 250"><title>more</title><g id="Layer_7" data-name="Layer 7"><path d="M126.65,147.7c-16.77-.34-26.37-10.62-25.83-27.65.36-11.41,9.13-18.89,21.84-18.64,14.58.3,25.33,11,25,24.9C147.38,139.07,138.66,147.94,126.65,147.7Z"/><path d="M166.13,124.23c.06-13.57,9.74-22.56,24.22-22.49,12.25.06,22.25,9.2,22.38,20.48.16,13.83-10.75,25.89-23.37,25.84C175.94,148,166.08,137.88,166.13,124.23Z"/><path d="M82.65,122.94c0,14.19-9.53,24.67-22.45,24.59-12-.07-23.54-10.32-23.47-20.79.09-13.5,11-25.28,23.35-25.33C73.46,101.35,82.61,110.08,82.65,122.94Z"/></g></svg>