<svg id="Layer_1" data-name="Layer 1" xmlns="http://www.w3.org/2000/svg" viewBox="0 0 250 250"><title>R3</title><path d="M80.86,203.67c0-13.58-.2-27.17-.08-40.75,0-3-.89-4.6-3.72-5.78C65.72,152.38,55.72,145.67,47.91,136c-11.08-13.71-12.82-28.7-5.35-44.5C50.41,74.93,63.94,64,80.33,56.78,119.09,39.8,156,43.2,189.79,69.21c7.07,5.45,12.83,13.35,17.34,21.18,9.35,16.21,6.7,33.59-5.78,47.55a75.9,75.9,0,0,1-27.63,19.25c-2.18.91-3.8,1.77-3.75,4.76.22,13.9.18,27.81.23,41.72ZM85.27,80.05v51H95.8V111c10.83-1.74,13.21-.24,15.75,9.55.7,2.67,1.29,5.37,2.19,8,.37,1.06,1.36,2.61,2.19,2.69,3.24.31,6.53.13,10.7.13l-9.21-25.87c-1,0-.7-.38-.31-.62,5.8-3.57,7.16-8.92,5.85-15.15s-5.76-9.15-11.46-9.48C103,79.69,94.42,80.05,85.27,80.05Zm53.91,29.07c4.11.36,7.65.52,11.15,1,4,.59,7.14,2.39,6.84,7.18-.25,4-3.22,6.76-8.09,6.64s-9.49-1-14.71-1.67c-.68,2-1.53,4.55-2.44,7.26,8.58,3.8,17,4.62,25.47,2.11,8.34-2.47,13.1-9.77,10.72-17.46-1.2-3.9-4.81-7-7.35-10.56,5.14-2.86,6.9-8,5.83-14.39-1-6.13-5.35-9.14-10.89-10.32a32,32,0,0,0-22.3,2.92l2.3,7.28c4.67-.76,8.59-1.69,12.56-2,3.69-.23,6.86,1.3,7.43,5.41.58,4.27-1.81,6.78-5.89,7.45-3.45.56-7,.73-10.63,1.09Z"/><path d="M96.05,101.71V88.11c3.66,0,7-.24,10.36.06,3.69.34,5.82,2.63,5.89,6.43.07,3.6-1.87,5.81-5.38,6.28S100,101.43,96.05,101.71Z"/></svg>