<svg id="Layer_1" data-name="Layer 1" xmlns="http://www.w3.org/2000/svg" viewBox="0 0 250 250"><title>rewind</title><path d="M130.43,52.3c1.42,19.67.33,39.46.9,60.4,2.58-2.07,4.36-3.4,6-4.85,16.26-14.14,32.4-28.43,48.84-42.37a144.73,144.73,0,0,1,17.17-12c6.09-3.78,9.36-2,9.35,4.91q0,67-.31,134c0,4.06-1.31,6.15-5.6,3.63-3.5-2-7.24-3.79-10.46-6.23-21.48-16.3-42.85-32.74-64.77-49.53-.14,1.64-.4,3.22-.4,4.8,0,14.95,0,29.91,0,44.86,0,8.33-2.85,10.07-9.79,5.54a233.61,233.61,0,0,1-22.64-16.3c-19.32-16.25-38.3-32.9-57.37-49.44-6.14-5.32-6.23-7.14.17-12.23q37.86-30.06,76-59.8c3.15-2.46,7.07-3.92,10.63-5.85Z"/></svg>