<svg id="Layer_1" data-name="Layer 1" xmlns="http://www.w3.org/2000/svg" viewBox="0 0 250 250"><title>search</title><path d="M175.54,209.73c-12.31-15-24.55-30-37.08-44.78-1-1.23-4.46-1.52-6.25-.84-14.45,5.47-28.8,4.3-43.28.24-9.87-2.77-18.61-7.42-25.26-15.26C46,128.27,39.12,101.2,51.56,74.85,62.35,52,91.56,37.51,118.07,40c23.44,2.21,40.17,12.9,49.93,34.17,6.93,15.09,6,30.9,2.55,46.6-1.46,6.57-4.14,12.87-6.76,20.79,11.43,13.66,23.51,28.54,36.11,43,5.41,6.19,6.09,6.8.09,12.71-4.49,4.44-9.49,8.36-14.26,12.5Zm-29.1-103.2c.08-20.58-9.39-32.77-24.93-37.91-9.76-3.22-18,0-26.64,3.48-16,6.42-22.61,19.33-22.91,36.73-.16,9.63,14.16,26.3,25.35,29.45,9.39,2.64,19.42,3.82,28.09-1.31C138.25,129.38,146.08,118,146.44,106.53Z"/></svg>