<svg id="Layer_1" data-name="Layer 1" xmlns="http://www.w3.org/2000/svg" viewBox="0 0 250 250"><title>show-hide</title><path d="M83.13,74.35l9.31-4.86c-1.76-6.1-3.51-12.21-5.58-19.4,5.78-1.3,11.31-2.78,16.93-3.61,1-.15,3.21,2.13,3.61,3.61,1.23,4.62,1.87,9.39,2.84,14.7L124,63c.64-5.18,1-10.4,2.1-15.44.36-1.57,3-3.84,4.49-3.73,5.72.46,11.38,1.74,17.67,2.82-1.42,6.21-2.67,11.65-4,17.61,3.44,1.27,6.86,3,10.47,3.62,1.37.24,3.7-1.72,4.69-3.26,2.81-4.34,5.16-9,8.13-14.3,5.6,4,10.81,7.4,15.48,11.4.93.8.57,4.5-.47,6-2.9,4-6.47,7.62-10.12,11.78l11.46,9.89c3.89-4.19,7.79-8.2,11.46-12.4,2.61-3,4.88-3.9,7.73-.29,3.36,4.25,9.32,8.14,9.65,12.54.27,3.44-6.26,7.46-9.87,11.13-1.54,1.56-3.33,2.88-5.42,4.66,3.34,4.81,6.71,9.68,10.09,14.54,5.13,7.39,4.87,14.63.79,22.65-20.88,41-60.06,54.37-96.95,51.09-25.16-2.23-42.09-15.29-55-35.39-4.44-6.93-7.79-14.54-12.07-21.58-4.09-6.73-4-12.77,1.22-18.77,2-2.27,3.57-4.83,5.69-7.72-4.07-3.18-7.89-6.37-11.92-9.26-2.83-2-3.57-3.6-1-6.72,9.63-11.7,9.52-11.79,20.94-2,.75.64,1.55,1.22,2.65,2.07,1.23-1.13,2.41-2.12,3.48-3.22s2.14-2.39,3.59-4L56.58,72.08c4.34-3.7,8.25-7.45,12.66-10.49,1.14-.79,4.59,0,5.68,1.23C77.94,66.22,80.28,70.24,83.13,74.35Zm33.05,96.3c35.4-.9,54.78-10.24,67.45-36.55a8.23,8.23,0,0,0-.16-6c-7.35-17.3-21.51-28.2-36.6-38.08a17.72,17.72,0,0,0-7.37-2.48c-22.28-2.82-42.59.47-57.28,19.66a187.51,187.51,0,0,0-12.66,18.31,9.92,9.92,0,0,0-.29,8.06C80.11,156.32,95.4,172.9,116.18,170.65Z"/><path d="M157.39,132c-.36,17.61-13.78,30.06-31.88,29.61-15.59-.39-30.4-16.31-29.92-32.17.49-16.33,15-30.29,31.12-29.9C143.6,99.9,157.75,114.88,157.39,132Z"/></svg>