<svg id="Layer_1" data-name="Layer 1" xmlns="http://www.w3.org/2000/svg" viewBox="0 0 250 250"><title>tools</title><path d="M40.87,84.52c8.72,5.32,17.43,10.58,26.07,15.94,7.26,4.5,15.12,2,22.6,1.45,2.17-.16,4.16-4.92,5.9-7.78s5-6.72,4.11-8.73C97.47,80.42,94.28,75.13,90,72,81.3,65.54,71.59,60.41,61.56,54.3c6.91-3.18,12.84-6.87,19.29-8.53a25.47,25.47,0,0,1,14.7,1c7.86,3.08,15.18,7.58,22.63,11.66,6.44,3.52,9.87,9,10.51,16.42.79,9.22,1.54,18.46,2.79,27.62a16,16,0,0,0,3.65,7.8c14.73,17.11,34.36,28.22,51.83,42,4.6,3.62,9.47,6.9,14.06,10.53a25.06,25.06,0,0,1,4.64,34.94c-9.74,12.91-23.31,15.68-35.59,7a74.88,74.88,0,0,1-9.66-8.69c-19.35-19.66-38.54-39.47-58-59a16.27,16.27,0,0,0-9.2-4.21c-7.5-.75-15.09-.62-22.64-.7a23.39,23.39,0,0,1-16.89-6.73c-1.89-1.85-3.92-3.55-5.88-5.33C35.53,109,33.84,100.59,40.87,84.52Zm154,96.17c.1-6-5.38-11.38-11.68-11.4-5.7,0-10.72,5.07-10.75,10.9,0,6,4.72,11.31,10.25,11.49C188.83,191.88,194.78,186.51,194.88,180.69Z"/><path d="M204,73.29c-13,14.27-25.94,28.46-38.93,42.73l-7.53-8,33-34.9L171.9,55.33l-10,8.75L174.5,74.42l-7.19,5.3-8.66-12.33-10.73,9.4a96.68,96.68,0,0,1-2.66-10.2,5.56,5.56,0,0,1,1.54-4.26c7.95-7.21,16.07-14.23,25.38-22.4Z"/><path d="M105.71,162.76l7.08,7.64-37,38.22-39-36.55c7.46-7.22,14.57-14.2,21.85-21a4.74,4.74,0,0,1,3.87-.73c2.86.79,5.59,2.07,8.9,3.36-1.47,1.79-2.7,3.3-4.43,5.43L79.63,169.9c-2.3,2.5-3.63,3.95-5.53,6L63.74,163,53.41,173.23l20.73,19.55Z"/><path d="M157.8,89.72l-2.91,3.1c-7.26-4.59-7.47-5-6.75-13.74Z"/><path d="M93.25,157.28l-4.44,4.78-7.44-7,11.58.57Z"/></svg>