<svg id="Layer_18" data-name="Layer 18" xmlns="http://www.w3.org/2000/svg" viewBox="0 0 250 250"><title>auto-guide</title><path d="M85.05,207.13v-15H105c.31,5,.61,10,.91,15Z"/><path d="M104.35,144H210v19.33L104.92,165v14.39H84.21V165.81H69.89V146l13.52-.64V42.87h20.94Z"/><path d="M140.7,124.49,129.5,116l-7.32,5.11L116,109.56c12.1-2.56,7.18-10.92,6.87-17.79-11-3.43-11-3.43-5.19-15.08,9.94,7.17,12.16-3.9,17.87-7.33-4.56-9.85-4.11-11,5.55-14.32,1.45,2.78,2.93,5.65,4.59,8.86l12-2,2.45-9.07,12.74,3.38c-6.43,9.06-.53,13.94,5.2,18.88,8.67-4.73,8.67-4.73,14.43,7.67-8.18,1.15-9.71,6.42-8,13.49.5,2.09.39,2.12,9.41,4.63-.55,3.41-1.11,6.91-1.81,11.3-8.82-3.15-14.32.77-18.06,8.8l4.71,7-10.25,7.66-4.82-10.57c-6.18,2-15.31-.76-14,11.33l-11.82-3.59Zm25.47-29.43c.2-7.73-4.14-12.24-11.95-12.4-7.44-.16-12.23,4.28-12.33,11.44-.11,7.42,5,13.75,11.06,13.87C161.65,108.14,165.93,104,166.17,95.06Z"/><path d="M56,165.43H36.13V146.08H56Z"/></svg>