<svg id="Layer_18" data-name="Layer 18" xmlns="http://www.w3.org/2000/svg" viewBox="0 0 250 250"><title>floor</title><path d="M167,154.78H135c0,6.74-.22,13.3.08,19.84.2,4.22-1.53,6.11-5.49,6-19.55-.7-16.92,3.39-16.63-15.81,0-3.35,0-6.69,0-10.46H80.64c-.7,5.46-1.41,11.22-2.16,17-1.26,9.82-1.42,9.92-12,7.83l3.76-25.42H36.82c-.52-5.55,1.16-7.7,6.44-7.5,9.23.35,18.47.1,28.05.1,1.09-7,2.11-13.67,3.3-21.32-7.9,0-15.3,0-22.7,0-3.49,0-7.68.7-7.68-4.83,0-4.77,2.65-7.11,7.88-7.14,6.77,0,13.55-.16,20.32,0,3.21.11,4.38-1,4.68-4.16.44-4.77,1.34-9.49,2.14-14.86H51.86c-.34-4.35,1.52-5.52,5.11-5.33,6.05.32,12.12.13,18.16.52,3.78.24,5.61-.9,5.75-4.87a76.21,76.21,0,0,1,1.23-8.53H89.8c-.36,4.43-.7,8.58-1.07,13h25.5c.91-4.3,1-9,3.06-12.44.94-1.55,6-.88,9.14-.77,10.09.37,3.38,9.15,7,13.44h25.41c-.35-4.4-.69-8.71-1-13.3h7.33c.24.73.51,1.36.66,2,2.42,11.42,2.41,11.43,13.84,11.62,4.28.07,8.57.22,12.84.1,3.21-.09,4.61,1.15,4.12,4.95h-28c.92,6.42,1.76,12.2,2.72,18.88,7.62,0,15.2,0,22.79,0,4.19,0,7.77,1.11,9.42,5.51s.06,7-4.67,7.11c-8.17.16-16.36,0-25.33,0,1.07,7.16,2.08,13.92,3.19,21.37,9.72,0,19.31.21,28.87-.08,5.08-.16,7.27,1.78,7.07,7.39H178.06c1.35,9.06,2.58,17.41,3.79,25.58-.85.41-1.16.7-1.46.69-9.78-.47-9.79-.47-11-10.56-.58-4.6-1.1-9.21-1.67-13.81A13.76,13.76,0,0,0,167,154.78Zm-.7-7.87c-.87-7.15-1.69-13.9-2.58-21.2-4.08.38-9.24-.6-10.67,1.27-4.56,6-11.14,7.94-17,11.4-1.35.8-1.73,3.76-1.92,5.79a3.57,3.57,0,0,0,2.36,2.62C146.21,147,155.93,146.91,166.33,146.91Zm-53.27-.75c1.38-5.06.78-8.12-4.88-9.74-3.66-1-7.82-3.68-9.72-6.83-3.19-5.29-7.67-4.21-12.06-4.31-.88,0-2.43,1.51-2.58,2.49-.93,6-1.54,12-2.31,18.39Zm19.75-45.5c5.87,3.23,11.61,5.08,15.45,8.86,4.28,4.21,8.44,4,13.71,3.44-.65-5.58-1.15-10.85-2-16.06a3.78,3.78,0,0,0-2.71-2.39c-8.1-.19-16.2-.11-24.45-.11ZM85.42,113.78c4.68-.8,10-.12,12-2.38,4.75-5.3,9.39-9.57,17.16-9.18V94.35H87.86C87.08,100.54,86.36,106.34,85.42,113.78Z"/></svg>