<svg id="Layer_18" data-name="Layer 18" xmlns="http://www.w3.org/2000/svg" viewBox="0 0 250 250"><title>grid-snap</title><path d="M38.68,203c-.69-11.71-2.06-23.42-1.94-35.12.35-35.39,1.14-70.78,2.06-106.17C39.11,50,40.62,48.72,52,47.65c6.82-.64,13.69-1,20.54-1,32.7-.1,65.4,0,98.1,0,9.91,0,19.85-.41,29.72.21,8.58.54,11.34,4,11.32,12.63q-.23,66.91-.67,133.84c0,3.24-.58,6.47-.89,9.7ZM72.3,114c-4.5,0-9,.15-13.5-.05-3.27-.14-4.49,1.12-4.48,4.36,0,7.56,0,15.13-.35,22.68-.2,4.75,2.16,6.58,6.45,6.61,8.28.07,16.57,0,24.85.05,3.35,0,5.12-1.46,5.14-4.78,0-8.11,0-16.21,0-24.32,0-3.06-1.39-4.64-4.62-4.57C81.31,114.12,76.81,114.05,72.3,114ZM72,95.6v0c4.51,0,9-.12,13.54,0,3.41.12,5.05-1.13,4.93-4.68C90.15,83,89.93,75,89.87,67.09,89.85,64,88.52,63,85.59,63Q72,63.16,58.51,63c-2.88,0-4.41.91-4.47,4-.17,7.94-.48,15.87-.64,23.81-.06,3.28,1.51,5,5,4.83C62.92,95.48,67.44,95.6,72,95.6Zm-.06,99.75v0c4.33,0,8.66-.11,13,0,3.35.11,5.05-1.07,5-4.65-.15-7-.17-14.06-.16-21.1,0-3.34-1.73-5.22-4.86-5.26-9.18-.12-18.38-.15-27.54.24-1.31.06-3.53,2.6-3.59,4.05-.25,7.2,0,14.41.22,21.62.09,3.49,1.88,5.19,5.53,5C63.59,195.23,67.75,195.35,71.89,195.35Zm117.59-14.83h.14c0-3.79-.13-7.59,0-11.38.16-3.48-1.36-5-4.73-5-7.6,0-15.19,0-22.78,0-3.24,0-5.08,1.24-5.06,4.78,0,7.41-.3,14.83.07,22.22.08,1.55,2.45,4.14,3.93,4.27,7.72.65,15.51.56,23.26.94,4.13.21,5.44-1.63,5.18-5.51C189.3,187.4,189.48,184,189.48,180.52Zm-49.75-.08h-.16c0-4,0-7.93,0-11.9,0-3.19-1.53-4.42-4.79-4.24-7.55.44-15.13.82-22.69.78-4.38,0-5.67,1.79-5.48,5.86.27,5.58.19,11.18.23,16.77,0,6.19,1.15,7.48,7.49,7.85s12.62.39,18.91.77c4.95.31,6.95-1.77,6.54-6.69C139.52,186.6,139.73,183.51,139.73,180.44ZM124,63.12v.14c-4.16,0-8.38-.39-12.44.2-1.59.24-4,2.64-4.07,4.17-.43,7.56-.35,15.16-.08,22.74,0,1.57,1.81,4.45,2.54,4.37,2.53-.25,6.58-.95,7.15-2.54,3.69-10.13,10.9-16,20.86-18.81,3.92-1.09,3.73-3.84,3-6.19a6.75,6.75,0,0,0-4.49-3.9C132.4,62.73,128.19,63.12,124,63.12Zm-8.11,51.05c-3.23.61-8.37-2-8.55,4.6-.21,7.92-.31,15.86.15,23.75.11,1.78,2.65,4.8,4.19,4.89A206.88,206.88,0,0,0,136,147.2c1.53-.1,3.59-2.79,4-4.63.29-1.14-1.68-3.74-3.14-4.27a28.39,28.39,0,0,1-15.33-12.18C119.38,122.47,117.89,118.4,115.93,114.17ZM158.1,72.55c11.3,3.57,20.17,9.69,24.26,21.37.39,1.13,3.19,2.21,4.65,2s3.47-2.2,3.52-3.48c.37-8.64.45-17.31.16-26,0-1.23-2.51-3.34-3.93-3.41-6.66-.3-13.34,0-20,0C157.85,63.09,157.85,63.06,158.1,72.55Zm14.69,74v.59c4.5,0,9,.21,13.48-.12,1.44-.1,3.93-1.57,4-2.48q.47-13.48,0-27c0-1-2.37-2.54-3.83-2.83-1.07-.21-3.26,1-3.59,2-3.92,11.7-12.41,18.08-23.78,21.61-1.27.4-2.54,3.24-2.42,4.85.09,1.22,2.3,3.1,3.72,3.25A116.65,116.65,0,0,0,172.79,146.58Z"/></svg>