<svg id="Layer_18" data-name="Layer 18" xmlns="http://www.w3.org/2000/svg" viewBox="0 0 250 250"><title>stay-upright</title><path d="M57.66,209c0-8.09.22-16.19,0-24.27-.16-4.79,1.3-6.59,6.4-6.55,30.31.26,60.63.22,90.94.24,10.17,0,20.35.11,30.51-.22,4.6-.15,6.59,1.41,6.39,6-.35,8.25-.53,16.51-.78,24.76Z"/><path d="M108.91,96.06c-5.82,5.22-11.65,10.24-17.24,15.53-3.15,3-5.59,3.66-9,.06-4.35-4.67-9.19-8.9-14-13.13-2-1.78-3.13-3.19-.78-5.46C85,76.59,101.89,60,119.14,43.68c6-5.64,8.12-5,13.69.55,15.52,15.61,31,31.26,46.78,46.61,3.75,3.65,4.16,6,0,9.4-4.31,3.63-8.19,7.77-12.16,11.79-2.67,2.7-5.07,2.57-7.79,0-5.58-5.19-11.29-10.24-17.89-16.21-.4,8.19-1,15.27-1,22.34q-.16,20.05.24,40.11c.1,4.48-1.44,6-5.86,5.69-5.82-.38-11.67-.2-17.51-.27-7.19-.08-8.22-1-8.29-8.12q-.28-27.11-.46-54.22C108.89,99.37,108.91,97.35,108.91,96.06Z"/></svg>