<svg id="Layer_18" data-name="Layer 18" xmlns="http://www.w3.org/2000/svg" viewBox="0 0 250 250"><title>studio-lighting</title><path d="M92.16,209.64c-.26-1.85-1.36-4.18-.62-5.46a97,97,0,0,1,8.29-11.82c.66-.85,2.33-.91,3.53-1.33.32,1.37,1.29,3,.83,4.06C102,200,99.45,204.81,97,209.64Z"/><path d="M121.33,209.64c.13-2.8,0-5.66.51-8.37.33-1.63,1.78-3,2.73-4.54,1,1.54,2.32,3,2.79,4.63a67.22,67.22,0,0,1,1.26,8.28Z"/><path d="M163.66,76c0,6.26,0,12.53,0,18.8,0,4.73-2,8-6.19,10.23-18.57,10-38.06,11.71-58.12,6-12-3.38-14.31-7.17-14.31-19.51,0-10.72.19-21.44-.08-32.15-.12-5,2-8.41,5.8-11.25,8.79-6.5,19.06-7.16,29.39-7.78,13-.78,25.29,1.39,36.81,7.78,4.94,2.73,7.56,6.1,7,12.08-.52,5.21-.11,10.5-.11,15.76Zm-42.31-3.58c9.2-1.82,17.33-3.19,25.32-5.14,3-.74,5.91-2.6,8.54-4.42.91-.63.87-2.65,1.27-4-1.26,0-2.64-.29-3.76.1-3.6,1.26-7,3.38-10.69,4.1-16.23,3.15-32.43,4.86-47.74-3.94-.83-.48-2.13-.14-3.22-.18.1,1.26-.28,3,.4,3.67a13.6,13.6,0,0,0,5.45,3.68C105.19,68.52,113.56,70.46,121.35,72.39Z"/><path d="M169.81,156.34c-30.34,8.63-59.86,8.23-90.29.07C84,143.12,88.4,129.81,93,116.07c20.6,5.61,40.82,7.29,61.52-2.49Z"/><path d="M159.17,111.92l10.19-7.65,35.51,34.06-22,12C174.89,137.36,167.17,124.86,159.17,111.92Z"/><path d="M65.13,151.71l-20-11.05L78,104.93l10.87,8C81.2,125.45,73.49,138.06,65.13,151.71Z"/><path d="M93.28,165.79c7.22,2.08,13.17,3.62,19,5.51,9,2.93,17.61,4.93,26.44-1.56,3.32-2.44,8.68-2.1,13.54-3.13-3.87,13.19-14.19,21-26.7,20.92C109.72,187.45,97.08,179.48,93.28,165.79Z"/><path d="M83.06,175.28c.79.6,2,1.05,2.13,1.74.23,1,.12,2.77-.52,3.2a86.86,86.86,0,0,1-12.47,7.31c-1.27.56-4.23-.94-5.27-2.34-.63-.84.5-4.37,1.65-4.89C73.16,178.27,78.05,177,83.06,175.28Z"/><path d="M178.11,191.44a31.89,31.89,0,0,1-3.56-2c-3.33-2.57-6.68-5.14-9.81-7.94-.83-.74-.92-2.31-1.35-3.5,1.24-.32,2.79-1.27,3.67-.85a131.1,131.1,0,0,1,13.15,7.23c1,.64,1.61,2.74,1.54,4.12s-1.13,3-1.76,4.48Z"/><path d="M154,209.73c-2.46-1.61-4.16-2.09-4.6-3.11a133.89,133.89,0,0,1-4.8-13,3.15,3.15,0,0,1,1.27-2.86,3.29,3.29,0,0,1,3,.94,82,82,0,0,1,7.23,11.85C156.73,204.78,155,207.14,154,209.73Z"/></svg>